<svg xmlns="http://www.w3.org/2000/svg" enable-background="new 0 0 1364 960" viewBox="0 0 1364 960"><path fill="#ffbb29" d="M527.07,763.8c-8.44-10.28-16.28-21.15-23.48-32.58c-45.14-71.64-59.69-156.57-40.96-239.14
		c8.16-35.98,22.29-69.83,41.99-100.65c19.04-29.78,42.82-56.02,70.68-78c17.56-13.84,36.48-25.74,56.38-35.53L577.21,58.51
		l-45.44,187.15l-76.34-92.82l6.29,92.08L316.22,117.48l71.09,189.46l-79.01,3.85l57.73,49.01l-200.85,6.23l160.97,68.27
		l-83.7,24.02l76.28,30.78l-37.43,49.21l53.38-5.93l-129.53,132.8l200.48-49.79l-88.59,150.7l139.74-70.79l-17.2,107.67l79.84-30.38
		l-41.26,146.87L583.81,817.7C563.08,802.43,543.66,783.92,527.07,763.8z"/><polygon fill="#ff9500" points="579.37 120.97 541.33 297.52 476.6 203.89 495.88 318.34 360.15 181.1 427.12 337.5 346.99 323.16 410.82 374.74 218.88 374.74 421.59 446.41 297.96 461.71 412.17 476.15 310.52 516.82 387.06 516.82 255.21 639.26 430.56 597.1 353.11 731.58 471.81 667.54 455.38 786.8 545.36 743.75 497.08 885.76 587.64 809.48 616.67 323.16"/><path fill="#fff" d="M1209.75,239.23c0.03-0.12,0.06-0.23,0.09-0.35c0.16-0.58,0.31-1.17,0.44-1.75
			c0.01-0.05,0.02-0.09,0.03-0.14c1.68-7.6,0.87-15.48-2.37-22.65c0,0,0-0.01,0-0.01c-0.12-0.27-0.23-0.54-0.36-0.8
			c-0.17-0.35-0.35-0.7-0.54-1.05c-0.02-0.03-0.03-0.06-0.05-0.09c-4.27-8.14-11.35-14.27-20.07-17.31L750.91,42.57
			c-3.86-1.35-7.88-2.04-11.95-2.04c-8.94,0-17.31,3.32-23.76,8.94c-0.21,0.16-0.41,0.32-0.61,0.5c-0.22,0.2-0.43,0.42-0.64,0.62
			c-0.1,0.1-0.21,0.2-0.31,0.3c-0.54,0.53-1.07,1.08-1.57,1.64c-0.09,0.1-0.18,0.19-0.27,0.29c-1.15,1.31-2.21,2.7-3.16,4.17
			c-0.14,0.21-0.26,0.42-0.39,0.63c-0.32,0.51-0.63,1.03-0.92,1.56c-0.15,0.27-0.3,0.55-0.44,0.82c-0.27,0.52-0.53,1.05-0.77,1.58
			c-0.12,0.26-0.24,0.51-0.35,0.77c-0.34,0.79-0.67,1.59-0.95,2.41l-68.56,196l-2.51,7.17c-82.47,38.44-147.49,110.78-174.5,201.43
			c-8.3,2.7-14.78,9.54-16.8,18.47c-2.04,8.97,0.9,17.94,7.19,23.92c-12.23,77.48,4.07,156.62,46.14,223.39
			c42.08,66.78,106.44,115.63,181.61,138.02c2.69,8.26,9.51,14.77,18.48,16.8c1.84,0.42,3.73,0.63,5.61,0.63c0,0,0,0,0,0
			c7.1,0,13.63-2.9,18.31-7.81c16.7,2.64,33.66,3.99,50.48,3.99c0.01,0,0,0,0.01,0c143.03,0,270.17-95.06,310.91-231.75
			c8.3-2.7,14.78-9.54,16.81-18.48c2.04-8.97-0.9-17.94-7.19-23.93c7.95-50.34,3.87-101.37-11.52-149.27l12.3,4.3
			c3.86,1.35,7.88,2.04,11.95,2.04c0,0,0,0,0,0c7.31,0,14.24-2.23,20.06-6.11c0.29-0.19,0.59-0.37,0.88-0.58
			c0.03-0.02,0.06-0.05,0.09-0.07c1.46-1.04,2.85-2.19,4.14-3.45c0.04-0.04,0.08-0.09,0.12-0.13c3.91-3.82,6.98-8.54,8.87-13.92
			l30.85-88.19c0,0,0,0,0,0l0.19-0.54l34.55-98.79l3.08-8.8c0,0,0,0,0-0.01l2.79-7.98C1209.36,240.53,1209.56,239.88,1209.75,239.23
			z M821.01,692.56c-0.53,0.08-1.07,0.22-1.59,0.41c-0.92,0.35-1.84,0.68-2.77,1.01l52.1-132.8c0.01-0.02,0.02-0.03,0.02-0.05
			l11.98-30.55l13.08-33.34c0.45,0.86,0.93,1.71,1.37,2.59c0.03,0.06,0.07,0.11,0.1,0.17c8.61,17.23,13.48,35.82,14.47,54.79
			c0,0.14-0.01,0.29,0,0.43c0.47,9.45-0.04,18.94-1.49,28.33c-0.03,0.2-0.06,0.39-0.1,0.59c-0.2,1.23-0.41,2.46-0.64,3.69
			c-0.07,0.35-0.13,0.7-0.2,1.05c-0.28,1.42-0.57,2.84-0.89,4.25c-0.32,1.42-0.67,2.84-1.04,4.25c-0.06,0.24-0.12,0.48-0.19,0.72
			c-2.84,10.69-6.91,20.98-12.14,30.66c-0.16,0.3-0.3,0.61-0.42,0.93C876.87,658.62,851.45,680.8,821.01,692.56z M632.13,540.89
			c0.03-0.2,0.07-0.4,0.1-0.6c0.2-1.23,0.41-2.45,0.64-3.68c0.07-0.35,0.13-0.71,0.2-1.06c0.28-1.42,0.57-2.83,0.89-4.24
			c0.32-1.42,0.67-2.83,1.04-4.24c0.06-0.25,0.13-0.49,0.19-0.74c2.84-10.69,6.9-20.98,12.14-30.65c0.16-0.3,0.3-0.61,0.42-0.93
			c22.88-41.91,65.96-69.66,115.26-72.09c0.07,0,0.14,0,0.2-0.01c2.28-0.11,4.6-0.17,6.88-0.17c10.38,0,20.82,1.17,31.03,3.49
			c0.5,0.11,1,0.25,1.5,0.37l-82.16,266.43c-5.76-2.19-11.37-4.74-16.78-7.67c-0.11-0.06-0.23-0.11-0.35-0.16
			c-20.75-11.27-38.37-27.71-51.31-48.24c-12.92-20.51-20.15-43.49-21.37-67.05c0-0.15,0.01-0.29,0-0.44
			C630.17,559.77,630.67,550.28,632.13,540.89z"/><path fill="#ffd000" d="M768.38,243.5l-0.7,1.67c-0.76,0-1.52,0.01-2.28,0.02L768.38,243.5z"/><path fill="#de422e" d="M834.76,277.67c-157.15-35.65-313.46,62.84-349.11,220s62.84,313.46,220,349.11
			c157.15,35.65,313.46-62.84,349.11-220C1090.41,469.62,991.91,313.32,834.76,277.67z M737.52,706.29
			c-79.57-18.05-129.44-97.19-111.39-176.76c18.05-79.57,97.19-129.44,176.76-111.39c79.57,18.05,129.44,97.19,111.39,176.76
			C896.22,674.47,817.08,724.34,737.52,706.29z"/><path fill="#de422e" d="M856.24,260.34c0.58-8.51-5.13-16.18-13.45-18.07c-8.32-1.89-16.78,2.57-19.93,10.5l-12.97,32.66
				l43.95,9.97L856.24,260.34z M836.87,268.36c-5.71-1.3-9.3-6.98-8-12.69c1.3-5.71,6.98-9.3,12.69-8c5.71,1.3,9.3,6.98,8,12.69
				C848.27,266.07,842.58,269.65,836.87,268.36z"/><path fill="#de422e" d="M468.32,476.19c-8.51-0.58-16.18,5.13-18.07,13.45c-1.89,8.32,2.57,16.78,10.5,19.93l32.66,12.97
				l9.97-43.95L468.32,476.19z M476.34,495.55c-1.3,5.71-6.98,9.3-12.69,8s-9.3-6.98-8-12.69c1.3-5.71,6.98-9.3,12.69-8
				S477.63,489.84,476.34,495.55z"/><path fill="#de422e" d="M684.17,864.1c-0.58,8.51,5.13,16.18,13.45,18.07c8.32,1.89,16.78-2.57,19.93-10.5l12.97-32.66l-43.95-9.97
				L684.17,864.1z M703.53,856.08c5.71,1.3,9.3,6.98,8,12.69c-1.3,5.71-6.98,9.3-12.69,8c-5.71-1.3-9.3-6.98-8-12.69
				C692.13,858.37,697.82,854.79,703.53,856.08z"/><path fill="#de422e" d="M1072.08,648.26c8.51,0.58,16.18-5.13,18.07-13.45c1.89-8.32-2.57-16.78-10.5-19.93l-32.66-12.97
				l-9.97,43.95L1072.08,648.26z M1064.06,628.89c1.3-5.71,6.98-9.3,12.69-8c5.71,1.3,9.3,6.98,8,12.69c-1.3,5.71-6.98,9.3-12.69,8
				C1066.35,640.29,1062.77,634.6,1064.06,628.89z"/><path fill="#fff" d="M773.14,270.41L762.8,414.64c13.15-0.65,26.61,0.45,40.08,3.51c13.47,3.06,26.09,7.87,37.67,14.13
				l52.91-134.57c-18.45-8.58-38.07-15.36-58.71-20.04C814.11,272.98,793.49,270.64,773.14,270.41z"/><path fill="#fff" d="M478.39,559.28l144.23,10.34c-0.65-13.15,0.45-26.61,3.51-40.08c3.06-13.47,7.87-26.09,14.13-37.67
				l-134.57-52.91c-8.58,18.45-15.36,38.07-20.04,58.71C480.96,518.31,478.62,538.94,478.39,559.28z"/><path fill="#fff" d="M1062.01,565.16l-144.23-10.34c0.65,13.15-0.45,26.61-3.51,40.08c-3.06,13.47-7.87,26.09-14.13,37.67
				l134.57,52.91c8.58-18.45,15.36-38.07,20.04-58.71C1059.44,606.13,1061.78,585.51,1062.01,565.16z"/><path fill="#fff" d="M767.26,854.03L777.6,709.8c-13.15,0.65-26.61-0.45-40.08-3.51c-13.47-3.06-26.09-7.87-37.67-14.13
				l-52.91,134.57c18.45,8.58,38.07,15.36,58.71,20.04C726.29,851.46,746.92,853.8,767.26,854.03z"/><path fill="#efafaf" d="M807.91,396c-91.8-20.83-183.1,36.71-203.93,128.51c-20.83,91.8,36.71,183.1,128.51,203.93
				c91.8,20.83,183.1-36.71,203.93-128.51C957.25,508.13,899.71,416.83,807.91,396z M737.52,706.29
				c-79.57-18.05-129.44-97.19-111.39-176.76c18.05-79.57,97.19-129.44,176.76-111.39c79.57,18.05,129.44,97.19,111.39,176.76
				C896.22,674.47,817.08,724.34,737.52,706.29z"/><path fill="#efafaf" d="M930.49,318.34c73.72,68.5,109.97,173.31,86.1,278.51C980.94,754,824.64,852.5,667.49,816.85
				c-35.13-7.97-67.31-21.98-95.73-40.67c36.4,33.83,81.94,58.81,133.89,70.6c157.15,35.65,313.46-62.84,349.11-220
				C1082.44,504.75,1029.23,383.25,930.49,318.34z"/><path fill="#ffbb29" d="M711.48,863.92c-3.09-0.59-6.19-1.25-9.28-1.95c-3.1-0.7-6.17-1.45-9.22-2.25
				c-2.8-0.71-5.58-1.49-8.35-2.29c-149.21-43.14-243.12-192.16-217.66-345.39l-6.22-2.48c-0.86-0.34-1.68-0.74-2.45-1.21
				c-27.6,159.28,70.29,314.66,225.91,358.49c2.19,0.62,4.39,1.22,6.61,1.78c3.09,0.81,6.21,1.57,9.35,2.28
				c3.14,0.71,6.28,1.38,9.42,1.98c0.92-1.17,1.6-2.57,1.95-4.1C711.91,867.11,711.88,865.46,711.48,863.92z M1080.87,622.83
				c-1.17-0.91-2.57-1.59-4.12-1.94c-1.65-0.38-3.32-0.35-4.87,0.05c-0.59,3.09-1.25,6.19-1.95,9.27c-0.7,3.1-1.45,6.17-2.25,9.22
				c-0.72,2.81-1.49,5.61-2.29,8.38C1022.24,797.02,873.22,890.93,720,865.46l-2.46,6.21c-0.34,0.86-0.74,1.69-1.22,2.46
				c159.3,27.62,314.65-70.29,358.49-225.91c0.62-2.19,1.22-4.39,1.78-6.61c0.81-3.1,1.57-6.22,2.28-9.37
				C1079.59,629.1,1080.25,625.96,1080.87,622.83z M1073.43,612.4l6.22,2.48c0.86,0.34,1.68,0.74,2.45,1.21
				c27.62-159.3-70.29-314.66-225.91-358.49c-2.19-0.62-4.39-1.22-6.6-1.78c-3.1-0.81-6.22-1.57-9.37-2.28
				c-3.14-0.71-6.28-1.38-9.43-1.98c-0.91,1.17-1.58,2.55-1.93,4.1c-0.38,1.65-0.35,3.32,0.05,4.87c3.09,0.59,6.19,1.25,9.28,1.95
				c3.1,0.7,6.17,1.45,9.22,2.25c2.81,0.72,5.6,1.49,8.36,2.29C1004.99,310.17,1098.89,459.18,1073.43,612.4z M465.59,476.22
				c-0.62,2.19-1.22,4.39-1.8,6.61c-0.8,3.09-1.55,6.21-2.26,9.35c-0.71,3.14-1.38,6.28-1.98,9.43c1.17,0.91,2.55,1.58,4.1,1.93
				c1.65,0.38,3.32,0.35,4.87-0.05c0.59-3.09,1.25-6.19,1.95-9.28c0.7-3.08,1.44-6.16,2.24-9.2c0.72-2.81,1.49-5.61,2.29-8.38
				c43.15-149.21,192.16-243.11,345.38-217.65l2.48-6.22c0.34-0.86,0.74-1.68,1.21-2.45C664.78,222.7,509.41,320.6,465.59,476.22z"/><path fill="#efafaf" d="M809.54,732.91l12.72-32.43c-25.7,9.7-54.37,12.35-83.16,6.15l-7.13,23.13c3.87,1.21,7.82,2.29,11.86,3.2
				C766.22,738.05,788.57,737.74,809.54,732.91z"/><path fill="#efafaf" d="M834.76,277.67c-65.44-14.85-130.72-6.41-187.22,19.81l-0.32,0.92c-0.06,0.17-0.11,0.34-0.16,0.51
				c-4.78,14.54,2.94,30.3,17.45,35.37l170.97,59.8v0l-9.64,31.27c34.03,13.78,60.82,39.44,76.55,70.89l27.17-69.26l116.77,40.84
				C1014.6,375.32,937.13,300.89,834.76,277.67z"/><path fill="#ffb24a" d="M943.83,347.84l-51.5,131.28l-89.1,227.12c-20.96,4.83-43.32,5.13-65.72,0.05
				c-4.03-0.92-7.98-1.99-11.86-3.2l87.07-282.35l33.05-107.2L943.83,347.84z"/><polygon fill="#f09d38" points="816.55 283.54 829.17 323.16 836.88 358.41 794.39 522.29 852.55 354.64 871.09 354.64 765.05 657.87 887.53 358.41 908.72 365.47 828.6 569.62 933.25 374.74 952.03 323.16"/><polygon fill="#f7e8d5" points="845.78 313.54 829.17 367.41 892.34 411.22 861.31 558.21 861.31 558.21 943.64 348.26"/><path fill="#ffb24a" d="M1184.27,202.64L748.26,50.14c-14.68-5.14-30.75,2.6-35.89,17.29l-71.46,204.3
				c-5.14,14.68,2.6,30.75,17.29,35.89l436.01,152.5c14.68,5.14,30.75-2.6,35.89-17.29l71.46-204.3
				C1206.7,223.85,1198.95,207.78,1184.27,202.64z"/><circle cx="1158.12" cy="225.03" r="9.07" fill="#d87b16"/><circle cx="748.91" cy="74.42" r="9.07" fill="#d87b16"/><circle cx="1086.75" cy="426.81" r="9.07" fill="#d87b16"/><circle cx="669.23" cy="283.54" r="9.07" fill="#d87b16"/><polygon fill="#f09d38" points="1160.95 354.64 1166.78 337.98 976.51 258.01"/><polygon fill="#f09d38" points="1195.22 256.66 1198.77 246.51 1099.34 215.96"/><polygon fill="#f09d38" points="1138.94 417.57 966.39 351.35 1133.33 433.6"/><path fill="#f09d38" d="M712.37,67.43l-1.04,2.98l213.77,71.6L719.98,55.9C716.63,58.95,713.97,62.85,712.37,67.43z"/><polygon fill="#f09d38" points="672.61 181.1 669.23 190.77 852.55 247.4"/><polygon fill="#f09d38" points="689.31 133.35 780.59 157.12 693.64 120.97"/><path fill="#f09d38" d="M646.68,255.25l-5.76,16.48c-0.13,0.38-0.25,0.76-0.37,1.14l124.5,50.3L646.68,255.25z"/><g><path fill="#f7e8d5" d="M832.98,238.44c-1.92-5.17-4.42-10.06-7.5-14.68c-3.08-4.62-6.34-9.04-9.79-13.26
				c-3.45-4.22-6.84-8.28-10.17-12.17c-3.33-3.89-6.19-7.69-8.58-11.4c-2.39-3.71-4.09-7.34-5.09-10.9
				c-1.01-3.56-0.92-7.14,0.24-10.75c1.52-4.35,3.19-7.55,5.01-9.59c1.81-2.04,3.76-3.35,5.82-3.92c2.07-0.57,4.23-0.6,6.49-0.1
				c2.26,0.5,4.55,1.16,6.85,1.97c4.86,1.7,8.07,4.35,9.63,7.96c1.56,3.61,1.12,8.91-1.33,15.9c-0.6,1.71-0.67,3.57-0.23,5.59
				c0.44,2.02,1.25,3.95,2.42,5.8c1.17,1.85,2.64,3.53,4.4,5.06c1.76,1.53,3.67,2.65,5.71,3.36c2.64,0.92,5.24,1.38,7.78,1.36
				c2.54-0.02,4.9-0.46,7.07-1.33c2.17-0.87,4.11-2.17,5.82-3.92c1.71-1.75,3.01-3.9,3.91-6.46c0.6-1.7,1.26-4.01,1.99-6.91
				c0.73-2.9,1.15-6.15,1.26-9.75c0.11-3.6-0.3-7.43-1.22-11.48c-0.93-4.06-2.74-8.04-5.44-11.95c-2.7-3.91-6.48-7.67-11.34-11.29
				c-4.86-3.61-11.21-6.79-19.06-9.54l-3.33-1.16c-8.61-3.01-16.51-4.93-23.68-5.77c-7.17-0.83-13.67-0.26-19.48,1.73
				c-5.82,1.99-10.95,5.6-15.42,10.83c-4.46,5.24-8.33,12.4-11.61,21.49l-0.72,2.05c-1.86,5.57-2.54,10.88-2.06,15.93
				c0.48,5.05,1.76,9.95,3.83,14.69c2.07,4.74,4.65,9.35,7.72,13.83c3.08,4.47,6.3,8.86,9.68,13.15c3.38,4.29,6.67,8.56,9.88,12.79
				c3.21,4.23,5.9,8.45,8.06,12.65c2.17,4.2,3.62,8.45,4.38,12.73c0.75,4.28,0.35,8.64-1.2,13.07c-1.25,3.58-2.74,6.39-4.45,8.42
				c-1.72,2.03-3.59,3.48-5.61,4.35c-2.03,0.87-4.22,1.2-6.59,1c-2.37-0.21-4.85-0.71-7.43-1.52c-5.12-1.79-8.63-4.33-10.54-7.63
				c-1.91-3.3-1.83-8.18,0.24-14.63c0.93-2.93,1.15-5.7,0.68-8.3c-0.48-2.61-1.43-4.95-2.85-7.03c-1.43-2.08-3.19-3.87-5.3-5.37
				c-2.11-1.5-4.27-2.64-6.48-3.42c-2.39-0.84-4.79-1.29-7.2-1.37c-2.41-0.08-4.7,0.3-6.85,1.12c-2.15,0.83-4.13,2.17-5.93,4.03
				c-1.8,1.86-3.22,4.28-4.26,7.27c-1.01,2.9-1.76,6.13-2.24,9.69c-0.48,3.56-0.54,7.3-0.19,11.2c0.36,3.91,1.28,7.89,2.78,11.95
				c1.5,4.06,3.78,8,6.85,11.8c3.07,3.8,7.08,7.38,12.03,10.74c4.95,3.36,11.05,6.3,18.3,8.84l1.28,0.45
				c3.78,1.23,7.89,2.28,12.32,3.16c4.43,0.88,8.96,1.32,13.61,1.31c4.64,0,9.26-0.56,13.87-1.68c4.6-1.12,8.97-3.06,13.09-5.83
				c4.13-2.77,7.95-6.45,11.48-11.06c3.52-4.6,6.51-10.4,8.96-17.4l0.36-1.02c2.07-6.46,2.96-12.55,2.67-18.3
				C836.01,249.07,834.91,243.62,832.98,238.44z"/><path fill="#f7e8d5" d="M1000.04,204.71c-2.28-5.11-5.28-9.53-9-13.27c-3.72-3.74-7.47-6.9-11.26-9.46
				c-3.79-2.57-7.35-4.58-10.67-6.03c-3.32-1.45-5.79-2.46-7.41-3.02l-4.35-1.52c-1.62-0.57-4.18-1.32-7.68-2.26
				c-3.5-0.94-7.56-1.59-12.16-1.96c-4.61-0.37-9.53-0.25-14.77,0.36c-5.24,0.61-10.38,2.18-15.43,4.72
				c-5.05,2.54-9.78,6.27-14.18,11.19c-4.4,4.92-8.03,11.47-10.9,19.66l-26.75,76.49c-2.95,8.44-4.26,16.02-3.93,22.74
				c0.33,6.72,1.66,12.69,4,17.91c2.34,5.22,5.35,9.74,9.04,13.57c3.69,3.83,7.45,7.03,11.28,9.62c3.83,2.59,7.41,4.6,10.73,6.05
				c3.32,1.45,5.79,2.46,7.41,3.02l4.35,1.52c1.62,0.57,4.18,1.32,7.68,2.26c3.5,0.94,7.53,1.58,12.1,1.94
				c4.56,0.35,9.48,0.18,14.75-0.51c5.27-0.69,10.4-2.37,15.39-5.02c4.99-2.65,9.69-6.51,14.1-11.58
				c4.4-5.06,8.08-11.82,11.03-20.26l26.75-76.49c2.86-8.19,4.13-15.57,3.8-22.14C1003.62,215.66,1002.32,209.82,1000.04,204.71z
				 M929.75,311.05c-1.36,3.07-3.05,5.58-5.08,7.55c-1.86,1.74-4.19,3.08-7,4.01c-2.82,0.93-6.27,0.68-10.36-0.75
				c-4.18-1.46-7.1-3.44-8.76-5.94c-1.66-2.5-2.68-5-3.04-7.52c-0.44-2.83-0.2-5.86,0.73-9.07l29.17-83.39
				c1.24-3.01,2.94-5.53,5.08-7.55c1.82-1.66,4.17-2.97,7.04-3.92c2.87-0.96,6.4-0.71,10.57,0.76c4.09,1.43,6.94,3.41,8.55,5.93
				c1.6,2.52,2.6,5,3,7.44c0.33,2.89,0.08,5.92-0.73,9.07L929.75,311.05z"/><path fill="#f7e8d5" d="M1110.27,350.65c-0.29-5.75-1.39-11.2-3.32-16.38c-1.92-5.17-4.42-10.06-7.5-14.68
				c-3.08-4.62-6.34-9.04-9.79-13.26c-3.45-4.22-6.84-8.28-10.17-12.17c-3.33-3.89-6.19-7.69-8.58-11.4
				c-2.39-3.71-4.09-7.34-5.09-10.9c-1.01-3.56-0.92-7.14,0.24-10.75c1.52-4.35,3.19-7.55,5.01-9.59c1.81-2.04,3.76-3.35,5.82-3.92
				c2.07-0.57,4.23-0.6,6.49-0.1c2.26,0.5,4.55,1.16,6.85,1.97c4.86,1.7,8.07,4.35,9.63,7.96c1.56,3.61,1.12,8.91-1.33,15.9
				c-0.6,1.71-0.67,3.57-0.23,5.59c0.44,2.02,1.25,3.95,2.42,5.8c1.17,1.85,2.64,3.53,4.4,5.06c1.76,1.53,3.67,2.65,5.71,3.36
				c2.64,0.92,5.24,1.38,7.78,1.36c2.54-0.02,4.9-0.46,7.07-1.33c2.17-0.87,4.11-2.17,5.82-3.92c1.71-1.75,3.01-3.9,3.91-6.46
				c0.6-1.7,1.26-4.01,1.99-6.91c0.73-2.9,1.15-6.15,1.26-9.75c0.11-3.6-0.3-7.43-1.22-11.48c-0.93-4.06-2.74-8.04-5.44-11.95
				c-2.7-3.91-6.48-7.67-11.34-11.29c-4.86-3.61-11.21-6.79-19.06-9.54l-3.33-1.16c-8.61-3.01-16.51-4.93-23.68-5.77
				c-7.17-0.83-13.67-0.26-19.48,1.73c-5.82,1.99-10.95,5.6-15.42,10.83c-4.46,5.24-8.33,12.4-11.61,21.49l-0.72,2.05
				c-1.86,5.57-2.54,10.88-2.06,15.93c0.48,5.05,1.76,9.95,3.83,14.69c2.07,4.74,4.65,9.35,7.72,13.83
				c3.08,4.47,6.3,8.86,9.68,13.15c3.38,4.29,6.67,8.56,9.88,12.79c3.21,4.23,5.9,8.45,8.06,12.65c2.17,4.2,3.62,8.45,4.38,12.73
				c0.75,4.28,0.35,8.64-1.2,13.07c-1.25,3.58-2.74,6.39-4.45,8.42c-1.72,2.03-3.59,3.48-5.61,4.35c-2.03,0.87-4.22,1.2-6.59,1
				c-2.37-0.21-4.85-0.71-7.43-1.52c-5.12-1.79-8.63-4.33-10.54-7.63c-1.91-3.3-1.83-8.18,0.24-14.63c0.93-2.93,1.15-5.7,0.68-8.3
				c-0.48-2.61-1.43-4.95-2.85-7.03s-3.19-3.87-5.3-5.37c-2.11-1.5-4.27-2.64-6.48-3.42c-2.39-0.84-4.79-1.29-7.2-1.37
				c-2.41-0.08-4.7,0.3-6.85,1.12s-4.13,2.17-5.93,4.03c-1.8,1.86-3.22,4.28-4.26,7.27c-1.01,2.9-1.76,6.13-2.24,9.69
				c-0.48,3.56-0.54,7.3-0.19,11.2c0.36,3.91,1.28,7.89,2.78,11.95c1.5,4.06,3.78,8,6.85,11.8c3.07,3.8,7.08,7.38,12.03,10.74
				c4.95,3.36,11.05,6.3,18.3,8.84l1.28,0.45c3.78,1.23,7.89,2.28,12.32,3.16c4.43,0.88,8.96,1.32,13.61,1.31
				c4.64,0,9.26-0.56,13.87-1.68c4.6-1.12,8.97-3.06,13.09-5.83c4.13-2.77,7.95-6.45,11.48-11.06c3.52-4.6,6.51-10.4,8.96-17.4
				l0.36-1.02C1109.67,362.49,1110.56,356.4,1110.27,350.65z"/></g><g><path fill="#fff" d="M784.34,157.29c-1.17,3.61-1.25,7.2-0.24,10.75c1,3.56,2.7,7.19,5.09,10.9c2.39,3.71,5.25,7.51,8.58,11.4
				c3.33,3.89,6.72,7.95,10.17,12.17c3.45,4.22,6.71,8.64,9.79,13.26c3.07,4.62,5.57,9.51,7.5,14.68
				c1.92,5.17,3.03,10.63,3.32,16.38c0.29,5.75-0.6,11.85-2.67,18.3l-0.36,1.02c-2.45,6.99-5.43,12.79-8.96,17.4
				c-3.53,4.61-7.35,8.29-11.48,11.06c-4.13,2.77-8.49,4.71-13.09,5.83c-4.6,1.12-9.23,1.68-13.87,1.68
				c-4.64,0-9.18-0.43-13.61-1.31c-4.43-0.88-8.54-1.93-12.32-3.16l-1.28-0.45c-7.25-2.54-13.35-5.48-18.3-8.84
				c-4.95-3.36-8.96-6.94-12.03-10.74c-3.07-3.8-5.36-7.74-6.85-11.8c-1.5-4.06-2.42-8.05-2.78-11.95c-0.36-3.9-0.3-7.64,0.19-11.2
				c0.48-3.56,1.23-6.8,2.24-9.69c1.04-2.98,2.46-5.41,4.26-7.27c1.8-1.86,3.78-3.2,5.93-4.03c2.15-0.83,4.44-1.2,6.85-1.12
				c2.41,0.08,4.81,0.53,7.2,1.37c2.22,0.78,4.38,1.91,6.48,3.42c2.11,1.5,3.87,3.29,5.3,5.37c1.43,2.08,2.38,4.42,2.85,7.03
				c0.47,2.61,0.25,5.38-0.68,8.3c-2.07,6.45-2.15,11.33-0.24,14.63c1.91,3.3,5.42,5.84,10.54,7.63c2.59,0.81,5.07,1.32,7.43,1.52
				c2.37,0.21,4.57-0.13,6.59-1c2.03-0.87,3.9-2.32,5.61-4.35c1.72-2.03,3.2-4.84,4.45-8.42c1.55-4.43,1.95-8.79,1.2-13.07
				c-0.75-4.28-2.21-8.53-4.38-12.73c-2.17-4.2-4.86-8.42-8.06-12.65c-3.21-4.23-6.5-8.49-9.88-12.79
				c-3.38-4.29-6.61-8.68-9.68-13.15c-3.08-4.47-5.65-9.08-7.72-13.83c-2.07-4.74-3.35-9.64-3.83-14.69
				c-0.48-5.05,0.2-10.36,2.06-15.93l0.72-2.05c3.27-9.09,7.14-16.26,11.61-21.49c4.46-5.23,9.6-8.84,15.42-10.83
				c5.81-1.99,12.31-2.56,19.48-1.73c7.17,0.84,15.06,2.76,23.68,5.77l3.33,1.16c7.84,2.74,14.2,5.92,19.06,9.54
				c4.86,3.62,8.64,7.38,11.34,11.29c2.7,3.91,4.51,7.89,5.44,11.95c0.93,4.06,1.33,7.88,1.22,11.48c-0.11,3.6-0.53,6.85-1.26,9.75
				c-0.73,2.9-1.39,5.21-1.99,6.91c-0.89,2.56-2.2,4.71-3.91,6.46c-1.71,1.75-3.65,3.05-5.82,3.92c-2.17,0.87-4.53,1.31-7.07,1.33
				c-2.54,0.02-5.14-0.43-7.78-1.36c-2.05-0.72-3.95-1.84-5.71-3.36c-1.76-1.53-3.23-3.21-4.4-5.06c-1.17-1.85-1.98-3.78-2.42-5.8
				c-0.44-2.02-0.36-3.88,0.23-5.59c2.45-6.99,2.89-12.29,1.33-15.9c-1.56-3.61-4.77-6.26-9.63-7.96c-2.3-0.81-4.59-1.46-6.85-1.97
				c-2.26-0.5-4.43-0.47-6.49,0.1c-2.07,0.57-4.01,1.88-5.82,3.92C787.53,149.75,785.86,152.94,784.34,157.29z"/><path fill="#fff" d="M874.46,195.13c2.86-8.19,6.49-14.74,10.9-19.66c4.4-4.92,9.13-8.65,14.18-11.19
				c5.05-2.54,10.2-4.11,15.43-4.72c5.24-0.61,10.16-0.73,14.77-0.36c4.61,0.37,8.66,1.02,12.16,1.96c3.5,0.94,6.06,1.69,7.68,2.26
				l4.35,1.52c1.62,0.57,4.09,1.57,7.41,3.02c3.32,1.45,6.88,3.46,10.67,6.03c3.79,2.57,7.54,5.72,11.26,9.46
				c3.72,3.74,6.71,8.16,9,13.27c2.28,5.1,3.59,10.94,3.92,17.52c0.33,6.58-0.93,13.96-3.8,22.14l-26.75,76.49
				c-2.95,8.44-6.63,15.19-11.03,20.26c-4.4,5.06-9.1,8.92-14.1,11.58c-5,2.65-10.13,4.33-15.39,5.02
				c-5.27,0.69-10.19,0.87-14.75,0.51c-4.57-0.35-8.6-1-12.1-1.94c-3.5-0.94-6.06-1.69-7.68-2.26l-4.35-1.52
				c-1.62-0.57-4.09-1.57-7.41-3.02c-3.32-1.45-6.9-3.47-10.73-6.05c-3.83-2.58-7.59-5.79-11.28-9.62
				c-3.69-3.82-6.7-8.35-9.04-13.57c-2.34-5.22-3.67-11.19-4-17.91c-0.33-6.72,0.98-14.3,3.93-22.74L874.46,195.13z M888.48,291.33
				c-0.93,3.22-1.18,6.24-0.73,9.07c0.36,2.52,1.38,5.03,3.04,7.52c1.66,2.5,4.58,4.47,8.76,5.94c4.09,1.43,7.54,1.68,10.36,0.75
				c2.81-0.93,5.15-2.27,7-4.01c2.03-1.97,3.72-4.49,5.08-7.55l29.17-83.39c0.82-3.16,1.06-6.18,0.73-9.07
				c-0.39-2.43-1.39-4.91-3-7.44c-1.61-2.52-4.45-4.5-8.55-5.93c-4.18-1.46-7.7-1.71-10.57-0.76c-2.87,0.96-5.22,2.27-7.04,3.92
				c-2.14,2.03-3.84,4.54-5.08,7.55L888.48,291.33z"/><path fill="#fff" d="M1058.31,253.12c-1.17,3.61-1.25,7.2-0.24,10.75c1,3.56,2.7,7.19,5.09,10.9c2.39,3.71,5.25,7.51,8.58,11.4
				c3.33,3.89,6.72,7.95,10.17,12.17c3.45,4.22,6.71,8.64,9.79,13.26c3.07,4.62,5.57,9.51,7.5,14.68
				c1.92,5.17,3.03,10.63,3.32,16.38c0.29,5.75-0.6,11.85-2.67,18.3l-0.36,1.02c-2.45,6.99-5.43,12.79-8.96,17.4
				c-3.53,4.61-7.35,8.29-11.48,11.06c-4.13,2.77-8.49,4.71-13.09,5.83c-4.6,1.12-9.22,1.68-13.87,1.68
				c-4.64,0-9.18-0.43-13.61-1.31c-4.43-0.88-8.54-1.93-12.32-3.16l-1.28-0.45c-7.25-2.54-13.35-5.48-18.3-8.84
				c-4.95-3.36-8.96-6.94-12.03-10.74c-3.07-3.8-5.36-7.74-6.85-11.8c-1.5-4.06-2.42-8.05-2.78-11.95c-0.36-3.9-0.3-7.64,0.19-11.2
				c0.48-3.56,1.23-6.8,2.24-9.69c1.04-2.98,2.46-5.4,4.26-7.27c1.8-1.86,3.78-3.2,5.93-4.03c2.15-0.83,4.44-1.2,6.85-1.12
				c2.41,0.08,4.81,0.53,7.2,1.37c2.22,0.78,4.38,1.91,6.48,3.42c2.11,1.5,3.87,3.29,5.3,5.37c1.43,2.08,2.38,4.42,2.85,7.03
				c0.47,2.61,0.25,5.38-0.68,8.3c-2.07,6.45-2.15,11.33-0.24,14.63c1.91,3.3,5.42,5.84,10.54,7.63c2.59,0.81,5.07,1.32,7.43,1.52
				c2.37,0.21,4.57-0.13,6.59-1c2.03-0.87,3.9-2.32,5.61-4.35c1.72-2.03,3.2-4.84,4.45-8.42c1.55-4.43,1.95-8.79,1.2-13.07
				c-0.75-4.28-2.21-8.53-4.38-12.73c-2.17-4.2-4.86-8.42-8.06-12.65c-3.21-4.23-6.5-8.49-9.88-12.79
				c-3.38-4.29-6.61-8.68-9.68-13.15c-3.08-4.47-5.65-9.08-7.72-13.83c-2.07-4.74-3.35-9.64-3.83-14.69
				c-0.48-5.05,0.2-10.36,2.06-15.93l0.72-2.05c3.27-9.09,7.14-16.26,11.61-21.49c4.46-5.23,9.6-8.84,15.42-10.83
				c5.81-1.99,12.31-2.56,19.48-1.73c7.17,0.84,15.06,2.76,23.68,5.77l3.33,1.16c7.84,2.74,14.2,5.92,19.06,9.54
				c4.86,3.62,8.64,7.38,11.34,11.29c2.7,3.91,4.51,7.89,5.44,11.95c0.93,4.06,1.33,7.88,1.22,11.48c-0.11,3.6-0.53,6.85-1.26,9.75
				c-0.73,2.9-1.39,5.21-1.99,6.91c-0.89,2.56-2.2,4.71-3.91,6.46c-1.71,1.75-3.65,3.05-5.82,3.92c-2.17,0.87-4.53,1.31-7.07,1.33
				c-2.54,0.02-5.14-0.43-7.78-1.36c-2.05-0.72-3.95-1.84-5.71-3.36c-1.76-1.53-3.23-3.21-4.4-5.06c-1.17-1.85-1.98-3.78-2.42-5.8
				c-0.44-2.02-0.36-3.88,0.23-5.59c2.45-6.99,2.89-12.29,1.33-15.9c-1.56-3.61-4.77-6.26-9.63-7.96c-2.3-0.81-4.59-1.46-6.85-1.97
				c-2.26-0.5-4.43-0.47-6.49,0.1c-2.07,0.57-4.01,1.88-5.82,3.92C1061.5,245.57,1059.84,248.77,1058.31,253.12z"/></g><g><path fill="#f7e8d5" d="M791.16,354.12l303.05,106c14.68,5.14,30.75-2.6,35.89-17.29l71.46-204.3c3.08-8.8,1.53-18.1-3.37-25.25
				L1098,417.21L791.16,354.12z"/></g><g><polygon fill="#ff9500" points="355.95 287.14 297.9 220.78 285.6 257.13"/></g><g><polygon fill="#ff9500" points="518.34 174.52 526.4 86.72 491.58 102.87"/></g><g><polygon fill="#ff9500" points="273.88 501.11 185.96 494.49 202.68 529.04"/></g><g><polygon fill="#ff9500" points="345.44 668.46 265.1 704.76 296.32 727.08"/></g><g><polygon fill="#ff9500" points="475.13 822.11 432.17 866.38 458.23 872.88"/></g><polygon fill="#ffbb29" points="229.17 289.85 217.45 300.13 202.41 296.03 212.69 307.75 208.59 322.79 220.31 312.51 235.35 316.62 225.07 304.89"/><polygon fill="#ffbb29" points="404.09 76.58 389.01 80.54 377.39 70.16 381.35 85.24 370.96 96.86 386.04 92.9 397.67 103.29 393.7 88.21"/><polygon fill="#ffbb29" points="676.72 55.21 661.65 59.18 650.02 48.79 653.98 63.87 643.59 75.49 658.67 71.53 670.3 81.92 666.34 66.84"/><polygon fill="#ffbb29" points="185.96 576.06 170.88 580.02 159.26 569.64 163.22 584.72 152.83 596.34 167.91 592.38 179.54 602.77 175.57 587.69"/><polygon fill="#ffbb29" points="407.1 756.13 392.03 760.09 380.4 749.7 384.36 764.78 373.97 776.41 389.05 772.45 400.68 782.83 396.72 767.76"/><g><path fill="#11425b" d="M1166.73,596.06c-0.05,1.62-0.18,3.3-0.38,5.02l0,0.06c-0.18,1.72-0.43,3.48-0.74,5.26
			c-4.62,27.45-21.78,61.39-21.78,61.39c2.67-0.9,8.99-1.13,16.73-1.04c-4.35,37.03-18.66,59.62-34.05,73.4
			c-7.95,7.12-17.74,10.16-27.27,9.68c-2.72-0.12-5.42-0.55-8.05-1.27c-3.53-0.91-6.93-2.35-10.09-4.27
			c-0.4-0.23-0.8-0.47-1.18-0.74c-3.89-2.52-7.36-5.8-10.18-9.74c-0.27-0.36-0.53-0.73-0.77-1.11c-1.32-1.96-2.48-4.12-3.43-6.41
			c-0.22-0.49-0.43-1.01-0.61-1.52c-14.29-38.16-25.96-78.64-35.19-121.28c2.69-0.66,5.41-1.29,8.14-1.92
			c1.94-0.46,3.89-0.9,5.87-1.33c0.04-0.02,0.09-0.02,0.13-0.02c2.36-0.53,4.73-1.05,7.11-1.52c2.4-0.52,4.8-0.99,7.22-1.47
			c4.51-0.89,9.06-1.74,13.66-2.54l0.64,2.25c1.34,4.72,4.79,8.46,9.08,10.15c0.45,0.21,0.91,0.36,1.38,0.47
			c0.39,0.12,0.83,0.21,1.24,0.31c0.09,0.01,0.19,0.03,0.28,0.05c0.21,0.03,0.41,0.06,0.62,0.09c0.34,0.04,0.69,0.09,1.05,0.09
			c0.35,0.02,0.71,0.03,1.08,0.02c0.69-0.03,1.37-0.09,2.08-0.22c8.58-1.58,13.74-10.14,11.41-18.32l-12.29-43.16
			c-2.09-7.33-9.31-12.34-16.8-10.97c-0.43,0.07-0.83,0.18-1.22,0.29c-0.07,0.02-0.17,0.04-0.24,0.07
			c-0.33,0.09-0.63,0.19-0.94,0.31c-0.31,0.1-0.61,0.23-0.9,0.37c-0.24,0.1-0.49,0.22-0.73,0.34c-0.26,0.14-0.51,0.26-0.75,0.42
			c-0.24,0.14-0.47,0.28-0.69,0.43c-0.24,0.16-0.45,0.31-0.67,0.47c0.01,0.01,0.03,0.01,0.04,0.02c-4.7,3.49-7.01,9.63-5.32,15.62
			l1.94,6.82c-12.09,6.95-24.64,12.73-37.61,17.47c-0.21-1.11-0.42-2.24-0.62-3.36c-1.34-7.12-2.6-14.29-3.82-21.53
			c9.79-10.74,14.03-26.1,9.77-41.1c-6.59-23.1-36.4-56.6-59.42-50.03c-0.46,0.13-0.9,0.28-1.34,0.44c-0.17,0.06-0.33,0.12-0.5,0.19
			c-0.31,0.12-0.61,0.24-0.9,0.39c-0.29,0.12-0.59,0.26-0.88,0.4c-20.21,9.89-26.73,50.57-20.52,72.42
			c4.29,15.03,16.04,25.88,30.08,29.82c3.44,7.64,6.77,15.31,9.94,23.03c-8.33,1.68-16.81,2.99-25.43,3.96
			c-1.26,0.14-2.54,0.28-3.8,0.4c-1.39,0.14-2.78,0.27-4.17,0.39c-1.35,0.12-2.71,0.23-4.08,0.33c-1.43,0.11-2.86,0.2-4.29,0.29
			l-1.77-6.23c-2.09-7.31-9.31-12.32-16.79-10.95c-0.43,0.07-0.83,0.18-1.22,0.29c-0.07,0.02-0.17,0.04-0.24,0.06
			c-0.33,0.09-0.63,0.19-0.94,0.31c-0.39,0.14-0.77,0.31-1.14,0.47c-0.16,0.08-0.33,0.16-0.49,0.24c-0.02,0.02-0.04,0.02-0.07,0.02
			c-0.47,0.26-0.93,0.54-1.37,0.83c-0.24,0.16-0.45,0.31-0.67,0.47c0.01,0.01,0.03,0.01,0.04,0.02c-4.7,3.49-7.01,9.63-5.32,15.62
			l12.29,43.16c1.34,4.68,4.79,8.44,9.08,10.15c0.47,0.19,0.96,0.36,1.45,0.49c0.43,0.13,0.86,0.23,1.31,0.31
			c0.02,0.02,0.06,0.02,0.07,0.02c0.23,0.05,0.45,0.08,0.69,0.1c0.36,0.04,0.71,0.07,1.06,0.09c0.35,0.02,0.71,0.03,1.06,0.02
			c0.67-0.02,1.37-0.11,2.06-0.22c8.58-1.58,13.74-10.14,11.41-18.34l-0.81-2.85c2.6-1.12,5.22-2.2,7.87-3.26
			c6.75-2.72,13.64-5.3,20.66-7.71c4.28-1.5,8.6-2.94,12.98-4.31c14.82,39.96,26.04,80.91,33.65,122.86
			c4.49,24.76-15.31,46.66-39.64,45.5c-0.04,0-0.07,0-0.11-0.01c-0.74-0.01-1.49-0.08-2.24-0.16c-0.78-0.08-1.57-0.18-2.36-0.32
			c-20.51-3.46-44.86-15.06-68.36-44.58c6.44-4.12,11.87-7.21,14.57-7.84c0,0-41.48-25.31-57.24-48.89c0,0-0.55,0.82-1.4,2.36
			c-0.23,0.44-0.51,0.93-0.78,1.48c-0.16,0.3-0.33,0.65-0.5,0.99c-0.43,0.89-0.9,1.91-1.38,3.05c-0.17,0.4-0.34,0.79-0.51,1.21
			c-0.38,0.91-0.75,1.89-1.12,2.93c-5.29,14.63-10.03,41.46,7.28,73.7c0,0,5.63-4.24,13.36-9.83
			c14.87,15.8,63.07,63.22,116.52,74.51c15.87,3.35,53.42,24.06,71.3,34.26l0,0.02c0.8,0.45,1.54,0.87,2.24,1.28
			c0.65,0.37,1.25,0.72,1.82,1.05c0.34,0.21,0.68,0.38,0.99,0.58c1.08,0.61,2,1.14,2.72,1.58c1.31,0.77,2.03,1.19,2.03,1.19
			s32.22-61.72,47.89-76.69c2.46-2.36,4.83-4.83,7.12-7.39c0.89-1,1.77-2,2.63-3.04c0.64-0.75,1.27-1.52,1.89-2.28
			c0.52-0.63,1.03-1.28,1.55-1.94c0.5-0.63,1.01-1.3,1.51-1.95c0.5-0.67,0.99-1.32,1.47-1.99c1.97-2.66,3.84-5.39,5.64-8.15
			c0.46-0.69,0.9-1.39,1.34-2.08c4.86-7.68,9.15-15.67,12.93-23.66c0.35-0.72,0.69-1.44,1.02-2.18
			c7.8-16.85,13.32-33.54,17.07-47.04c0.46-1.62,0.89-3.18,1.28-4.7c0.05-0.13,0.08-0.26,0.12-0.39c0.24-0.96,0.49-1.9,0.72-2.82
			c1.19-4.66,2.14-8.77,2.85-12.13c0.22-1.05,0.41-2.03,0.6-2.93c0.76,0.05,1.51,0.11,2.24,0.16c0.52,0.04,1.03,0.07,1.51,0.11
			c2,0.15,3.81,0.29,5.41,0.42c1.36,0.12,2.56,0.21,3.56,0.28c0.34,0.04,0.63,0.05,0.93,0.08c1.7,0.16,2.67,0.24,2.67,0.24
			C1207.08,614.06,1166.73,596.06,1166.73,596.06z M994.93,547.98c-3.21,0.92-6.44,1.15-9.54,0.79
			c-9.81-1.06-18.49-7.91-21.37-17.95c-3.67-12.91-1.91-45.23,10.27-50.64c0.38-0.18,0.79-0.33,1.19-0.44
			c13.26-3.78,32.87,24.06,36.66,37.36C1015.93,530.37,1008.19,544.2,994.93,547.98z"/><path fill="#0a3749" d="M1074.58,548.29l12.3,43.16c1.7,5.97-0.59,12.12-5.28,15.64c2.39,0.96,5.03,1.29,7.71,0.8
				c8.59-1.58,13.75-10.14,11.42-18.33l-12.3-43.16c-2.09-7.32-9.3-12.33-16.78-10.95c-2.33,0.43-4.39,1.38-6.14,2.69
				C1069.79,539.85,1073.24,543.59,1074.58,548.29z"/><path fill="#0a3749" d="M985.39,548.77c-12.5,2.3-24.96-5.23-28.5-17.69c-3.78-13.32-1.8-47.3,11.47-51.08
				c1.88-0.53,3.87-0.44,5.94,0.18c-12.18,5.41-13.94,37.73-10.27,50.64C966.9,540.87,975.58,547.72,985.39,548.77z"/><path fill="#0a3749" d="M1099.33,749.8c-14.64-0.7-28.66-9.7-34.4-25.04c-14.28-38.15-25.94-78.63-35.19-121.27
				c9.3-2.27,18.8-4.35,28.48-6.26l-0.19-0.66c-14.47,2.54-28.49,5.48-42.13,8.81c9.24,42.64,20.91,83.12,35.19,121.27
				C1058.64,746.86,1080.55,756.07,1099.33,749.8z"/><path fill="#0a3749" d="M940.43,630.08l0.82,2.86c1.7,5.97-0.59,12.12-5.28,15.64c2.39,0.96,5.03,1.29,7.71,0.8
				c8.59-1.58,13.75-10.14,11.42-18.33l-0.82-2.86c9.27-3.96,18.8-7.6,28.55-10.98C982.53,616.4,953.77,624.38,940.43,630.08z"/><path fill="#0a3749" d="M1196.46,668.58c8.25,0.61,14.1,1.13,14.1,1.13c-3.48-55.65-43.83-73.66-43.83-73.66
				c-0.11,3.28-0.51,6.76-1.12,10.35C1177.4,616.21,1193.52,635.46,1196.46,668.58z"/><path fill="#0a3749" d="M1180.39,670.31c-4.32,21.35-20.3,86.92-59.73,124.65c-12.27,11.74-34.71,52.17-43.85,69.12
				c6.02,3.43,9.81,5.68,9.81,5.68s32.22-61.71,47.88-76.7c37.78-36.16,54.03-97.85,59.12-121.73
				C1190.72,671.1,1186.01,670.71,1180.39,670.31z"/><path fill="#0a3749" d="M1016.03,513.97c4.27,14.99,0.04,30.36-9.76,41.1c1.4,8.37,2.87,16.67,4.43,24.88
				c4.46-1.63,8.86-3.39,13.22-5.26c-1.33-7.12-2.61-14.28-3.81-21.51c9.79-10.74,14.03-26.11,9.76-41.1
				c-6.58-23.1-36.39-56.59-59.42-50.03c-1.25,0.36-2.45,0.85-3.62,1.42C987.7,466.79,1010.39,494.18,1016.03,513.97z"/><path fill="#0a3749" d="M917.45,730.23c-2.7,0.64-8.13,3.71-14.58,7.83c23.5,29.54,47.86,41.14,68.36,44.59
				c6.53,1.1,12.84,0.51,18.56-1.39c-1.56-0.07-3.13-0.24-4.72-0.5c-20.49-3.45-44.86-15.05-68.36-44.59
				c6.45-4.12,11.88-7.19,14.58-7.83c0,0-41.48-25.31-57.25-48.9c0,0-2.94,4.33-5.71,12.01
				C886.97,711.63,917.45,730.23,917.45,730.23z"/><path fill="#0a3749" d="M928.95,589.78l1.77,6.22c10.37-0.63,20.55-1.75,30.53-3.35c-5.51,0.63-11.07,1.11-16.69,1.45l-1.77-6.22
				c-2.09-7.32-9.3-12.33-16.78-10.95c-2.33,0.43-4.39,1.38-6.14,2.69C924.15,581.35,927.61,585.08,928.95,589.78z"/></g></svg>