<svg xmlns="http://www.w3.org/2000/svg" enable-background="new 0 0 1364 960" viewBox="0 0 1364 960"><path fill="#f1edff" d="M1118.72,245.52c-39.52-35.34-98.12-37.89-145.27-62.14C933.87,163.03,783.89,54.81,666.64,74.03
			c-224.92,36.87-39.67,286.25-187.63,338.32c-154.36,54.33-140.54,296.68,31.04,335.45c44.42,9.1,91.22,2.33,135.11,13.75
			c95.54,35.63,136.95,76.65,247.91,67.55c104.29-8.55,225.88-119.7,147.86-267.19C986.31,458.67,1221.26,347.87,1118.72,245.52z"/><path fill="#f1edff" d="M1134.5,215.68c-6.87-4.46-14.08-7.5-21.93-9.72c-8.18-2.31-16.23-2.7-24.7-2.64c-1.1,0.01-1.1,1.68,0,1.71
			c14.06,0.33,27.95,7.2,38.97,15.64c11.17,8.56,19.47,19.94,25.24,32.69c12.47,27.58,9.82,60.05-0.67,87.75
			c-3.04,8.02-6.83,15.78-11.02,23.26c-4.1,7.31-11.7,16.06-9.87,24.91c0.76,3.66,4.64,4.96,7.87,4.47
			c8.4-1.28,13.87-12.66,17.64-19.33c4.38-7.74,8.18-15.77,11.37-24.07c6.19-16.09,9.98-33.47,9.75-50.75
			C1176.69,266.53,1162.83,234.06,1134.5,215.68z"/><path fill="#f1edff" d="M416.27,718.97c-5.27-3.76-10.86-6.9-15.88-11.03c-5.13-4.22-9.93-8.83-14.35-13.78
			c-8.95-10.03-15.99-21.29-21.88-33.35c-6.51-13.34-10.85-28.52-12.16-43.32c-1.4-15.78,0.93-31.77,5.26-46.95
			c0.19-0.68-0.87-1.17-1.17-0.49c-13.1,29.16-14.74,64.99-4.29,95.21c4.89,14.13,12.86,27.23,22.55,38.58
			c4.62,5.41,9.67,10.45,15.11,15.03c5.8,4.89,12.16,10.12,19.06,13.37C417.5,736.47,424.34,724.72,416.27,718.97z"/><path fill="#f1edff" d="M589.29,89.44c6.13-3.49,11.46-8.68,17.5-12.45c5.59-3.48,11.37-6.67,17.37-9.39
			c12.3-5.57,25.35-9.44,38.73-11.26c24.87-3.38,51.16,0.76,74.06,10.84c2.14,0.94,3.61-2.23,1.53-3.29
			c-24.01-12.18-50.18-17.55-77.04-16.13c-14.64,0.78-29.26,3.88-43.01,8.96c-6.78,2.51-13.31,5.54-19.62,9.05
			c-6.55,3.65-14.07,7.71-19.11,13.34C573.95,85.56,582.77,93.15,589.29,89.44z"/><path fill="#f1edff" d="M991.92,810.61c-2.92,3.06-6.81,5.62-10.08,8.35c-3.28,2.74-6.63,5.49-10.24,7.79
			c-7.31,4.66-15.34,8.28-23.6,10.87c-7.8,2.44-16.06,4.25-24.21,4.98c-4.1,0.37-8.22,0.68-12.33,0.72
			c-4.5,0.04-9.3-1.01-13.73-0.51c-8.81,0.99-10.77,12.32-2.1,15.51c4.52,1.66,10.37,1.37,15.14,1.31
			c5.08-0.06,10.13-0.51,15.13-1.44c9.42-1.74,18.33-4.91,26.86-9.28c8.29-4.25,15.93-9.61,22.91-15.78
			c3.43-3.03,6.84-6.06,9.82-9.55c3.23-3.78,5.15-7.79,7.77-11.94C993.78,810.83,992.59,809.91,991.92,810.61z"/><path fill="#8f82db" d="M971.51,742.55c-3.3-0.54-6.59-1.24-9.79-2.07c-0.78-0.2-1.25-1-1.05-1.79c0.2-0.78,1.01-1.25,1.79-1.05
			c4,1.04,8.14,1.86,12.28,2.44c0.81,0.11,1.36,0.85,1.25,1.65c-0.11,0.8-0.85,1.36-1.65,1.25
			C973.39,742.84,972.45,742.7,971.51,742.55z M986.94,744c-0.71-0.12-1.24-0.74-1.22-1.48c0.02-0.81,0.69-1.45,1.5-1.43
			c4.14,0.1,8.36-0.02,12.53-0.37c0.81-0.07,1.51,0.53,1.58,1.34c0.07,0.81-0.53,1.52-1.34,1.58c-4.27,0.36-8.6,0.49-12.85,0.38
			C987.08,744.02,987.01,744.01,986.94,744z M1012.2,741.9c-0.59-0.1-1.08-0.55-1.2-1.17c-0.15-0.79,0.37-1.56,1.16-1.72
			c4.08-0.78,8.17-1.79,12.17-3c0.78-0.24,1.59,0.2,1.83,0.98c0.23,0.77-0.2,1.59-0.98,1.83c-4.1,1.24-8.29,2.27-12.47,3.08
			C1012.54,741.92,1012.37,741.92,1012.2,741.9z M1036.47,734.57c-0.48-0.08-0.91-0.4-1.11-0.88c-0.31-0.75,0.04-1.6,0.79-1.92
			c3.84-1.61,7.65-3.43,11.31-5.42c0.71-0.39,1.6-0.12,1.99,0.59c0.39,0.71,0.12,1.6-0.59,1.99c-3.75,2.04-7.65,3.91-11.58,5.55
			C1037.01,734.58,1036.73,734.61,1036.47,734.57z M1058.74,722.46c-0.38-0.06-0.74-0.28-0.97-0.62c-0.46-0.67-0.29-1.58,0.38-2.04
			c3.24-2.22,6.41-4.62,9.42-7.13l0.56-0.47c0.62-0.52,1.54-0.44,2.06,0.18c0.52,0.62,0.44,1.54-0.18,2.06l-0.57,0.48
			c-3.08,2.58-6.33,5.03-9.65,7.3C1059.48,722.44,1059.1,722.52,1058.74,722.46z M1078.1,706.09c-0.28-0.05-0.56-0.18-0.78-0.39
			c-0.58-0.56-0.6-1.49-0.03-2.07c2.88-2.97,5.67-6.14,8.29-9.43c0.51-0.63,1.43-0.73,2.06-0.23c0.63,0.51,0.73,1.43,0.23,2.06
			c-2.69,3.36-5.54,6.6-8.48,9.63C1079.04,706.03,1078.56,706.17,1078.1,706.09z M1093.96,686.3c-0.2-0.03-0.39-0.11-0.57-0.22
			c-0.67-0.45-0.86-1.36-0.41-2.03c2.29-3.46,4.47-7.09,6.47-10.77c0.39-0.71,1.28-0.98,1.99-0.59c0.71,0.39,0.97,1.28,0.59,1.99
			c-2.04,3.76-4.26,7.46-6.6,10.99C1095.09,686.16,1094.51,686.39,1093.96,686.3z M1106.08,664.02c-0.12-0.02-0.24-0.05-0.35-0.1
			c-0.74-0.32-1.08-1.19-0.75-1.93c1.67-3.83,3.2-7.77,4.55-11.72c0.26-0.77,1.1-1.18,1.86-0.92c0.77,0.26,1.18,1.09,0.92,1.86
			c-1.37,4.03-2.93,8.05-4.64,11.95C1107.39,663.79,1106.73,664.13,1106.08,664.02z M1114.25,640.01c-0.04-0.01-0.08-0.01-0.11-0.02
			c-0.79-0.19-1.26-0.99-1.07-1.77c0.92-3.73,1.71-7.52,2.33-11.28l0.17-1.04c0.13-0.8,0.88-1.34,1.68-1.22c0,0,0.01,0,0.01,0
			c0.79,0.13,1.33,0.88,1.21,1.67l-0.17,1.06c-0.63,3.83-1.43,7.71-2.37,11.51C1115.72,639.66,1114.99,640.13,1114.25,640.01z
			 M433.69,518.59c-0.01,0-0.02,0-0.03-0.01c-1.2-0.2-2.4-0.42-3.61-0.66c-0.79-0.16-1.31-0.93-1.15-1.73
			c0.16-0.79,0.94-1.32,1.73-1.15c1.17,0.24,2.34,0.45,3.51,0.64c2.92,0.51,5.9,0.84,8.88,1.07c0.81,0.06,1.41,0.77,1.35,1.57
			c-0.06,0.81-0.77,1.41-1.57,1.35C439.74,519.45,436.68,519.08,433.69,518.59z M417.85,514.67c-0.08-0.01-0.15-0.03-0.23-0.06
			c-4.01-1.34-8.03-2.95-11.94-4.79c-0.73-0.35-1.05-1.22-0.7-1.95c0.34-0.73,1.22-1.04,1.95-0.7c3.8,1.79,7.71,3.36,11.62,4.66
			c0.77,0.26,1.18,1.09,0.93,1.85C419.24,514.38,418.54,514.78,417.85,514.67z M455.32,519.92c-0.67-0.11-1.2-0.68-1.22-1.39
			c-0.03-0.81,0.6-1.49,1.41-1.52c4.07-0.15,8.27-0.53,12.48-1.12c0.8-0.12,1.54,0.45,1.66,1.25c0.11,0.8-0.45,1.54-1.25,1.66
			c-4.32,0.61-8.62,0.99-12.78,1.15C455.52,519.94,455.42,519.93,455.32,519.92z M394.91,503.91c-0.18-0.03-0.36-0.09-0.53-0.2
			c-3.56-2.18-7.13-4.61-10.6-7.24c-0.65-0.49-0.77-1.41-0.29-2.05c0.49-0.65,1.41-0.78,2.05-0.29c3.4,2.56,6.88,4.94,10.36,7.07
			c0.69,0.42,0.91,1.32,0.48,2.01C396.07,503.75,395.48,504,394.91,503.91z M480.43,516.44c-0.57-0.09-1.05-0.52-1.19-1.11
			c-0.18-0.79,0.3-1.58,1.09-1.76c3.95-0.93,8.04-2.05,12.13-3.34c0.77-0.24,1.59,0.18,1.84,0.96c0.24,0.77-0.18,1.59-0.96,1.84
			c-4.16,1.31-8.32,2.46-12.34,3.4C480.8,516.46,480.61,516.47,480.43,516.44z M1118.18,614.95c-0.74-0.12-1.27-0.78-1.22-1.54
			c0.12-1.77,0.21-3.56,0.26-5.32c0.07-2.41,0.06-4.84-0.02-7.22c-0.03-0.81,0.6-1.49,1.41-1.52c0.81-0.03,1.49,0.6,1.52,1.41
			c0.09,2.44,0.09,4.94,0.02,7.41c-0.05,1.79-0.14,3.62-0.26,5.43c-0.05,0.81-0.75,1.42-1.56,1.36
			C1118.28,614.96,1118.23,614.95,1118.18,614.95z M374.63,488.68c-0.27-0.04-0.52-0.16-0.74-0.35c-3.09-2.77-6.19-5.77-9.2-8.9
			c-0.56-0.58-0.54-1.51,0.04-2.07c0.58-0.56,1.51-0.54,2.07,0.04c2.96,3.08,6.01,6.03,9.04,8.75c0.6,0.54,0.65,1.47,0.11,2.07
			C375.62,488.6,375.11,488.75,374.63,488.68z M504.64,508.85c-0.49-0.08-0.93-0.42-1.13-0.92c-0.29-0.76,0.08-1.6,0.84-1.9
			c3.78-1.46,7.69-3.1,11.64-4.88c0.74-0.33,1.61,0,1.94,0.74c0.33,0.74,0,1.61-0.74,1.94c-4,1.79-7.96,3.46-11.79,4.94
			C505.15,508.87,504.89,508.89,504.64,508.85z M1072.28,602.24c-1.54-0.25-3.09-0.63-4.6-1.11c-0.77-0.24-1.2-1.07-0.96-1.84
			c0.24-0.77,1.07-1.2,1.84-0.96c3.97,1.25,8.07,1.67,11.92,1.2c0.8-0.09,1.53,0.48,1.63,1.28c0.1,0.8-0.48,1.53-1.28,1.63
			C1078.04,602.78,1075.17,602.71,1072.28,602.24z M1056.75,595.2c-0.24-0.04-0.47-0.14-0.68-0.3c-3.52-2.83-6.46-6.32-8.5-10.08
			c-0.39-0.71-0.12-1.6,0.59-1.99c0.71-0.39,1.6-0.12,1.99,0.59c1.86,3.43,4.54,6.61,7.77,9.2c0.63,0.51,0.73,1.43,0.22,2.06
			C1057.79,595.1,1057.26,595.29,1056.75,595.2z M1092.22,598.06c-0.4-0.07-0.77-0.3-1-0.66c-0.43-0.69-0.23-1.59,0.46-2.02
			c3.33-2.1,6.38-4.82,9.07-8.11c0.51-0.62,1.44-0.72,2.06-0.2c0.63,0.51,0.72,1.44,0.2,2.06c-2.89,3.53-6.18,6.46-9.78,8.73
			C1092.92,598.05,1092.56,598.11,1092.22,598.06z M357.03,470.4c-0.33-0.06-0.65-0.23-0.89-0.51c-2.82-3.38-5.45-6.8-7.8-10.17
			c-0.46-0.66-0.3-1.58,0.36-2.04c0.66-0.46,1.58-0.3,2.04,0.36c2.31,3.3,4.89,6.66,7.65,9.97c0.52,0.62,0.44,1.55-0.18,2.06
			C357.87,470.37,357.44,470.47,357.03,470.4z M527.82,498.49c-0.45-0.07-0.85-0.35-1.07-0.79c-0.36-0.72-0.07-1.6,0.65-1.97
			c3.6-1.81,7.38-3.78,11.22-5.88c0.71-0.39,1.6-0.13,1.99,0.59c0.39,0.71,0.12,1.6-0.59,1.99c-3.87,2.11-7.67,4.1-11.31,5.92
			C528.43,498.49,528.12,498.53,527.82,498.49z M1117.22,589.62c-0.61-0.1-1.11-0.58-1.21-1.22c-0.68-4.26-1.63-8.35-2.83-12.15
			c-0.24-0.77,0.18-1.59,0.96-1.84c0.77-0.24,1.59,0.18,1.84,0.96c1.24,3.94,2.23,8.17,2.92,12.57c0.13,0.8-0.42,1.55-1.22,1.68
			C1117.53,589.65,1117.37,589.65,1117.22,589.62z M1045.32,573.43c-0.68-0.11-1.21-0.7-1.22-1.41c-0.04-1.7,0.08-3.42,0.36-5.11
			c0.06-0.33,0.12-0.67,0.18-1.01c0.48-2.38,1.26-4.68,2.3-6.83c0.35-0.73,1.23-1.03,1.96-0.68c0.73,0.35,1.03,1.23,0.68,1.96
			c-0.94,1.93-1.63,3.99-2.06,6.13c-0.06,0.3-0.12,0.6-0.17,0.9c-0.25,1.52-0.36,3.05-0.32,4.57c0.02,0.81-0.62,1.48-1.43,1.5
			C1045.5,573.45,1045.41,573.44,1045.32,573.43z M1108.32,578.88c-0.13-0.02-0.25-0.06-0.38-0.12c-0.73-0.34-1.05-1.21-0.71-1.94
			c1.69-3.66,3.02-7.6,3.96-11.72c0.18-0.79,0.95-1.29,1.75-1.1c0.79,0.18,1.28,0.96,1.1,1.75c-0.98,4.32-2.38,8.46-4.16,12.3
			C1109.6,578.66,1108.95,578.98,1108.32,578.88z M550.16,486.36c-0.42-0.07-0.8-0.32-1.03-0.71c-0.41-0.7-0.17-1.6,0.53-2
			c3.48-2.02,7.05-4.13,10.9-6.46c0.69-0.42,1.59-0.2,2.01,0.5c0.42,0.69,0.2,1.59-0.5,2.01c-3.87,2.34-7.45,4.46-10.95,6.49
			C550.83,486.36,550.49,486.41,550.16,486.36z M342.56,449.58c-0.43-0.07-0.82-0.33-1.04-0.73c-2.12-3.82-3.99-7.72-5.57-11.6
			c-0.31-0.75,0.06-1.6,0.8-1.91c0.75-0.3,1.6,0.06,1.91,0.81c1.53,3.77,3.36,7.56,5.42,11.28c0.39,0.71,0.14,1.6-0.57,1.99
			C343.21,449.58,342.87,449.63,342.56,449.58z M1109.43,565.58c-0.43-0.07-0.82-0.33-1.05-0.74c-2.06-3.76-4.46-7.12-7.16-9.98
			c-0.56-0.59-0.53-1.52,0.06-2.07c0.59-0.56,1.52-0.53,2.07,0.06c2.87,3.04,5.42,6.6,7.6,10.59c0.39,0.71,0.13,1.6-0.58,1.99
			C1110.07,565.58,1109.74,565.63,1109.43,565.58z M571.93,473.24c-0.4-0.07-0.78-0.3-1.01-0.67c-0.43-0.69-0.21-1.59,0.47-2.02
			c3.59-2.23,7.15-4.45,10.67-6.65l0.11-0.07c0.69-0.43,1.59-0.22,2.02,0.46c0.43,0.69,0.22,1.59-0.46,2.02l-0.11,0.07
			c-3.52,2.2-7.08,4.43-10.67,6.66C572.62,473.24,572.26,473.3,571.93,473.24z M1055.99,551.41c-0.35-0.06-0.68-0.24-0.92-0.54
			c-0.5-0.64-0.39-1.56,0.25-2.06c3.41-2.67,7.37-4.66,11.77-5.93c0.78-0.23,1.59,0.22,1.81,1c0.22,0.78-0.22,1.59-1,1.81
			c-4.03,1.17-7.66,2.99-10.78,5.43C1056.79,551.38,1056.38,551.48,1055.99,551.41z M333.07,426.1c-0.55-0.09-1.03-0.5-1.18-1.08
			c-0.56-2.16-1.04-4.37-1.44-6.56c-0.36-1.99-0.7-4.03-0.99-6.05c-0.12-0.8,0.44-1.55,1.24-1.66c0.8-0.12,1.54,0.44,1.66,1.24
			c0.29,1.99,0.62,4,0.98,5.95c0.39,2.12,0.86,4.26,1.4,6.35c0.2,0.78-0.27,1.58-1.05,1.79
			C333.47,426.13,333.26,426.13,333.07,426.1z M1113.98,554.29c-0.71-0.12-1.25-0.75-1.22-1.49c0.13-4.21-0.17-8.37-0.87-12.34
			c-0.14-0.8,0.39-1.56,1.19-1.7c0.8-0.14,1.56,0.39,1.7,1.19c0.74,4.18,1.05,8.53,0.92,12.94c-0.02,0.81-0.7,1.44-1.51,1.42
			C1114.11,554.31,1114.05,554.3,1113.98,554.29z M1092.02,547.61c-0.14-0.02-0.28-0.07-0.41-0.13c-3.51-1.74-7.49-2.79-11.65-3.08
			c-0.8-0.05-1.42-0.76-1.36-1.56c0.06-0.81,0.76-1.42,1.56-1.36c4.54,0.31,8.89,1.47,12.75,3.37c0.73,0.36,1.02,1.24,0.66,1.96
			C1093.28,547.41,1092.64,547.71,1092.02,547.61z M593.49,459.79c-0.4-0.07-0.78-0.3-1.01-0.67c-0.43-0.69-0.21-1.59,0.47-2.02
			c4.18-2.59,7.63-4.7,10.86-6.64c0.69-0.42,1.59-0.19,2.01,0.5c0.42,0.69,0.19,1.59-0.5,2.01c-3.22,1.93-6.66,4.04-10.83,6.62
			C594.19,459.78,593.83,459.84,593.49,459.79z M329.29,401.02c-0.65-0.11-1.17-0.65-1.22-1.34c-0.3-4.22-0.46-8.52-0.47-12.79
			c0-0.81,0.65-1.47,1.46-1.47c0.81,0,1.47,0.65,1.47,1.46c0.01,4.2,0.16,8.43,0.46,12.58c0.06,0.81-0.55,1.51-1.36,1.57
			C329.51,401.04,329.4,401.04,329.29,401.02z M1109.82,529.4c-0.51-0.08-0.96-0.43-1.14-0.95c-1.36-3.8-3.06-7.63-5.06-11.4
			c-0.38-0.71-0.11-1.6,0.61-1.98c0.71-0.38,1.6-0.11,1.98,0.6c2.07,3.89,3.83,7.86,5.23,11.79c0.27,0.76-0.12,1.6-0.89,1.87
			C1110.31,529.42,1110.06,529.44,1109.82,529.4z M615.31,446.74c-0.42-0.07-0.81-0.32-1.04-0.72c-0.4-0.7-0.15-1.6,0.55-2
			c4.03-2.28,7.71-4.26,11.24-6.07c0.72-0.37,1.6-0.08,1.97,0.64c0.37,0.72,0.08,1.6-0.64,1.97c-3.49,1.78-7.13,3.75-11.13,6.01
			C615.96,446.74,615.63,446.79,615.31,446.74z M637.99,435.3c-0.48-0.08-0.91-0.39-1.11-0.87c-0.32-0.74,0.03-1.6,0.77-1.92
			c4.24-1.8,8.3-3.29,12.07-4.42c0.78-0.23,1.59,0.21,1.82,0.98c0.23,0.78-0.21,1.59-0.98,1.82c-3.67,1.1-7.62,2.55-11.76,4.31
			C638.53,435.31,638.25,435.34,637.99,435.3z M1098.03,506.99c-0.38-0.06-0.73-0.27-0.96-0.61c-2.28-3.27-4.87-6.61-7.69-9.93
			c-0.52-0.62-0.45-1.54,0.17-2.07c0.62-0.52,1.54-0.45,2.07,0.17c2.88,3.38,5.52,6.8,7.86,10.15c0.46,0.66,0.3,1.58-0.36,2.04
			C1098.78,506.98,1098.39,507.05,1098.03,506.99z M329.24,375.64c-0.74-0.12-1.27-0.78-1.22-1.54c0.28-4.21,0.71-8.49,1.28-12.73
			c0.11-0.8,0.85-1.36,1.65-1.26c0.8,0.06,1.37,0.84,1.26,1.65c-0.56,4.17-0.98,8.39-1.26,12.54c-0.05,0.81-0.75,1.42-1.56,1.36
			C329.34,375.66,329.29,375.65,329.24,375.64z M662.19,427.72c-0.56-0.09-1.04-0.5-1.18-1.09c-0.2-0.78,0.28-1.58,1.06-1.78
			c4.11-1.04,8.22-2.06,12.33-3.07c0.79-0.19,1.58,0.29,1.77,1.08c0.19,0.79-0.29,1.58-1.08,1.77c-4.11,1-8.21,2.03-12.31,3.06
			C662.58,427.75,662.38,427.75,662.19,427.72z M1081.67,487.6c-0.3-0.05-0.58-0.19-0.8-0.42c-0.95-0.97-1.91-1.92-2.88-2.87
			c-2.03-1.98-4.12-3.96-6.22-5.89c-0.6-0.55-0.64-1.47-0.09-2.07c0.55-0.6,1.47-0.64,2.07-0.09c2.13,1.95,4.24,3.95,6.29,5.95
			c0.98,0.96,1.95,1.92,2.92,2.91c0.57,0.58,0.56,1.5-0.02,2.07C1082.59,487.54,1082.11,487.67,1081.67,487.6z M686.86,421.7
			c-0.57-0.09-1.05-0.52-1.19-1.11c-0.18-0.79,0.3-1.58,1.09-1.76c4.17-0.98,8.34-1.93,12.39-2.84c0.79-0.18,1.57,0.32,1.75,1.11
			c0.18,0.79-0.32,1.57-1.11,1.75c-4.05,0.91-8.2,1.86-12.36,2.83C687.24,421.72,687.04,421.73,686.86,421.7z M711.64,416.16
			c-0.58-0.1-1.07-0.53-1.2-1.14c-0.17-0.79,0.34-1.57,1.13-1.74c4.22-0.89,8.41-1.75,12.46-2.55c0.79-0.16,1.56,0.36,1.72,1.15
			c0.16,0.79-0.36,1.56-1.15,1.72c-4.03,0.8-8.21,1.65-12.42,2.54C712,416.19,711.82,416.19,711.64,416.16z M332.6,350.49
			c-0.02,0-0.03-0.01-0.05-0.01c-0.79-0.16-1.31-0.93-1.15-1.72c0.83-4.14,1.8-8.33,2.88-12.46c0.21-0.78,1.02-1.26,1.79-1.04
			c0.78,0.21,1.25,1.01,1.04,1.79c-1.07,4.07-2.03,8.2-2.84,12.28C334.12,350.11,333.38,350.62,332.6,350.49z M1062.94,470.45
			c-0.25-0.04-0.49-0.15-0.7-0.32c-3.22-2.67-6.55-5.31-9.91-7.83c-0.65-0.49-0.78-1.4-0.29-2.05c0.49-0.65,1.41-0.78,2.05-0.29
			c3.39,2.55,6.76,5.21,10.02,7.92c0.62,0.52,0.71,1.44,0.19,2.06C1063.97,470.35,1063.44,470.53,1062.94,470.45z M736.56,411.24
			c-0.59-0.1-1.09-0.56-1.2-1.18c-0.15-0.8,0.38-1.56,1.18-1.71c4.17-0.76,8.39-1.5,12.53-2.2c0.8-0.14,1.55,0.41,1.69,1.2
			c0.13,0.8-0.41,1.55-1.2,1.69c-4.13,0.69-8.33,1.43-12.48,2.19C736.89,411.27,736.72,411.27,736.56,411.24z M1042.66,455.18
			c-0.2-0.03-0.4-0.11-0.59-0.23c-3.45-2.35-7.01-4.66-10.6-6.87c-0.69-0.42-0.9-1.33-0.48-2.02c0.43-0.69,1.33-0.9,2.02-0.48
			c3.62,2.24,7.23,4.57,10.71,6.94c0.67,0.46,0.84,1.37,0.39,2.04C1043.78,455.05,1043.2,455.27,1042.66,455.18z M761.6,407.06
			c-0.61-0.1-1.11-0.58-1.21-1.23c-0.12-0.8,0.43-1.55,1.23-1.67c4.21-0.63,8.45-1.23,12.6-1.77c0.8-0.11,1.54,0.46,1.64,1.26
			c0.11,0.8-0.46,1.54-1.26,1.64c-4.13,0.54-8.35,1.14-12.55,1.77C761.9,407.09,761.75,407.08,761.6,407.06z M786.78,403.75
			c-0.63-0.1-1.14-0.62-1.22-1.28c-0.09-0.8,0.49-1.53,1.29-1.62c4.23-0.47,8.49-0.91,12.66-1.28c0.81-0.07,1.52,0.52,1.59,1.33
			c0.07,0.81-0.52,1.52-1.33,1.59c-4.15,0.38-8.39,0.81-12.6,1.28C787.04,403.78,786.91,403.77,786.78,403.75z M1021.05,441.86
			c-0.16-0.03-0.32-0.08-0.47-0.17c-3.64-2.03-7.4-4.01-11.17-5.9c-0.72-0.36-1.02-1.24-0.65-1.97c0.36-0.72,1.25-1.02,1.97-0.65
			c3.81,1.91,7.6,3.91,11.28,5.96c0.71,0.39,0.96,1.29,0.57,1.99C1022.26,441.68,1021.64,441.96,1021.05,441.86z M339.07,325.95
			c-0.07-0.01-0.15-0.03-0.22-0.05c-0.77-0.25-1.19-1.08-0.93-1.85c1.32-4.01,2.78-8.06,4.34-12.02c0.3-0.75,1.15-1.12,1.9-0.83
			c0.75,0.3,1.12,1.15,0.83,1.9c-1.54,3.91-2.98,7.91-4.28,11.86C340.48,325.66,339.78,326.07,339.07,325.95z M812.07,401.46
			c-0.66-0.11-1.17-0.65-1.22-1.35c-0.06-0.81,0.55-1.51,1.36-1.56c4.26-0.29,8.53-0.53,12.71-0.72c0.81-0.03,1.49,0.59,1.53,1.4
			c0.04,0.81-0.59,1.49-1.4,1.53c-4.15,0.19-8.41,0.43-12.64,0.72C812.29,401.49,812.18,401.48,812.07,401.46z M998.35,430.48
			c-0.12-0.02-0.24-0.06-0.36-0.11c-3.8-1.71-7.71-3.37-11.63-4.94c-0.75-0.3-1.12-1.15-0.81-1.91s1.16-1.11,1.91-0.81
			c3.96,1.59,7.91,3.27,11.74,4.99c0.74,0.33,1.07,1.2,0.74,1.94C999.65,430.26,998.99,430.59,998.35,430.48z M837.43,400.34
			c-0.68-0.11-1.21-0.7-1.23-1.42c-0.02-0.81,0.63-1.48,1.44-1.49c4.29-0.08,8.57-0.11,12.73-0.08c0.82,0.01,1.46,0.67,1.46,1.47
			c-0.01,0.81-0.67,1.46-1.47,1.46c-4.14-0.03-8.4,0-12.66,0.08C837.61,400.36,837.52,400.35,837.43,400.34z M974.79,421.03
			c-0.09-0.01-0.17-0.04-0.25-0.07c-3.92-1.4-7.96-2.75-11.99-4.01c-0.77-0.24-1.2-1.06-0.96-1.84c0.24-0.77,1.07-1.2,1.84-0.96
			c4.07,1.27,8.14,2.64,12.1,4.04c0.76,0.27,1.16,1.11,0.89,1.87C976.17,420.75,975.48,421.14,974.79,421.03z M862.82,400.51
			c-0.72-0.12-1.25-0.75-1.22-1.5c0.03-0.81,0.71-1.44,1.51-1.41c4.13,0.14,8.29,0.34,12.37,0.6l0.35,0.02
			c0.8,0.05,1.42,0.74,1.38,1.55c-0.05,0.81-0.74,1.42-1.55,1.38l-0.38-0.03c-4.03-0.25-8.17-0.45-12.27-0.59
			C862.95,400.53,862.88,400.52,862.82,400.51z M950.57,413.43c-0.05-0.01-0.1-0.02-0.15-0.03c-4.03-1.1-8.15-2.15-12.26-3.11
			c-0.79-0.19-1.28-0.97-1.09-1.76c0.18-0.79,0.97-1.28,1.76-1.09c4.14,0.97,8.3,2.03,12.36,3.13c0.78,0.21,1.24,1.02,1.03,1.8
			C952.02,413.1,951.3,413.55,950.57,413.43z M888.16,402.14c-0.75-0.12-1.29-0.81-1.22-1.58c0.08-0.81,0.79-1.4,1.6-1.32
			c4.23,0.4,8.5,0.88,12.67,1.42c0.83,0.09,1.37,0.84,1.27,1.64c-0.1,0.8-0.84,1.37-1.64,1.27c-4.14-0.53-8.37-1.01-12.57-1.41
			C888.23,402.15,888.2,402.14,888.16,402.14z M925.85,407.63c-0.02,0-0.03-0.01-0.05-0.01c-3.8-0.75-7.66-1.45-11.48-2.08
			c-0.03,0-0.05-0.01-0.08-0.01l-0.89-0.15c0,0,0,0,0,0c-0.8-0.13-1.34-0.88-1.21-1.68c0.13-0.8,0.88-1.34,1.68-1.21l0.9,0.15
			c3.86,0.67,7.8,1.35,11.65,2.11c0.79,0.16,1.31,0.93,1.15,1.72C927.37,407.24,926.62,407.75,925.85,407.63z M348.36,302.33
			c-0.13-0.02-0.25-0.06-0.37-0.11c-0.74-0.34-1.06-1.21-0.72-1.94c1.76-3.84,3.66-7.69,5.65-11.46c0.38-0.72,1.26-0.99,1.98-0.61
			c0.72,0.38,0.99,1.26,0.61,1.98c-1.96,3.72-3.84,7.53-5.58,11.32C349.65,302.11,349,302.43,348.36,302.33z M360.2,279.87
			c-0.18-0.03-0.35-0.09-0.51-0.19c-0.69-0.42-0.92-1.31-0.51-2.01c2.17-3.63,4.48-7.26,6.85-10.78c0.45-0.67,1.36-0.85,2.03-0.4
			c0.67,0.45,0.85,1.36,0.4,2.03c-2.35,3.48-4.62,7.07-6.77,10.65C361.38,279.71,360.78,279.97,360.2,279.87z M374.38,258.81
			c-0.23-0.04-0.45-0.13-0.64-0.28c-0.65-0.49-0.78-1.41-0.29-2.05c2.55-3.39,5.23-6.75,7.96-10c0.52-0.62,1.44-0.7,2.06-0.18
			c0.62,0.52,0.7,1.44,0.18,2.06c-2.69,3.2-5.34,6.53-7.86,9.87C375.45,258.7,374.9,258.9,374.38,258.81z M390.71,239.38
			c-0.28-0.05-0.54-0.17-0.76-0.38c-0.59-0.55-0.62-1.48-0.07-2.07c2.91-3.11,5.94-6.16,8.99-9.08c0.58-0.56,1.51-0.54,2.07,0.05
			c0.56,0.58,0.54,1.51-0.05,2.07c-3.02,2.88-6,5.9-8.88,8.97C391.67,239.31,391.18,239.46,390.71,239.38z M409.07,221.84
			c-0.33-0.05-0.64-0.22-0.88-0.49c-0.53-0.62-0.45-1.54,0.16-2.07c3.25-2.77,6.6-5.47,9.96-8.02c0.64-0.49,1.56-0.36,2.05,0.28
			c0.49,0.65,0.36,1.56-0.28,2.05c-3.32,2.51-6.62,5.18-9.83,7.91C409.92,221.8,409.48,221.91,409.07,221.84z M429.31,206.51
			c-0.39-0.06-0.75-0.28-0.98-0.63c-0.45-0.67-0.27-1.58,0.41-2.03c2.49-1.66,5.05-3.29,7.6-4.83c1.08-0.66,2.17-1.3,3.26-1.94
			c0.7-0.41,1.6-0.17,2,0.53c0.41,0.7,0.17,1.6-0.53,2c-1.08,0.63-2.15,1.27-3.22,1.91c-2.51,1.52-5.03,3.12-7.49,4.76
			C430.04,206.5,429.66,206.57,429.31,206.51z M451.23,193.69c-0.44-0.07-0.85-0.35-1.07-0.78c-0.37-0.72-0.09-1.6,0.63-1.97
			c3.76-1.93,7.64-3.79,11.51-5.53c0.74-0.33,1.6,0,1.94,0.74s0,1.61-0.74,1.94c-3.83,1.72-7.65,3.55-11.37,5.46
			C451.85,193.7,451.53,193.74,451.23,193.69z M474.39,183.31c-0.5-0.08-0.93-0.42-1.13-0.92c-0.29-0.75,0.08-1.6,0.84-1.9
			c3.94-1.53,7.99-2.97,12.02-4.3c0.77-0.25,1.6,0.17,1.85,0.93c0.25,0.77-0.16,1.6-0.93,1.85c-3.99,1.31-7.98,2.74-11.88,4.25
			C474.9,183.33,474.64,183.35,474.39,183.31z M498.49,175.36c-0.55-0.09-1.02-0.49-1.17-1.06c-0.21-0.78,0.24-1.59,1.02-1.8
			c4.07-1.12,8.24-2.16,12.39-3.09c0.79-0.18,1.57,0.32,1.75,1.11c0.18,0.79-0.32,1.57-1.11,1.75c-4.11,0.92-8.23,1.95-12.25,3.05
			C498.91,175.38,498.7,175.39,498.49,175.36z M523.26,169.81c-0.6-0.1-1.09-0.56-1.2-1.19c-0.14-0.8,0.39-1.56,1.19-1.7
			c4.16-0.73,8.4-1.37,12.62-1.91c0.8-0.1,1.54,0.46,1.64,1.27c0.1,0.8-0.46,1.54-1.27,1.64c-4.17,0.54-8.38,1.18-12.49,1.9
			C523.59,169.83,523.42,169.83,523.26,169.81z M548.44,166.56c-0.65-0.11-1.16-0.64-1.22-1.32c-0.07-0.81,0.53-1.52,1.34-1.58
			c4.2-0.36,8.48-0.63,12.73-0.81c0.81-0.03,1.49,0.59,1.53,1.4c0.03,0.81-0.59,1.49-1.4,1.53c-4.21,0.18-8.45,0.45-12.61,0.8
			C548.68,166.58,548.56,166.58,548.44,166.56z M573.81,165.48c-0.69-0.11-1.22-0.72-1.22-1.44c0-0.81,0.65-1.47,1.46-1.47
			c4.21-0.01,8.5,0.07,12.75,0.23c0.8,0.03,1.44,0.71,1.41,1.52c-0.03,0.81-0.71,1.44-1.52,1.41c-4.21-0.16-8.47-0.24-12.64-0.23
			C573.97,165.5,573.88,165.49,573.81,165.48z M661.73,176.86c-0.04-0.01-0.08-0.02-0.13-0.03c-4.07-1.04-8.21-2.03-12.3-2.93
			c-0.79-0.17-1.29-0.96-1.11-1.75c0.18-0.79,0.96-1.27,1.75-1.11c4.13,0.91,8.3,1.91,12.4,2.96c0.78,0.2,1.26,1,1.06,1.78
			C663.2,176.51,662.47,176.98,661.73,176.86z M599.18,166.43c-0.74-0.12-1.28-0.79-1.22-1.56c0.06-0.81,0.77-1.41,1.57-1.35
			c4.2,0.32,8.47,0.72,12.7,1.2c0.8,0.09,1.38,0.82,1.29,1.62c-0.09,0.8-0.82,1.38-1.62,1.29c-4.19-0.47-8.42-0.88-12.59-1.19
			C599.26,166.44,599.22,166.44,599.18,166.43z M636.93,171.38c-0.01,0-0.02,0-0.03,0c-4.13-0.77-8.31-1.47-12.47-2.09
			c-0.8-0.12-1.35-0.87-1.23-1.67c0.12-0.8,0.87-1.35,1.67-1.23c4.2,0.63,8.41,1.33,12.57,2.11c0.8,0.15,1.32,0.91,1.17,1.71
			C638.47,170.99,637.72,171.51,636.93,171.38z"/><path fill="#d6cbfa" d="M337.49,755.16c-3.04-5.41-2.09-12.5,1.48-17.56c3.56-5.06,9.37-8.24,15.4-9.62
		c6.04-1.38,12.33-1.13,18.49-0.43c10.19,1.16,20.54,3.68,29.16,9.08c-3.65-14.6-8.43-28.92-14.28-42.8
		c-0.53-1.26-1.09-2.52-1.64-3.77c-9.58,4.86-19.15,9.71-28.72,14.56c-6.39,3.24-12.98,6.54-20.11,7.16
		c-7.14,0.62-15.05-2.07-18.56-8.32c-3.04-5.41-2.09-12.5,1.48-17.56c3.56-5.06,9.37-8.24,15.4-9.62
		c6.04-1.38,12.33-1.13,18.49-0.43c10.51,1.19,21.2,3.83,29.97,9.6c-6.96-15.21-15.2-29.83-24.6-43.65
		c-9.89,4.55-19.78,9.09-29.67,13.64c-6.51,2.99-13.22,6.03-20.37,6.38c-7.16,0.35-14.96-2.64-18.23-9.03
		c-2.83-5.52-1.61-12.57,2.15-17.49c3.75-4.92,9.68-7.87,15.76-9.02c6.09-1.15,12.37-0.65,18.49,0.28
		c9.81,1.5,19.72,4.27,27.97,9.63c-7.03-9.85-14.65-19.27-22.83-28.18c-2.42-2.64-4.91-5.21-7.43-7.76
		c-10.32,4.34-20.65,8.68-30.97,13.02c-6.6,2.78-13.41,5.6-20.57,5.71c-7.16,0.11-14.87-3.13-17.93-9.62
		c-2.64-5.61-1.19-12.61,2.72-17.41c3.91-4.8,9.93-7.55,16.05-8.5c6.12-0.95,12.38-0.25,18.47,0.89c8.7,1.62,17.46,4.27,24.97,8.82
		c-8.85-8.32-18.24-16.06-28.1-23.17c-10.87-1.07-21.73-2.15-32.6-3.22c-7.13-0.7-14.47-1.47-20.82-4.78
		c-6.36-3.31-11.6-9.83-11.2-16.99c0.34-6.19,4.95-11.65,10.68-14c5.73-2.35,12.33-1.9,18.17,0.17c5.84,2.08,11.02,5.68,15.84,9.58
		c8.89,7.18,17.04,15.9,21.11,26.5c0.03,0.02,0.07,0.03,0.1,0.06c10.51,7.55,20.48,15.82,29.86,24.72
		c-4.13-8.24-5.96-17.68-6.69-26.94c-0.48-6.18-0.52-12.48,1.07-18.47c1.59-5.99,4.96-11.68,10.14-15.06
		c5.18-3.39,12.3-4.09,17.6-0.87c6.13,3.73,8.54,11.73,7.67,18.85s-4.39,13.59-7.85,19.86c-5.27,9.55-10.53,19.11-15.8,28.66
		c11.15,11.23,21.38,23.37,30.59,36.25c-2.35-9.41-1.82-19.55-0.14-29.18c1.06-6.1,2.59-12.22,5.62-17.62
		c3.03-5.4,7.71-10.08,13.57-12.07c5.86-1.99,12.93-0.91,17.27,3.53c5.01,5.13,5.36,13.48,2.76,20.15
		c-2.61,6.67-7.63,12.06-12.53,17.28c-7.47,7.94-14.94,15.88-22.41,23.82c0.28,0.41,0.57,0.82,0.85,1.23
		c9.1,13.56,17.09,27.86,23.9,42.7c-1.27-10.8,1.48-21.87,5.5-32.04c2.28-5.76,5.01-11.43,9.07-16.11c4.06-4.68,9.59-8.3,15.74-9.07
		c6.15-0.76,12.85,1.73,16.2,6.95c3.87,6.04,2.52,14.28-1.38,20.29c-3.9,6-9.91,10.27-15.78,14.38
		c-9.21,6.46-18.43,12.92-27.64,19.38c0.09,0.21,0.18,0.42,0.27,0.63l0.31,0.05c-0.08,0.04-0.16,0.08-0.24,0.12
		c6.38,14.55,11.61,29.59,15.59,44.98c2.77-9.36,8.35-17.91,14.68-25.46c4.06-4.84,8.52-9.44,13.95-12.66
		c5.43-3.22,11.94-4.95,18.13-3.72s11.87,5.79,13.43,11.91c1.8,7.07-2.15,14.61-7.86,19.16c-5.71,4.55-12.89,6.74-19.88,8.84
		c-9.93,2.98-19.86,5.95-29.79,8.93c-0.28,0.14-0.56,0.29-0.84,0.43c3.94,17.06,6.33,34.46,7.07,51.95
		c0.08,1.85-2.79,2.32-2.87,0.45c-0.73-17.2-3.05-34.29-6.87-51.04c-9.08,4.61-18.17,9.21-27.25,13.82
		c-6.39,3.24-12.98,6.54-20.11,7.16C348.92,764.1,341,761.41,337.49,755.16z"/><path fill="#d6cbfa" d="M1012.21,689.58c2.68-4.77,1.84-11.02-1.3-15.48c-3.14-4.46-8.26-7.26-13.58-8.48
		c-5.32-1.22-10.87-0.99-16.3-0.38c-8.98,1.02-18.11,3.24-25.71,8c3.22-12.87,7.43-25.5,12.59-37.74c0.47-1.11,0.96-2.22,1.44-3.33
		c8.44,4.28,16.88,8.56,25.33,12.84c5.63,2.86,11.44,5.76,17.73,6.31c6.29,0.55,13.27-1.82,16.37-7.34
		c2.68-4.77,1.84-11.02-1.3-15.48c-3.14-4.46-8.26-7.26-13.58-8.48c-5.32-1.22-10.87-0.99-16.3-0.38
		c-9.27,1.05-18.69,3.38-26.42,8.46c6.14-13.41,13.4-26.3,21.69-38.49c8.72,4.01,17.44,8.02,26.16,12.03
		c5.74,2.64,11.65,5.32,17.97,5.63c6.31,0.3,13.19-2.33,16.08-7.96c2.49-4.87,1.42-11.08-1.89-15.42c-3.31-4.34-8.53-6.94-13.9-7.95
		c-5.37-1.01-10.9-0.58-16.31,0.25c-8.65,1.32-17.39,3.76-24.66,8.5c6.2-8.68,12.91-16.99,20.13-24.85c2.14-2.33,4.33-4.6,6.56-6.84
		c9.1,3.83,18.21,7.66,27.31,11.48c5.82,2.45,11.82,4.93,18.14,5.03c6.32,0.1,13.11-2.76,15.81-8.48c2.33-4.95,1.05-11.12-2.4-15.35
		c-3.45-4.23-8.76-6.66-14.15-7.49c-5.4-0.84-10.92-0.22-16.29,0.79c-7.67,1.43-15.39,3.77-22.02,7.78
		c7.81-7.33,16.08-14.16,24.78-20.43c9.58-0.95,19.16-1.89,28.75-2.84c6.29-0.62,12.75-1.29,18.36-4.21
		c5.61-2.92,10.22-8.67,9.88-14.98c-0.3-5.46-4.36-10.27-9.42-12.35c-5.05-2.07-10.87-1.68-16.02,0.15
		c-5.15,1.83-9.71,5.01-13.96,8.44c-7.83,6.33-15.03,14.02-18.62,23.37c-0.03,0.02-0.06,0.03-0.09,0.05
		c-9.26,6.66-18.06,13.95-26.33,21.8c3.64-7.26,5.26-15.59,5.9-23.76c0.43-5.45,0.46-11.01-0.94-16.28
		c-1.4-5.28-4.37-10.3-8.94-13.28c-4.57-2.99-10.84-3.6-15.51-0.76c-5.4,3.29-7.53,10.35-6.76,16.62
		c0.76,6.27,3.87,11.98,6.92,17.51c4.64,8.42,9.29,16.85,13.93,25.27c-9.83,9.9-18.85,20.6-26.97,31.96
		c2.07-8.3,1.6-17.23,0.12-25.73c-0.94-5.38-2.28-10.77-4.95-15.53c-2.67-4.76-6.79-8.89-11.96-10.64
		c-5.17-1.76-11.4-0.8-15.22,3.11c-4.42,4.52-4.73,11.89-2.43,17.77c2.3,5.88,6.73,10.64,11.05,15.24c6.59,7,13.18,14,19.76,21
		c-0.25,0.36-0.5,0.72-0.75,1.09c-8.03,11.96-15.07,24.57-21.07,37.65c1.12-9.52-1.3-19.28-4.85-28.26c-2.01-5.08-4.42-10.08-8-14.2
		c-3.58-4.12-8.46-7.32-13.87-7.99c-5.42-0.67-11.33,1.53-14.28,6.13c-3.41,5.32-2.23,12.59,1.22,17.89
		c3.44,5.29,8.74,9.05,13.91,12.68c8.12,5.7,16.25,11.39,24.37,17.09c-0.08,0.18-0.16,0.37-0.24,0.55l-0.28,0.05
		c0.07,0.04,0.14,0.07,0.21,0.11c-5.62,12.83-10.24,26.09-13.75,39.66c-2.44-8.26-7.37-15.79-12.95-22.45
		c-3.58-4.26-7.52-8.33-12.3-11.16c-4.79-2.84-10.53-4.37-15.99-3.28s-10.47,5.11-11.84,10.5c-1.59,6.24,1.9,12.88,6.93,16.9
		c5.03,4.01,11.36,5.95,17.53,7.79c8.76,2.62,17.51,5.25,26.27,7.87c0.25,0.13,0.49,0.25,0.74,0.38
		c-3.47,15.04-5.58,30.38-6.23,45.81c-0.07,1.63,2.46,2.05,2.53,0.4c0.64-15.16,2.69-30.23,6.06-45.01
		c8.01,4.06,16.02,8.12,24.03,12.18c5.63,2.86,11.44,5.76,17.73,6.31C1002.14,697.46,1009.11,695.09,1012.21,689.58z"/><path fill="#ffcda1" d="M897.88,773.82C804.69,838.24,702.86,883,594.47,924.59c-17.82,7.13-34.18,21.09-50.13,35.41H186.85
				c26.84-21.92,215.94-173.77,219.82-220c13.49-160.9-34.43-150.2,58.38-327.36c3.82-7.27,7.87-14.87,12.16-22.8
				c8.4-17.4,5.97-70.59,10.83-94.29l0.01-0.03c0.81-3.39,1.5-7.16,3.98-8.78c6.45-3.25,14.19-2.36,21.25,3.81
				c20.1,19.66,30.62,67.84,7.1,171.44c0,0-6.36,53.57,7.73,46.23c3.35-2.73,6.65-5.4,9.87-8.09h0.01c0.61-0.5,1.2-0.99,1.8-1.48
				c0,0,0.01,0,0.01-0.01c41.72-34.3,79.49-72.1,112.53-105.9c9.6-9.57,19.4-19.45,29.4-26.43c0.14-0.1,0.29-0.21,0.43-0.29
				c27.49-20.76,43.3,13.7,60.79,48.28c21.54,44.63,42.44,92.16,64.64,138.33v0.01c5.59,11.72,11.21,23.34,16.94,35.15
				c0,0,0,0,0.01,0v0.01c0,0,0,0,0.01,0c2.87,5.9,5.72,11.72,8.72,17.79v0.01c0.91,1.87,1.83,3.74,2.77,5.63
				c11.27,0.56,23.5,1.44,35.31,2.68h0.01c0.59,0.06,1.2,0.12,1.8,0.19c0,0,0,0,0.01,0c29.51,3.46,99.65,11.93,109.33,43.36
				c0.01,0.03,0.01,0.07,0.02,0.09C990.82,692.05,956.36,731.91,897.88,773.82z"/><path fill="#f5d9ce" d="M897.88,773.82c-0.83,0.59-1.66,1.18-2.5,1.77c-2.65,1.87-5.35,3.74-8.1,5.61
				c-12.19,8.3-25.31,16.63-39.19,24.93c-15.7,9.39-32.37,18.73-49.83,27.98c-5.87,3.1-11.82,6.2-17.85,9.27
				c-1.58-5.36-3.17-10.71-4.64-15.67c-7.22-24.37-176.92,7.22-208.51,0c-31.59-7.22-28.88-29.79-28.88-29.79l67.7-26.18
				l144.42-31.59l108.08-127.44l12.87-15.17c0,0,21.33,10.22,50.22,24.32c17.39,8.48,37.5,18.37,57.36,28.28
				c1.57,2.31,2.74,4.77,3.47,7.36c0.01,0.02,0.01,0.04,0.02,0.05c0.11,0.41,0.22,0.82,0.31,1.24
				C990.14,692.14,955.91,732.51,897.88,773.82z"/><path fill="#fff" d="M889.89,136.14H551.04c-13.17,0-23.84,10.32-23.84,23.03v623.32c0,12.71,10.67,23.02,23.84,23.02h338.85
					c13.17,0,23.85-10.3,23.85-23.02V159.18C913.74,146.46,903.06,136.14,889.89,136.14z"/><path fill="#de422e" d="M798.15,698.16H626.91c-15.39,0-27.86-12.47-27.86-27.86v-3.06c0-15.39,12.47-27.86,27.86-27.86h171.25
						c15.39,0,27.86,12.47,27.86,27.86v3.06C826.02,685.68,813.54,698.16,798.15,698.16z"/><path fill="#fff" d="M658.61,677.58c-6.65-0.71-12.35-5.76-15.08-10.87c-0.87-1.64-0.91-3.6-0.07-5.26l0.66-1.31
						c0.55-1.1,0.58-2.38,0.07-3.5l-3.32-7.38c-0.66-1.46-2.12-2.41-3.72-2.41l0,0c-2.09,0-4.09,0.9-5.43,2.5
						c-1.67,1.99-3.29,5.37-2.78,10.81c0.99,10.46,16.21,25.41,28.75,29.35c7.9,2.48,12.96,0.62,15.74-1.59
						c1.69-1.35,2.66-3.4,2.66-5.56v-0.49c0-1.57-0.9-3-2.32-3.68l-5.7-2.73c-1.2-0.58-2.62-0.53-3.78,0.13l-2.28,1.29
						C660.99,677.45,659.79,677.7,658.61,677.58z"/><path fill="#fff" d="M733.92,687.8c-1.79-1.79-2.68-4.37-2.68-7.75v-3.74c0-2.09,0.34-3.85,1.03-5.28
							c0.68-1.43,1.79-2.54,3.32-3.35v-0.12c-1.41-0.76-2.44-1.82-3.11-3.17c-0.66-1.35-1-3.07-1-5.16v-1.75
							c0-3.38,0.88-5.96,2.63-7.75c1.75-1.79,4.25-2.69,7.51-2.69s5.76,0.9,7.51,2.69c1.75,1.79,2.62,4.37,2.62,7.75v1.75
							c0,4.02-1.37,6.8-4.1,8.33v0.12c1.53,0.81,2.63,1.92,3.32,3.35c0.68,1.43,1.03,3.19,1.03,5.28v3.74c0,3.38-0.9,5.97-2.68,7.75
							c-1.79,1.79-4.36,2.68-7.69,2.68C738.28,690.48,735.71,689.59,733.92,687.8z M745.36,679.68v-4.04c0-3.18-1.25-4.77-3.74-4.77
							c-2.5,0-3.74,1.59-3.74,4.77v4.04c0,3.18,1.25,4.77,3.74,4.77C744.11,684.45,745.36,682.86,745.36,679.68z M745.12,660.62
							v-3.32c0-2.82-1.17-4.22-3.5-4.22c-2.33,0-3.5,1.41-3.5,4.22v3.32c0,2.82,1.17,4.22,3.5,4.22
							C743.95,664.84,745.12,663.43,745.12,660.62z"/><path fill="#fff" d="M765.45,657.66h-6.94v-4.71c1.89,0,3.41-0.16,4.56-0.48c1.15-0.32,2.06-0.85,2.75-1.6
							c0.68-0.74,1.29-1.82,1.81-3.23h4.46v42.24h-6.64V657.66z"/><path fill="#fff" d="M789.58,657.66h-6.94v-4.71c1.89,0,3.41-0.16,4.56-0.48c1.15-0.32,2.06-0.85,2.75-1.6
							c0.68-0.74,1.29-1.82,1.81-3.23h4.46v42.24h-6.64V657.66z"/><path fill="#e03131" d="M596.1,362.14c-5.45-6.05-8.17-14.72-8.17-26.02v-7.98h20.74v9.57c0,9.04,3.79,13.56,11.36,13.56
						c3.72,0,6.55-1.1,8.47-3.29c1.92-2.19,2.89-5.75,2.89-10.67c0-5.85-1.33-11-3.99-15.45c-2.66-4.45-7.58-9.8-14.75-16.05
						c-9.04-7.98-15.35-15.18-18.94-21.63c-3.59-6.45-5.38-13.72-5.38-21.83c0-11.03,2.79-19.57,8.37-25.62
						c5.58-6.05,13.69-9.07,24.32-9.07c10.5,0,18.44,3.02,23.83,9.07c5.38,6.05,8.08,14.72,8.08,26.02v5.78h-20.74v-7.18
						c0-4.78-0.93-8.27-2.79-10.47c-1.86-2.19-4.59-3.29-8.17-3.29c-7.31,0-10.97,4.45-10.97,13.36c0,5.05,1.36,9.77,4.09,14.16
						c2.72,4.39,7.68,9.7,14.85,15.95c9.17,7.98,15.48,15.22,18.94,21.73c3.45,6.51,5.18,14.16,5.18,22.93
						c0,11.43-2.83,20.21-8.47,26.32c-5.65,6.12-13.86,9.17-24.62,9.17C609.58,371.21,601.54,368.19,596.1,362.14z"/><path fill="#e03131" d="M687.81,362.04c-5.72-6.11-8.57-14.75-8.57-25.92v-73.37c0-11.17,2.86-19.8,8.57-25.92
						c5.71-6.11,13.96-9.17,24.72-9.17c10.77,0,19.01,3.06,24.72,9.17c5.71,6.11,8.57,14.75,8.57,25.92v73.37
						c0,11.17-2.86,19.81-8.57,25.92c-5.72,6.12-13.96,9.17-24.72,9.17C701.77,371.21,693.52,368.15,687.81,362.04z M723.9,337.51
						v-76.16c0-9.17-3.79-13.76-11.36-13.76c-7.58,0-11.36,4.59-11.36,13.76v76.16c0,9.17,3.79,13.76,11.36,13.76
						C720.11,351.27,723.9,346.69,723.9,337.51z"/><path fill="#e03131" d="M779.92,362.14c-5.45-6.05-8.17-14.72-8.17-26.02v-7.98h20.74v9.57c0,9.04,3.79,13.56,11.36,13.56
						c3.72,0,6.55-1.1,8.47-3.29c1.92-2.19,2.89-5.75,2.89-10.67c0-5.85-1.33-11-3.99-15.45c-2.66-4.45-7.58-9.8-14.75-16.05
						c-9.04-7.98-15.35-15.18-18.94-21.63c-3.59-6.45-5.38-13.72-5.38-21.83c0-11.03,2.79-19.57,8.37-25.62
						c5.58-6.05,13.69-9.07,24.32-9.07c10.5,0,18.44,3.02,23.83,9.07c5.38,6.05,8.07,14.72,8.07,26.02v5.78h-20.74v-7.18
						c0-4.78-0.93-8.27-2.79-10.47c-1.86-2.19-4.59-3.29-8.17-3.29c-7.31,0-10.97,4.45-10.97,13.36c0,5.05,1.36,9.77,4.09,14.16
						c2.72,4.39,7.68,9.7,14.85,15.95c9.17,7.98,15.48,15.22,18.94,21.73c3.45,6.51,5.18,14.16,5.18,22.93
						c0,11.43-2.83,20.21-8.47,26.32c-5.65,6.12-13.86,9.17-24.62,9.17C793.41,371.21,785.37,368.19,779.92,362.14z"/><circle cx="714.31" cy="576.54" r="27.59" fill="#ffbb29"/><path fill="#f7e8b7" d="M735.1,558.41c1.15,3.04,1.79,6.33,1.79,9.77c0,15.24-12.35,27.59-27.59,27.59
						c-8.3,0-15.73-3.67-20.79-9.46c3.95,10.42,14.01,17.82,25.81,17.82c15.24,0,27.59-12.35,27.59-27.59
						C741.91,569.6,739.34,563.26,735.1,558.41z"/><path fill="#ffbb29" d="M793.75,560.37c-13.43-15.08-23.02-33.29-20.51-54.52c9.88-83.53-46.54-86.97-58.93-86.73
						c-12.38-0.24-68.81,3.2-58.93,86.73c2.51,21.23-7.08,39.44-20.51,54.52H793.75z"/><path fill="#ffbb29" d="M666.3,414.38c-20.1,11.18-31.82,34.11-28.66,56.97c0.55,4.01,6.68,2.81,6.16-1.18
						c-2.68-20.4,6.86-41.93,24.19-53.21C669.67,415.87,668.02,413.43,666.3,414.38z"/><path fill="#ffbb29" d="M647.82,412.03c1.19-0.78,0.02-2.51-1.19-1.83c-14.25,7.92-22.56,24.18-20.32,40.39
						c0.39,2.84,4.74,1.99,4.37-0.83C628.77,435.29,635.53,420.02,647.82,412.03z"/><path fill="#f7e8b7" d="M773.03,517.2L773.03,517.2L773.03,517.2c-8.64,15.62-23.92,26.46-41.51,29.46l-62.68,10.71
						c0,0,4.42,1.13,11.73,3h113.18C782.77,548.05,774.37,533.64,773.03,517.2z"/><path fill="#ffbb29" d="M794.4,557.38H634.22c-2.61,0-4.72,2.11-4.72,4.72v6.65c0,2.61,2.11,4.72,4.72,4.72H794.4
						c2.61,0,4.72-2.11,4.72-4.72v-6.65C799.12,559.49,797.01,557.38,794.4,557.38z"/><circle cx="714.31" cy="424.78" r="19.92" fill="#ffbb29"/><path fill="#f7e8b7" d="M696.39,427.66c-17.95,6.62-34.06,25.16-33.03,45.07c0.05,1.05,1.75,1.65,2.02,0.4
						c1.96-9.02,5.13-17.76,10.8-25.13c5.6-7.29,13.07-12.92,21.74-16.04C700.67,430.96,699.15,426.64,696.39,427.66z"/><circle cx="762.84" cy="447.48" r="28.61" fill="#e03131"/><path fill="#fff" d="M762.97,438.03h-5.91v-4.01c1.61,0,2.9-0.14,3.88-0.41c0.98-0.27,1.75-0.73,2.34-1.36
								c0.58-0.63,1.1-1.55,1.54-2.75h3.8v35.95h-5.65V438.03z"/><path fill="#6c39a8" d="M900.68,117.35H541.42c-13.27,0-24.02,11.03-24.02,24.64v656.68c0,13.62,10.75,24.65,24.02,24.65h359.26
						c13.27,0,24.01-11.03,24.01-24.65V141.98C924.69,128.37,913.95,117.35,900.68,117.35z M907.88,782.5c0,2-0.25,3.92-0.72,5.76
						c-0.19,0.73-0.42,1.46-0.68,2.16c-0.26,0.71-0.55,1.39-0.87,2.06c-0.33,0.67-0.67,1.32-1.06,1.96
						c-0.96,1.58-2.11,3.04-3.42,4.34c-1.04,1.05-2.18,1.99-3.4,2.81c-0.93,0.62-1.89,1.17-2.89,1.65c0,0.02-0.01,0-0.01,0
						c-0.99,0.49-2.04,0.91-3.13,1.25c-2.16,0.67-4.45,1.03-6.84,1.03H557.64c-12.71,0-23.02-10.3-23.02-23.01V159.18
						c0-12.73,10.32-23.03,23.04-23.03h327.19c7.55,0,14.26,3.63,18.46,9.26c0.45,0.58,0.86,1.19,1.25,1.83
						c0.39,0.62,0.73,1.27,1.06,1.95c0.32,0.67,0.61,1.37,0.87,2.07c0.26,0.71,0.49,1.42,0.68,2.16c0.48,1.83,0.72,3.76,0.72,5.76
						V782.5z"/><path fill="#ffcda1" d="M964.6,634.4c0.1,0.04,0.19,0.1,0.28,0.15c26.59,14.12,26.11,54.15-14.5,64.05
					c-40.2,9.78-110.42,29.25-117.33-3.8c-4.65-19.51,16.51-35.19,34.1-43.46h-0.21c-0.01,0.01-0.02,0.01-0.03,0.01
					c-23.83,0.63-42.38-3.8-45.47-18.59c-2.92-13.92,7.58-25.83,23.29-35.62c4.37-2.72,9.14-5.28,14.14-7.66
					c0.01-0.01,0.01-0.01,0.02-0.01c0.33-0.16,0.66-0.32,0.98-0.47c-28.87,2.31-52.74-1.04-56.29-17.99
					c-3.62-17.32,13.51-31.55,35.64-42.42l0.01-0.01c6.23-3.06,12.86-5.87,19.53-8.39c-0.3,0.02-0.6,0.03-0.88,0.04
					c-0.01,0-0.02,0-0.02,0c-25.58,1.21-45.9-2.91-49.15-18.44c-9.21-44,115.57-68.01,115.57-68.01
					c61.34-14.93,83.35,39.9,42.1,63.52c0.09,0.01,0.17,0.01,0.26,0.02c0.02,0,0.02,0,0.02,0c17.65,1.16,33.32,8.47,37.34,28.33
					c3.5,16.81-12.13,29.62-32.14,38.44c0.02,0,0.04,0.01,0.05,0.01c3.13,0.83,6.04,1.91,8.67,3.22h0.01
					C1009.5,581.46,1008.32,621.32,964.6,634.4z"/><path fill="#ffe3c9" d="M858.71,474.32c4.08,8.67,6.32,19.15,5.43,28.93c-0.3,3.33-2.97,5.95-6.29,6.29
					c-11.18,1.12-36.01,2.31-38.39-8.87c-3.31-15.5,19.42-25.85,30.48-29.91C853.34,469.51,857.17,471.04,858.71,474.32z"/><path fill="#ffe3c9" d="M856,541.12c4.08,8.67,6.32,19.15,5.43,28.93c-0.3,3.33-2.97,5.95-6.29,6.29
					c-11.18,1.12-35.59,3.05-38.39-8.87c-3.97-16.87,19.42-25.85,30.48-29.91C850.63,536.31,854.46,537.83,856,541.12z"/><path fill="#ffe3c9" d="M868.64,603.4c4.08,8.67,6.32,19.15,5.43,28.93c-0.3,3.33-2.97,5.95-6.29,6.29
					c-11.18,1.12-36.01,2.31-38.39-8.87c-3.31-15.5,19.42-25.85,30.48-29.91C863.27,598.59,867.1,600.11,868.64,603.4z"/><path fill="#ffe3c9" d="M881.28,665.68c4.08,8.67,6.32,19.15,5.43,28.93c-0.3,3.33-2.97,5.95-6.29,6.29
					c-11.18,1.12-36.01,2.31-38.39-8.87c-3.31-15.5,19.42-25.85,30.48-29.91C875.9,660.87,879.73,662.4,881.28,665.68z"/><g><path fill="#f5d9ce" d="M971.53,639.07c-3.23,0.43-6.6,0.43-6.6,0.43s-68.6,11.73-97.48,17.15c0,0-12.82,2.3-12.76,1.65
				c3.89-2.5,8.11-4.82,12.47-6.96h-0.21c11.63-2.18,71.99-14.4,97.93-16.79C967.34,635.85,969.56,637.36,971.53,639.07z"/></g><g><path fill="#f5d9ce" d="M980.6,567.32c-10.75,2.51-86.33,20.14-119.93,27.25c0,0-16.03,3.27-15.92,2.58
				c4.37-2.72,9.14-5.28,14.14-7.66c0.01-0.01,0.01-0.01,0.02-0.01c0.46-0.11,0.94-0.21,1.44-0.32
				c13.19-2.79,76.03-18.41,111.58-25.07c0.01,0,0.01,0,0.01,0C975.06,564.93,977.97,566.01,980.6,567.32z"/></g><g><path fill="#f5d9ce" d="M981.78,500.2c-4.47,0.92-10,1.26-10,1.26s-86.08,17.08-122.31,24.74l-10.23,2.38
				c6.23-3.06,12.86-5.87,19.53-8.39c-0.3,0.02-0.6,0.03-0.88,0.04c13.82-2.93,76.26-17.66,108.77-22.92c0.02,0,0.02,0,0.02,0
				C972.11,497.7,977.18,498.6,981.78,500.2z"/></g><g><path fill="#f5d9ce" d="M605.63,920.38c-3.71,1.41-7.43,2.82-11.15,4.21c-6.65,2.49-14.09,6.78-22.05,12.38
				c-11.48-27.11-35.1-31.84-57.52-45.16c-33.39-19.86-29.78-46.04-80.33-77.63C398.94,791.9,320.09,896.41,276.67,960h-89.82
				c26.84-21.92,215.94-173.77,219.82-220c13.49-160.9-34.43-150.2,58.38-327.36c1.08,15.16-0.23,34.22-9.72,55.82
				c-36.1,82.13-14.44,140.81-20.76,194.07c-6.31,53.26,13.54,93.87,18.05,113.73c4.51,19.86,58.67,79.44,76.72,95.69
				c18.05,16.24,51.45,2.71,71.31,29.78C604.99,907.63,606.27,914.01,605.63,920.38z"/></g><g><path fill="#ffe3c9" d="M494.72,331.42c-4.17,0.03-8.88-0.4-9.98-1.16c0.66-11.87,1.37-23.06,2.66-31.16
				c0.2-1.27,0.4-2.44,0.63-3.54l0.01-0.03c0.46-2.25,1.01-4.15,1.63-5.61c6.94-2.05,12.19,9.18,11.57,35.04
				C501.16,328.51,498.27,331.39,494.72,331.42z"/></g><g><path fill="#e03131" d="M1027.22,370.91c-37.8-5.36-56.16-33.59-58.71-73.09c-2.25-34.79,25.13-52.55,25.13-52.55
			s-7.65,16.83-2.87,18.99c9.94,3.84,12.67-37.89,40.41-61.25c0,0-0.8,13.5,10.35,18.79c0,0,27.34-38.34,18.94-66.77
			c0,0,18.81,9.22,22.06,28.12s0.16,60.15,7.62,65.48s11.53-25.01,11.53-25.01s21.81,45.67,16.19,70.96
			C1112.26,319.87,1100.38,381.28,1027.22,370.91z"/><path fill="#ffa034" d="M1052.49,231c0,0-7.19,67.53-32.48,66.24c-9.29-0.47-14.83-25.1-14.83-25.1s-16.13,19.52-15.2,44.62
			c0.94,25.09,4.62,48.03,44.63,55.19C1074.62,379.11,1126.92,313.16,1052.49,231z"/><path fill="#ffdd58" d="M1045.78,283.79c0,0-5.21,31.88-18.27,42.59s-12.66,5.01-11.4-3.77c0,0-15.41,13.78-9.06,28.98
			c6.35,15.2,18.76,20.82,32.47,20.44c13.7-0.38,38.19-14.99,19.71-54.11c0,0-4.28,17.94-8.69-0.39
			C1046.13,299.2,1051.68,296.16,1045.78,283.79z"/><path fill="#e03131" d="M1050.29,167.46c0,0-7.39,6.69-6.37,12.13c1.02,5.44-0.12,12.7,0.48,15.1c0.54,2.16,5.75-3.15,8.91-9.4
			C1056.48,179.03,1050.29,167.46,1050.29,167.46z"/><path fill="#e03131" d="M1002.93,216.74c0,0-5.7,3.15-5.78,5.69s2.32,6.57,2.91,9.35c0.59,2.78,4.47-1.49,5.11-4.94
			S1002.93,216.74,1002.93,216.74z"/><path fill="#e03131" d="M1104.12,199.78c0,0-4.38,2.21-4.79,5.74c-0.41,3.53-0.2,8.67,1.89,9.25c2.09,0.58,3.84-1.72,3.17-4.93
			C1103.7,206.62,1104.12,199.78,1104.12,199.78z"/></g><g><path fill="#e03131" d="M438.3,392.4c-21.63,7.17-38.94-3.04-50.8-23.48c-10.44-18-0.52-34.76-0.52-34.76s0.38,11.03,3.51,10.91
			c6.33-0.59-3.29-23.62,5.34-43.47c0,0,3.16,7.43,10.52,7.29c0,0,4.43-27.75-7.61-40.72c0,0,12.51-0.07,19.26,9.18
			c6.75,9.24,16.06,32.11,21.46,32.98c5.4,0.87-0.48-16.43-0.48-16.43s23.79,18.62,27.5,33.63
			C470.2,342.53,480.16,378.51,438.3,392.4z"/><path fill="#ffa034" d="M414.65,310.9c0,0,14.09,38.01,0.23,44.04c-5.09,2.21-14.6-9.48-14.6-9.48s-3.44,14.72,3.73,27.89
			c7.16,13.16,15.22,24.45,38.51,17.65C465.81,384.19,476.25,335.05,414.65,310.9z"/><path fill="#ffdd58" d="M425.08,340.9c0,0,5.68,18.43,1.54,27.62s-5.44,6.04-7.1,1.01c0,0-4.58,11.46,2.85,17.9
			s15.56,6.15,22.78,2.3c7.22-3.84,16.43-18.16-3.83-34.16c0,0,2.48,10.73-4.75,2.1S431.52,345.94,425.08,340.9z"/><path fill="#e03131" d="M396.6,277.51c0,0-2.17,5.54-0.19,8.18c1.99,2.64,3.31,6.82,4.27,7.94c0.86,1.01,2.24-3.21,2.27-7.39
			S396.6,277.51,396.6,277.51z"/><path fill="#e03131" d="M384.37,316.43c0,0-2.21,3.2-1.58,4.58c0.63,1.38,2.98,2.9,4.04,4.23s1.99-1.98,1.42-4
			S384.37,316.43,384.37,316.43z"/><path fill="#e03131" d="M433.96,280.5c0,0-1.76,2.34-1.04,4.34s2.19,4.69,3.47,4.44s1.6-1.94,0.38-3.48
			C435.55,284.26,433.96,280.5,433.96,280.5z"/></g><g><polygon fill="#ffbb29" points="835.38 90.57 835.38 90.57 835.37 90.57"/><path fill="#ffbb29" d="M862.08,45.13c-25.73-0.24-47.11,20.52-47.58,46.25c-0.18,9.93,2.71,19.18,7.79,26.86h0v0l0.01,0.01
				c14.04,16.69,27.16,35.86,36.86,54.05c1,1.88,3.71,1.85,4.66-0.06c8.82-17.74,25.55-37.72,37.94-55.27
				c4.43-7.19,6.99-15.65,6.99-24.71C908.76,66.38,887.9,45.38,862.08,45.13z M861.62,122.11c-5.62,0-10.87-1.55-15.36-4.25
				c-8.68-5.22-14.49-14.73-14.49-25.6c0-16.48,13.36-29.84,29.85-29.84c16.48,0,29.85,13.36,29.85,29.84
				c0,10.53-5.45,19.78-13.69,25.09C873.13,120.36,867.58,122.11,861.62,122.11z"/><path fill="#ffbb29" d="M850.61,192.91c0-6.08,4.93-11.01,11.01-11.01c6.08,0,11.01,4.93,11.01,11.01
				c0,6.08-4.93,11.01-11.01,11.01C855.54,203.92,850.61,198.99,850.61,192.91z"/></g><polygon fill="#6c39a8" points="1142.6 437.88 1128.53 433.65 1124.29 419.57 1120.05 433.65 1105.98 437.88 1120.05 442.12 1124.29 456.2 1128.53 442.12"/><polygon fill="#6c39a8" points="674.1 71.75 660.03 67.52 655.79 53.44 651.56 67.52 637.48 71.75 651.56 75.99 655.79 90.07 660.03 75.99"/><polygon fill="#e03131" points="987.32 136.14 973.25 131.91 969.01 117.83 964.77 131.91 950.7 136.14 964.77 140.38 969.01 154.46 973.25 140.38"/><polygon fill="#e03131" points="305.5 486.38 291.42 482.14 287.18 468.06 282.95 482.14 268.87 486.38 282.95 490.61 287.18 504.69 291.42 490.61"/><polygon fill="#ffbb29" points="986.62 776.43 972.55 772.19 968.31 758.12 964.07 772.19 950 776.43 964.07 780.67 968.31 794.74 972.55 780.67"/><polygon fill="#ffbb29" points="497.51 233.42 483.43 229.19 479.2 215.11 474.96 229.19 460.89 233.42 474.96 237.66 479.2 251.73 483.43 237.66"/></svg>