<svg xmlns="http://www.w3.org/2000/svg" data-name="Layer 1" viewBox="0 0 24 24" id="Business"><path d="M19.5 6H16V4.5A1.5 1.5 0 0 0 14.5 3h-5A1.5 1.5 0 0 0 8 4.5V6H4.5A2.5 2.5 0 0 0 2 8.5v10A2.5 2.5 0 0 0 4.5 21h15a2.5 2.5 0 0 0 2.5-2.5v-10A2.5 2.5 0 0 0 19.5 6ZM9 4.5a.5.5 0 0 1 .5-.5h5a.5.5 0 0 1 .5.5V6H9Zm12 14a1.5 1.5 0 0 1-1.5 1.5h-15A1.5 1.5 0 0 1 3 18.5v-6a2.45 2.45 0 0 0 1.5.5H10v.5a1.5 1.5 0 0 0 1.5 1.5h1a1.5 1.5 0 0 0 1.5-1.5V13h5.5a2.45 2.45 0 0 0 1.5-.51Zm-10-5v-1a.5.5 0 0 1 .5-.5h1a.5.5 0 0 1 .5.5v1a.5.5 0 0 1-.5.5h-1a.5.5 0 0 1-.5-.5Zm10-3a1.5 1.5 0 0 1-1.5 1.5h-5.59a1.5 1.5 0 0 0-1.41-1h-1a1.5 1.5 0 0 0-1.41 1H4.5A1.5 1.5 0 0 1 3 10.5v-2A1.5 1.5 0 0 1 4.5 7h15A1.5 1.5 0 0 1 21 8.5ZM4.6 9a.5.5 0 0 0 0 1 .5.5 0 0 0 0-1Zm15 0a.5.5 0 0 0 0 1 .5.5 0 0 0 0-1Z" fill="#ffffff" class="color000000 svgShape"></path></svg>