<svg xmlns="http://www.w3.org/2000/svg" xmlns:xlink="http://www.w3.org/1999/xlink" viewBox="0 0 5000 2000"><defs><linearGradient id="m" x1="-7273.21" x2="-7273.21" y1="1170.66" y2="888.38" gradientTransform="matrix(-1 -.07 -.07 1 -4449.48 -166.88)" gradientUnits="userSpaceOnUse"><stop offset="0"/><stop offset=".1" stop-color="#121212"/><stop offset=".31" stop-color="#414141"/><stop offset=".6" stop-color="#8c8c8c"/><stop offset=".96" stop-color="#f2f2f2"/><stop offset="1" stop-color="#fff"/></linearGradient><linearGradient id="d" x1="-6122.4" x2="-6122.4" y1="702.6" y2="663.63" gradientTransform="matrix(-1.07 -.13 -.12 .99 -4550.83 -178.86)" gradientUnits="userSpaceOnUse"><stop offset="0"/><stop offset=".14" stop-color="#040404"/><stop offset=".27" stop-color="#0e0e0e"/><stop offset=".39" stop-color="#212121"/><stop offset=".51" stop-color="#3a3a3a"/><stop offset=".63" stop-color="#5b5b5b"/><stop offset=".74" stop-color="#848484"/><stop offset=".85" stop-color="#b4b4b4"/><stop offset=".96" stop-color="#eaeaea"/><stop offset="1" stop-color="#fff"/></linearGradient><linearGradient id="E" x1="-5723.46" x2="-5723.46" y1="701.88" y2="662.91" xlink:href="#d"/><linearGradient id="p" x1="-6806.88" x2="-6230.35" y1="613.16" y2="613.16" gradientTransform="matrix(-1 -.07 -.07 1 -4449.48 -166.88)" gradientUnits="userSpaceOnUse"><stop offset="0" stop-color="#fff"/><stop offset=".25" stop-color="#c2c2c2"/><stop offset=".84" stop-color="#2a2a2a"/><stop offset="1"/></linearGradient><linearGradient id="t" x1="-6477.09" x2="-6477.09" y1="1131.58" y2="932.34" gradientTransform="matrix(-1 -.07 -.07 1 -4449.48 -166.88)" gradientUnits="userSpaceOnUse"><stop offset="0" stop-color="#fff"/><stop offset=".16" stop-color="#dbdbdb"/><stop offset=".53" stop-color="#7e7e7e"/><stop offset="1"/></linearGradient><linearGradient id="w" x1="-6869.22" x2="-6544.59" y1="1853.62" y2="1822.5" gradientTransform="matrix(-1 .03 .03 1 -4229.41 -82.61)" gradientUnits="userSpaceOnUse"><stop offset="0" stop-color="#fff"/><stop offset=".15" stop-color="#c4c4c4"/><stop offset=".32" stop-color="#898989"/><stop offset=".49" stop-color="#585858"/><stop offset=".64" stop-color="#323232"/><stop offset=".78" stop-color="#161616"/><stop offset=".91" stop-color="#060606"/><stop offset="1"/></linearGradient><linearGradient id="z" x1="-5715.69" x2="-5392.75" y1="1702.64" y2="1671.68" gradientTransform="matrix(-1 .03 .03 1 -4229.41 -82.61)" gradientUnits="userSpaceOnUse"><stop offset="0" stop-color="#fff"/><stop offset=".14" stop-color="#c9c9c9"/><stop offset=".31" stop-color="#8d8d8d"/><stop offset=".48" stop-color="#5a5a5a"/><stop offset=".64" stop-color="#333"/><stop offset=".78" stop-color="#171717"/><stop offset=".91" stop-color="#060606"/><stop offset="1"/></linearGradient><linearGradient id="G" x1="3157.94" x2="3157.94" y1="1067.06" y2="513.73" gradientUnits="userSpaceOnUse"><stop offset="0" stop-color="#00abb4"/><stop offset=".1" stop-color="#05adb4"/><stop offset=".23" stop-color="#14b2b3"/><stop offset=".36" stop-color="#2cbab3"/><stop offset=".5" stop-color="#4ec5b2"/><stop offset=".65" stop-color="#7ad3b0"/><stop offset=".81" stop-color="#b0e5ae"/><stop offset=".96" stop-color="#eef9ad"/><stop offset="1" stop-color="#ffffac"/></linearGradient><linearGradient id="H" x1="4655.72" x2="4655.72" y1="1067.06" y2="552.71" gradientTransform="translate(-60.46)" gradientUnits="userSpaceOnUse"><stop offset="0" stop-color="#00abb4"/><stop offset=".09" stop-color="#0aaeb4"/><stop offset=".23" stop-color="#26b7b3"/><stop offset=".42" stop-color="#53c6b1"/><stop offset=".65" stop-color="#91dbaf"/><stop offset=".9" stop-color="#e0f5ad"/><stop offset="1" stop-color="#ffffac"/></linearGradient><linearGradient id="I" x1="1476.48" x2="1476.48" y1="1067.06" y2="308.62" gradientUnits="userSpaceOnUse"><stop offset="0" stop-color="#ffffac"/><stop offset=".1" stop-color="#eefaad"/><stop offset=".29" stop-color="#c3ebae"/><stop offset=".56" stop-color="#7dd4b0"/><stop offset=".9" stop-color="#1eb5b3"/><stop offset="1" stop-color="#00abb4"/></linearGradient><linearGradient id="J" x1="3901.15" x2="3901.15" y1="1052.06" y2="489.13" gradientUnits="userSpaceOnUse"><stop offset="0" stop-color="#00abb4"/><stop offset=".1" stop-color="#05adb4"/><stop offset=".22" stop-color="#15b2b3"/><stop offset=".36" stop-color="#2fbbb3"/><stop offset=".51" stop-color="#53c6b1"/><stop offset=".67" stop-color="#82d6b0"/><stop offset=".83" stop-color="#bbe9ae"/><stop offset="1" stop-color="#fdfeac"/><stop offset="1" stop-color="#ffffac"/></linearGradient><linearGradient id="K" x2="5000" y1="1264.67" y2="1264.67" gradientUnits="userSpaceOnUse"><stop offset="0" stop-color="#f2b6ae"/><stop offset=".67" stop-color="#f3d9bf"/><stop offset="1" stop-color="#f3ebc8"/></linearGradient><linearGradient id="j" x1="2020.98" x2="2020.98" y1="2539.75" y2="2502.64" gradientTransform="matrix(.97 -.26 .26 .97 1295.71 -484.9)" gradientUnits="userSpaceOnUse"><stop offset="0"/><stop offset="1" stop-color="#e6e7e8"/></linearGradient><linearGradient id="i" x1="2024.23" x2="2024.23" y1="2534.68" y2="2508" gradientTransform="matrix(.97 -.26 .26 .97 1295.71 -484.9)" gradientUnits="userSpaceOnUse"><stop offset="0" stop-color="#e6e7e8"/><stop offset="1"/></linearGradient><linearGradient id="L" x1="2001.21" x2="2001.21" y1="2678.45" y2="2354.66" xlink:href="#i"/><linearGradient id="M" x1="1801.48" x2="1801.48" y1="2581.35" y2="2521.42" xlink:href="#j"/><linearGradient id="N" x1="1806.72" x2="1806.72" y1="2573.17" y2="2529.97" xlink:href="#i"/><linearGradient id="O" x1="1805.2" x2="1805.2" y1="2637.58" y2="2548.63" gradientTransform="matrix(.97 -.26 .26 .97 1295.71 -484.9)" gradientUnits="userSpaceOnUse"><stop offset="0" stop-color="#e6e7e8"/><stop offset=".1" stop-color="#e1e2e3"/><stop offset=".24" stop-color="#d1d2d3"/><stop offset=".38" stop-color="#b8b9ba"/><stop offset=".54" stop-color="#949596"/><stop offset=".7" stop-color="#676768"/><stop offset=".87" stop-color="#303031"/><stop offset="1"/></linearGradient><linearGradient id="P" x1="1527.25" x2="1527.25" y1="2582.05" y2="2535.41" xlink:href="#j"/><linearGradient id="Q" x1="1531.32" x2="1531.32" y1="2575.68" y2="2542.06" xlink:href="#i"/><linearGradient id="R" x1="1504.72" x2="1504.72" y1="2724.8" y2="2382.31" xlink:href="#i"/><linearGradient id="S" x1="-7068.98" x2="-7068.98" y1="1448.18" y2="1313.71" gradientTransform="matrix(-1 -.07 -.07 1 -4449.48 -166.88)" xlink:href="#j"/><linearGradient id="T" x1="-7069.01" x2="-7069.01" y1="1445" y2="1317.4" gradientTransform="matrix(-1 -.07 -.07 1 -4449.48 -166.88)" xlink:href="#i"/><linearGradient id="U" x1="-7059.08" x2="-7059.08" y1="1404.33" y2="1362.2" gradientTransform="matrix(-1 -.07 -.07 1 -4449.48 -166.88)" xlink:href="#j"/><linearGradient id="V" x1="-7055.39" x2="-7055.39" y1="1398.58" y2="1368.3" gradientTransform="matrix(-1 -.07 -.07 1 -4449.48 -166.88)" xlink:href="#i"/><linearGradient id="W" x1="-5903.98" x2="-5903.98" y1="1397.63" y2="1263.16" gradientTransform="matrix(-1 -.07 -.07 1 -4449.48 -166.88)" xlink:href="#j"/><linearGradient id="X" x1="-5904.01" x2="-5904.01" y1="1394.45" y2="1266.85" gradientTransform="matrix(-1 -.07 -.07 1 -4449.48 -166.88)" xlink:href="#i"/><linearGradient id="Y" x1="-5894.09" x2="-5894.09" y1="1353.78" y2="1311.65" gradientTransform="matrix(-1 -.07 -.07 1 -4449.48 -166.88)" xlink:href="#j"/><linearGradient id="Z" x1="-5890.4" x2="-5890.4" y1="1348.03" y2="1317.75" gradientTransform="matrix(-1 -.07 -.07 1 -4449.48 -166.88)" xlink:href="#i"/><linearGradient id="q" x1="-7273.21" x2="-7273.21" y1="1170.66" y2="888.38" gradientTransform="matrix(-1 -.07 -.07 1 -4449.48 -166.88)" gradientUnits="userSpaceOnUse"><stop offset="0" stop-color="#fff"/><stop offset="1" stop-color="#fff"/></linearGradient><linearGradient id="ac" x1="-6806.88" x2="-6230.35" y1="613.16" y2="613.16" xlink:href="#q"/><linearGradient id="ae" x1="-6477.09" x2="-6477.09" y1="1131.58" y2="936.13" xlink:href="#q"/><linearGradient id="ag" x1="-6869.11" x2="-6544.48" y1="1854.82" y2="1823.7" gradientTransform="matrix(-1 .03 .03 1 -4229.41 -82.61)" xlink:href="#q"/><linearGradient id="ai" x1="-5715.55" x2="-5392.62" y1="1704.04" y2="1673.08" gradientTransform="matrix(-1 .03 .03 1 -4229.41 -82.61)" xlink:href="#q"/><linearGradient id="F" x1="-6122.4" x2="-6122.4" y1="702.6" y2="663.63" gradientTransform="matrix(-1.07 -.13 -.12 .99 -4550.83 -178.86)" gradientUnits="userSpaceOnUse"><stop offset="0"/><stop offset=".94"/><stop offset="1"/></linearGradient><linearGradient id="al" x1="-5723.46" x2="-5723.46" y1="701.88" y2="662.91" xlink:href="#F"/><filter id="a" width="599.74" height="32766" x="2439.22" y="-9192" color-interpolation-filters="sRGB" filterUnits="userSpaceOnUse"><feFlood flood-color="#fff" result="bg"/><feBlend in="SourceGraphic" in2="bg"/></filter><filter id="b" width="73.31" height="32766" x="1860.23" y="-9192" color-interpolation-filters="sRGB" filterUnits="userSpaceOnUse"><feFlood flood-color="#fff" result="bg"/><feBlend in="SourceGraphic" in2="bg"/></filter><filter id="c" width="73.31" height="32766" x="1435.01" y="-9192" color-interpolation-filters="sRGB" filterUnits="userSpaceOnUse"><feFlood flood-color="#fff" result="bg"/><feBlend in="SourceGraphic" in2="bg"/></filter><filter id="e" width="570.28" height="32766" x="1728.57" y="-9192" color-interpolation-filters="sRGB" filterUnits="userSpaceOnUse"><feFlood flood-color="#fff" result="bg"/><feBlend in="SourceGraphic" in2="bg"/></filter><filter id="f" width="1815.05" height="32766" x="1036.07" y="-9192" color-interpolation-filters="sRGB" filterUnits="userSpaceOnUse"><feFlood flood-color="#fff" result="bg"/><feBlend in="SourceGraphic" in2="bg"/></filter><filter id="g" width="324.96" height="32766" x="2360.77" y="-9192" color-interpolation-filters="sRGB" filterUnits="userSpaceOnUse"><feFlood flood-color="#fff" result="bg"/><feBlend in="SourceGraphic" in2="bg"/></filter><filter id="h" width="322.93" height="32766" x="1205.5" y="-9192" color-interpolation-filters="sRGB" filterUnits="userSpaceOnUse"><feFlood flood-color="#fff" result="bg"/><feBlend in="SourceGraphic" in2="bg"/></filter><filter id="l" width="599.95" height="322.44" x="2439.22" y="1182.27" color-interpolation-filters="sRGB" filterUnits="userSpaceOnUse"><feFlood flood-color="#fff" result="bg"/><feBlend in="SourceGraphic" in2="bg"/></filter><filter id="o" width="570.28" height="115.63" x="1728.57" y="824.27" color-interpolation-filters="sRGB" filterUnits="userSpaceOnUse"><feFlood flood-color="#fff" result="bg"/><feBlend in="SourceGraphic" in2="bg"/></filter><filter id="s" width="1815.05" height="304.53" x="1036.07" y="1148.51" color-interpolation-filters="sRGB" filterUnits="userSpaceOnUse"><feFlood flood-color="#fff" result="bg"/><feBlend in="SourceGraphic" in2="bg"/></filter><filter id="v" width="324.96" height="197.19" x="2360.77" y="1464.6" color-interpolation-filters="sRGB" filterUnits="userSpaceOnUse"><feFlood flood-color="#fff" result="bg"/><feBlend in="SourceGraphic" in2="bg"/></filter><filter id="y" width="322.93" height="184.64" x="1205.5" y="1353.47" color-interpolation-filters="sRGB" filterUnits="userSpaceOnUse"><feFlood flood-color="#fff" result="bg"/><feBlend in="SourceGraphic" in2="bg"/></filter><filter id="B" width="73.31" height="39.89" x="1860.23" y="1249.8" color-interpolation-filters="sRGB" filterUnits="userSpaceOnUse"><feFlood flood-color="#fff" result="bg"/><feBlend in="SourceGraphic" in2="bg"/></filter><filter id="D" width="73.31" height="39.89" x="1435.01" y="1198.85" color-interpolation-filters="sRGB" filterUnits="userSpaceOnUse"><feFlood flood-color="#fff" result="bg"/><feBlend in="SourceGraphic" in2="bg"/></filter><mask id="aa" width="599.95" height="322.44" x="2439.22" y="1182.27" maskUnits="userSpaceOnUse"><g filter="url(#l)" mask="url(#k)"><path d="M2513.22,1206.34c35.2,5.94,457.69,78.86,516.41,241.92,6.25,17.37,9.15,36.84,9.33,56.44-5.84-1-11.62-2.1-17.3-3.15a155.92,155.92,0,0,0-8.8-38.47c-61.69-163.25-523.07-243.44-559.79-249.49-7.8-12.4-21.65-22.62-8.25-31.32l55.85,3.71C2504.93,1192.76,2509.14,1199.54,2513.22,1206.34Z" style="mix-blend-mode:multiply" fill="url(#m)"/></g></mask><mask id="ab" width="570.28" height="115.63" x="1728.57" y="824.27" maskUnits="userSpaceOnUse"><g filter="url(#o)" mask="url(#n)"><path d="M2192.33,873.23c30.16,7.67,67.14,31.82,106.52,66.67l-75.4-5c-33.1-25.6-63.94-43.22-89.91-49.62-149.6-36.88-292.38-54.89-405-58.45C1843.35,819.65,2004.17,825.38,2192.33,873.23Z" style="mix-blend-mode:multiply" fill="url(#p)"/></g></mask><mask id="ad" width="1815.05" height="304.53" x="1036.07" y="1148.51" maskUnits="userSpaceOnUse"><g filter="url(#s)" mask="url(#r)"><path d="M2267.48,1319.79,1036.07,1169.9c44.44-26,211.19-23.29,296.68-17.58,53.41,3.56,646.79,68.18,943.38,118.1,525.72,88.49,544.32,152.47,575,182.62C2782.75,1409.71,2717,1377.63,2267.48,1319.79Z" style="mix-blend-mode:multiply" fill="url(#t)"/></g></mask><mask id="af" width="324.96" height="197.19" x="2360.77" y="1464.6" maskUnits="userSpaceOnUse"><g filter="url(#v)" mask="url(#u)"><path d="M2360.77,1621.33c9-86.3,74.86-154.27,156.75-156.66,90-2.62,165.26,74.93,168.13,173.23.16,5.65.06,11.25-.26,16.78l-46.09,7.11c.42-4.83,1.52-21.47,1.37-26.44a126.18,126.18,0,0,0-129.8-122.45c-63.4,1.85-114.09,64.12-121.23,125.3Z" style="mix-blend-mode:multiply" fill="url(#w)"/></g></mask><mask id="ah" width="322.93" height="184.64" x="1205.5" y="1353.47" maskUnits="userSpaceOnUse"><g filter="url(#y)" mask="url(#x)"><path d="M1205.5,1496.45c14.21-79.66,77.3-140.66,154.8-142.92,90-2.62,165.25,74.94,168.12,173.23,0,1,0,1.91,0,2.88l-48.37,8.47c.21-3.65-.09-20.82-.2-24.55a126.19,126.19,0,0,0-129.8-122.45c-62.15,1.81-112,62.14-120.74,121.61Z" style="mix-blend-mode:multiply" fill="url(#z)"/></g></mask><mask id="aj" width="73.31" height="39.89" x="1860.23" y="1249.8" maskUnits="userSpaceOnUse"><g filter="url(#B)" mask="url(#A)"><path d="M1860.4,1259.71c-1,8.21,1.31,26.55,31.48,29.76,21.7,2.31,40.65-14.16,41.62-22.37s-16.6-13.91-38.27-16.47S1861.37,1251.49,1860.4,1259.71Z" style="mix-blend-mode:multiply" fill="url(#d)"/></g></mask><mask id="ak" width="73.31" height="39.89" x="1435.01" y="1198.85" maskUnits="userSpaceOnUse"><g filter="url(#D)" mask="url(#C)"><path d="M1435.18,1208.76c-1,8.21,1.31,26.56,31.48,29.76,21.7,2.31,40.65-14.15,41.62-22.37s-16.6-13.91-38.27-16.47S1436.15,1200.55,1435.18,1208.76Z" style="mix-blend-mode:multiply" fill="url(#E)"/></g></mask></defs><g style="isolation:isolate"><path d="M2971.43,779.94c.11.68.23,1.34.37,2l-1.2.19c1.27,2.89,2.91,5.54,3.78,8.58l-1.15.3c16,34.47,64.35,51.89,102.69,37.9.3.83.6,1.66.95,2.46l1-.26c.33.68.68,1.36,1.05,2l7.72-2.95a44.52,44.52,0,0,0,2.6,4.24l-8.74,3.67a49.12,49.12,0,0,0,9.32,10.8l1.26-1.29c.76.61,1.53,1.21,2.33,1.77l4.64-5.7c1,.78,2,1.51,3.12,2.2l-5.56,7.32a49,49,0,0,0,12.26,5.59l.57-2.18c1.27.36,2.56.68,3.87.94l1-6.38c.84.22,1.7.4,2.57.57l-1.09,8.57a43.57,43.57,0,0,0,11.8.17c7.22,10,13.36,19,18,26.17,7.7,47.77-6.15,174.2-12.11,180.41h52.16c1.45-7.36-26.81-182.56-16.66-215.12.56-.12,1.13-.22,1.68-.35,7.8,13,28.35,50.18,34.7,61.68,2.37,23.32-13.89,150.65-14,153.79h38.07c-4.35-5.59-14.45-96-8.83-131.7,10.34-16,21.54-30.69,36.31-48.89,27.52,19.72,75.42,9.33,88.78-20.93l-.84-.21a48.5,48.5,0,0,1,2.76-6.27l-.88-.14c.1-.48.2-1,.28-1.46l1.95.25a56,56,0,0,0,1.62-25.27l-4.73,1.81c-.12-.71-.25-1.41-.41-2.11l4.22-1.77a49,49,0,0,0-2.13-6.29l.76-.41a48.65,48.65,0,0,0-10.68-17.07l-3.78,4.66c-.77-.76-1.58-1.49-2.4-2.19l2.64-3.48a46.48,46.48,0,0,0-4.64-3.49l1-1.65a48.86,48.86,0,0,0-19.29-8.1l-1,6a35.1,35.1,0,0,0-4.35-1.27l.39-3.05c-.33,0-.67,0-1,0a76.28,76.28,0,0,0,6.45-17.83c1.27-.7,2.6-1.3,3.82-2.07l-2.85-3.75a72.67,72.67,0,0,0,.68-7.85l5.18,6.38c1.09-.78,2.15-1.59,3.19-2.43l1.72,1.76a67.66,67.66,0,0,0,12.78-14.78l-12-5a55.32,55.32,0,0,0,3.57-5.8l10.57,4c.51-.92,1-1.85,1.45-2.79l1.31.36a66.85,66.85,0,0,0,5.3-21l-12.59,1.59c.5-2.65.12-5.49,1.38-8l11.46-1.83a66.78,66.78,0,0,0-4.17-24.06l-1,.64c-.45-1.08-.92-2.15-1.43-3.2l-2.6,2a50,50,0,0,0-2.08-8.81l1.88-1.53c-5.76-8.58-11.87-17.3-20.2-23.6l-.95,1.79c-1-.69-2-1.36-3-2l-2.73,6.51a46.11,46.11,0,0,0-4.55-2.83l2.4-6.29c-.09,0-.19-.08-.28-.12l.78-2.05a51.05,51.05,0,0,0-21.11-4.84l0,1.16a50.13,50.13,0,0,0-7.12-.5l.1,3.19c-.81,0-1.63,0-2.44,0l-.49-3.06a50.65,50.65,0,0,0-9.86,2.9l-.32-2c-1.46.27-2.87.68-4.29,1,3.68-55-38.52-85.2-77.2-115.37l-2,3.68c-2-1.42-4.11-2.8-6.26-4.08l-2.15,5.12c-3.8-1-7.67-1.89-11.62-2.58l4.74-12.39a105.13,105.13,0,0,0-43.52-10l.16,5a95.29,95.29,0,0,0-10,.33l1.42,11.14a93.27,93.27,0,0,0-9.52.78l-2.49-15.56a105.22,105.22,0,0,0-41.53,17.45l2.2,3.53a106.45,106.45,0,0,0-10,7.52l5.7,7.5q-2.67,2.26-5.18,4.71l-8.14-10a105,105,0,0,0-23,36.74l1.64.88a103.55,103.55,0,0,0-4.6,13.53l7.22,3q-1,2.09-2,4.21l-7.23-2.77c-2.55,30.22-4.74,63.88,9.7,91.26l-1.38.06.53,4.18a46.7,46.7,0,0,0-6,1.75l-1.32-8.25a66.92,66.92,0,0,0-26.43,11.11l1.4,2.25a65.86,65.86,0,0,0-6.35,4.78l3.62,4.78q-1.71,1.43-3.29,3l-5.19-6.38a66.89,66.89,0,0,0-14.62,23.38l1,.56a64.62,64.62,0,0,0-2.93,8.61l5.78,2.43c-.21,1-.4,1.92-.56,2.9l-6.48-2.48c-1.78,11.41-1.27,23.8,2.22,34.62Zm248.91,143.42c1.27-20.54,2.9-41.7,4.36-59.43a81.45,81.45,0,0,0,9-.68l-1-3.6c1.23-.16,2.41-.44,3.62-.65,2.05,9.86,8,18.62,16.5,25.21C3246.83,891.86,3232,909.52,3220.34,923.36Zm-46.84-72.79a65.92,65.92,0,0,0,12.29-5l-4.71,6.19a78.3,78.3,0,0,0,19.05,8.75c1.12,12.73,2.23,25.75,3.08,36.64C3192.68,882.61,3184.48,869.33,3173.5,850.57Zm-29.87,19.64c-3.5-4.14-7.2-8.53-10.94-13l.23,0-2-5.31c.56-.09,1.12-.19,1.67-.31l3,7.25a48.42,48.42,0,0,0,7.12-2.72C3143,860.81,3143.34,865.53,3143.63,870.21Z" style="mix-blend-mode:multiply" fill="url(#G)" fill-rule="evenodd" opacity=".5"/><path d="M4421.89,800.17c.1.62.22,1.24.35,1.86l-1.12.17c1.17,2.69,2.7,5.15,3.51,8l-1.06.27c14.86,32,59.81,48.25,95.45,35.24.28.77.56,1.54.88,2.29l.89-.25c.31.64.64,1.27,1,1.89l7.18-2.74a37.81,37.81,0,0,0,2.42,3.94l-8.13,3.41a45.66,45.66,0,0,0,8.66,10l1.17-1.19c.71.57,1.43,1.12,2.17,1.65l4.31-5.31c.93.73,1.9,1.41,2.9,2.05l-5.17,6.8a45.15,45.15,0,0,0,11.4,5.2l.53-2c1.18.33,2.38.63,3.59.87l.95-5.93c.79.2,1.59.37,2.39.52l-1,8a40.3,40.3,0,0,0,11,.16c6.71,9.27,12.41,17.67,16.75,24.33,7.15,44.4-5.72,161.93-11.25,167.7h48.48c1.34-6.85-24.92-169.7-15.49-200,.52-.1,1.05-.2,1.57-.32,7.24,12.13,26.34,46.64,32.25,57.33,2.2,21.68-12.91,140-13,143h35.38c-4-5.2-13.43-89.27-8.21-122.42,9.62-14.88,20-28.53,33.76-45.45,25.58,18.34,70.1,8.67,82.52-19.45l-.78-.2a46.42,46.42,0,0,1,2.56-5.83l-.81-.12c.09-.46.18-.91.25-1.36l1.82.23a52.14,52.14,0,0,0,1.51-23.49l-4.4,1.68c-.11-.66-.24-1.31-.38-2l3.92-1.65a44.7,44.7,0,0,0-2-5.85l.71-.37a45.32,45.32,0,0,0-9.93-15.87l-3.51,4.33c-.72-.71-1.47-1.38-2.24-2l2.46-3.24a45.43,45.43,0,0,0-4.31-3.25l.95-1.52a45.34,45.34,0,0,0-17.94-7.54l-.89,5.59a32.33,32.33,0,0,0-4-1.18l.36-2.84-.93,0a71,71,0,0,0,6-16.57c1.18-.64,2.41-1.2,3.54-1.92l-2.64-3.49a70.24,70.24,0,0,0,.63-7.29l4.81,5.92c1-.72,2-1.48,3-2.26l1.6,1.64a62.37,62.37,0,0,0,11.87-13.74l-11.13-4.68a53.62,53.62,0,0,0,3.31-5.39l9.83,3.75c.47-.85.91-1.72,1.35-2.59l1.21.34a61.85,61.85,0,0,0,4.93-19.56l-11.71,1.49c.47-2.47.11-5.11,1.29-7.43l10.65-1.7a62,62,0,0,0-3.87-22.36l-1,.6c-.42-1-.86-2-1.33-3l-2.42,1.83a46.93,46.93,0,0,0-1.93-8.19l1.75-1.42c-5.36-8-11-16.08-18.78-21.94l-.89,1.66c-.92-.64-1.85-1.26-2.82-1.84l-2.54,6.06a39.85,39.85,0,0,0-4.23-2.63l2.24-5.85a1.53,1.53,0,0,0-.27-.11l.73-1.91a47.49,47.49,0,0,0-19.63-4.5l0,1.08a47.43,47.43,0,0,0-6.62-.47l.1,3a21.45,21.45,0,0,0-2.27,0l-.46-2.85a48.08,48.08,0,0,0-9.16,2.7l-.3-1.85c-1.35.25-2.66.63-4,1,3.66-50.62-36-79.56-71.76-107.24l-1.83,3.42c-1.9-1.33-3.82-2.61-5.82-3.79l-2,4.76q-5.31-1.44-10.8-2.41l4.4-11.51a97.75,97.75,0,0,0-40.46-9.28l.16,4.67a84.77,84.77,0,0,0-9.31.31l1.31,10.35a85.66,85.66,0,0,0-8.84.72l-2.31-14.46a97.94,97.94,0,0,0-38.61,16.22l2,3.29a97.37,97.37,0,0,0-9.28,7l5.3,7c-1.66,1.39-3.27,2.85-4.81,4.37l-7.58-9.32A97.7,97.7,0,0,0,4470.65,617l1.53.82a95.49,95.49,0,0,0-4.28,12.58l6.71,2.81c-.64,1.3-1.25,2.6-1.83,3.91l-6.72-2.57c-2.37,28.09-4.41,59.38,9,84.83-.42,0-.85,0-1.27.06l.49,3.88a43.38,43.38,0,0,0-5.53,1.63l-1.23-7.67A62.25,62.25,0,0,0,4443,727.58l1.3,2.09a60.74,60.74,0,0,0-5.9,4.45l3.36,4.43q-1.57,1.34-3.06,2.79l-4.82-5.94a62,62,0,0,0-13.58,21.74l1,.52a60.77,60.77,0,0,0-2.73,8l5.38,2.26c-.2.89-.37,1.79-.53,2.69l-6-2.3c-1.65,10.6-1.18,22.12,2.06,32.18Zm231.37,133.32c1.19-19.1,2.7-38.77,4.06-55.25a74.94,74.94,0,0,0,8.4-.63l-.94-3.35c1.15-.14,2.24-.41,3.36-.6,1.91,9.16,7.43,17.3,15.35,23.43C4677.89,904.21,4664.13,920.61,4653.26,933.49Zm-43.54-67.67a61.13,61.13,0,0,0,11.42-4.62l-4.37,5.75a72.34,72.34,0,0,0,17.71,8.14c1,11.83,2.07,23.93,2.86,34C4627.55,895.6,4619.93,883.26,4609.72,865.82ZM4582,884.08c-3.26-3.85-6.7-7.93-10.17-12.07l.21,0-1.88-4.93c.52-.09,1-.18,1.55-.29l2.83,6.74a45.77,45.77,0,0,0,6.61-2.53Q4581.55,877.53,4582,884.08Z" style="mix-blend-mode:multiply" fill="url(#H)" fill-rule="evenodd" opacity=".5"/><polygon points="290.96 876.65 290.96 673.7 529.8 673.7 529.8 876.65 567.32 876.65 567.32 859.1 577.62 859.1 577.62 372.64 899.66 372.64 899.66 637.43 957.79 637.43 957.79 859.1 1010.02 859.1 1010.02 308.62 1361.75 308.62 1361.75 859.1 1452.71 859.1 1452.71 986.32 1638.5 986.32 1638.5 881.55 1719.64 881.55 1719.64 390.51 2033.4 390.51 2033.4 881.55 2079.98 881.55 2079.98 683.82 2131.84 683.82 2131.84 447.62 2419.1 447.62 2419.1 881.55 2428.29 881.55 2428.29 897.21 2461.76 897.21 2461.76 716.17 2674.82 716.17 2674.82 897.21 2780.66 897.21 2780.66 1067.06 172.3 1067.06 172.3 876.65 290.96 876.65" style="mix-blend-mode:multiply" fill="url(#I)" opacity=".5"/><path d="M4395.71,916.11a36.23,36.23,0,0,0,1-16.32L4393.7,901c-.08-.46-.17-.91-.27-1.37l2.73-1.14a32.31,32.31,0,0,0-1.38-4.06l.49-.26a31.51,31.51,0,0,0-6.89-11l-2.45,3c-.49-.49-1-1-1.55-1.41l1.71-2.25a33,33,0,0,0-3-2.26l.65-1.06a31.37,31.37,0,0,0-12.46-5.23l-.62,3.88a22,22,0,0,0-2.8-.82l.25-2-.65,0a49.79,49.79,0,0,0,4.17-11.51c.82-.45,1.68-.84,2.46-1.34l-1.84-2.42a46.82,46.82,0,0,0,.44-5.07l3.35,4.12c.7-.5,1.38-1,2.05-1.57l1.12,1.14a43.81,43.81,0,0,0,8.25-9.55l-7.74-3.25a37.7,37.7,0,0,0,2.31-3.75l6.82,2.61c.33-.59.64-1.19.94-1.8l.84.24a43,43,0,0,0,3.42-13.59l-8.13,1c.33-1.71.08-3.55.9-5.16l7.4-1.18a43,43,0,0,0-2.7-15.53l-.66.41q-.44-1-.93-2.07l-1.67,1.28a32.86,32.86,0,0,0-1.35-5.7l1.22-1c-3.72-5.54-7.67-11.18-13.05-15.24l-.61,1.15c-.64-.44-1.29-.88-2-1.28l-1.77,4.21a27.76,27.76,0,0,0-2.94-1.83l1.56-4.06-.19-.08.51-1.32a32.89,32.89,0,0,0-13.64-3.13l0,.75a33.89,33.89,0,0,0-4.6-.33l.07,2.07a13.84,13.84,0,0,0-1.58,0l-.32-2a32.57,32.57,0,0,0-6.36,1.87l-.21-1.28c-.94.17-1.85.43-2.77.66,2.7-34.77-25.23-55.54-49.86-74.5l-1.27,2.38c-1.32-.92-2.66-1.81-4-2.64l-1.39,3.31c-1.32-.36-2.68-.6-4-.89a255.32,255.32,0,0,0-.34-50.44l-6.12,2.33c-.52-1.2-1.08-2.38-1.65-3.55l6.1-2.56a90.57,90.57,0,0,0-3.89-11.44l1.38-.74a88.62,88.62,0,0,0-19.41-31.06l-6.89,8.48c-1.41-1.39-2.87-2.71-4.38-4l4.82-6.34a88.71,88.71,0,0,0-8.44-6.36l1.86-3a88.87,88.87,0,0,0-35.11-14.75l-2.1,13.15a76,76,0,0,0-8-.66l1.19-9.41a76.73,76.73,0,0,0-8.46-.28l.14-4.25a88.82,88.82,0,0,0-36.79,8.44l4,10.47c-3.33.58-6.6,1.32-9.82,2.18l-1.81-4.33c-1.82,1.09-3.57,2.25-5.29,3.45l-1.67-3.11c-32.46,25.16-68.59,51.51-65.25,97.52-1.21-.31-2.4-.65-3.63-.88l-.27,1.68a43.64,43.64,0,0,0-8.33-2.45l-.42,2.59a17.67,17.67,0,0,0-2.06,0l.09-2.7a40.54,40.54,0,0,0-6,.43l0-1a43,43,0,0,0-17.84,4.09l.66,1.73-.25.1,2,5.32a39.9,39.9,0,0,0-3.85,2.39l-2.31-5.5c-.88.52-1.73,1.09-2.56,1.68l-.81-1.52a47.22,47.22,0,0,0-10.84,11.46c-1.12-.77-2.24-1.53-3.41-2.22l-1.36,3.23c-2.4-.64-4.85-1.19-7.34-1.63l3-7.83a66.51,66.51,0,0,0-21.19-5.9c-.18-1.62-.38-3.22-.65-4.81l-5.5,2.11c-.47-1.09-1-2.15-1.49-3.2l5.49-2.31a79.34,79.34,0,0,0-3.5-10.29l1.24-.67a79.77,79.77,0,0,0-17.47-28l-6.2,7.63q-1.89-1.86-3.93-3.58l4.33-5.7a79.72,79.72,0,0,0-7.59-5.72l1.67-2.69a80,80,0,0,0-31.59-13.27L3920,643.4a68.87,68.87,0,0,0-7.23-.59l1.07-8.47a68.86,68.86,0,0,0-7.61-.26l.12-3.81a79.91,79.91,0,0,0-33.1,7.58l3.6,9.43c-3,.52-5.95,1.18-8.84,2l-1.63-3.89c-1.41.84-2.76,1.75-4.11,2.68a56.27,56.27,0,0,0-13.05-13.79l-1,1.81c-1-.7-2-1.38-3.08-2l-2.79,6.62a46.41,46.41,0,0,0-4.62-2.88l2.44-6.4-.29-.12.8-2.08a51.81,51.81,0,0,0-21.48-4.93l0,1.19a49,49,0,0,0-7.24-.52l.1,3.25a23,23,0,0,0-2.49,0l-.5-3.11a50.92,50.92,0,0,0-10,2.95l-.33-2c-1.48.27-2.91.68-4.37,1.05,3.76-56-39.18-86.68-78.54-117.37l-2,3.74c-2.07-1.45-4.18-2.85-6.36-4.15l-2.19,5.21q-5.8-1.56-11.82-2.63l4.81-12.6A106.69,106.69,0,0,0,3654,489.13l.17,5.1a95.93,95.93,0,0,0-10.19.34l1.44,11.33a90.88,90.88,0,0,0-9.68.8l-2.53-15.83A107,107,0,0,0,3591,508.62l2.23,3.59a108.35,108.35,0,0,0-10.16,7.65l5.8,7.63c-1.82,1.53-3.57,3.13-5.27,4.79l-8.28-10.2a106.8,106.8,0,0,0-23.37,37.38l1.67.89a105.76,105.76,0,0,0-4.69,13.77l7.35,3.08c-.7,1.42-1.37,2.84-2,4.28l-7.36-2.81a132.24,132.24,0,0,0-.94,33.25,102.13,102.13,0,0,0,.53,27.45c-1.62.36-3.27.65-4.85,1.08l-1.67-4c-1.67,1-3.28,2.07-4.87,3.17l-1.53-2.86c-29.63,22.81-63.26,47.83-60,89.67-1.11-.28-2.21-.59-3.34-.8l-.25,1.55a39.75,39.75,0,0,0-7.66-2.26l-.38,2.38a17.21,17.21,0,0,0-1.9,0l.08-2.48a38,38,0,0,0-5.53.39l0-.9a39.5,39.5,0,0,0-16.41,3.76l.6,1.59-.22.09,1.87,4.89a35.36,35.36,0,0,0-3.53,2.2l-2.13-5.06c-.81.48-1.59,1-2.36,1.54l-.74-1.39c-6.47,4.9-11.22,11.68-15.7,18.35l1.46,1.18a39.26,39.26,0,0,0-1.62,6.85l-2-1.53q-.59,1.23-1.11,2.49l-.8-.5a51.85,51.85,0,0,0-3.24,18.7l8.9,1.42c1,1.94.69,4.15,1.08,6.21l-9.79-1.24A51.94,51.94,0,0,0,3413,800.2l1-.28c.36.73.74,1.46,1.13,2.17l8.21-3.14a46.26,46.26,0,0,0,2.78,4.51l-9.32,3.91a52.46,52.46,0,0,0,9.93,11.49l1.34-1.37c.81.65,1.64,1.29,2.48,1.89l4-5a58.52,58.52,0,0,0,.52,6.11l-2.21,2.91c.95.6,2,1.07,3,1.61a59,59,0,0,0,5,13.85l-.78,0,.3,2.37a25.74,25.74,0,0,0-3.38,1l-.75-4.68a38.16,38.16,0,0,0-15,6.3l.8,1.28a40,40,0,0,0-3.61,2.71l2.06,2.71c-.65.55-1.27,1.11-1.87,1.7l-2.94-3.62a38,38,0,0,0-8.3,13.27l.59.32a38,38,0,0,0-1.66,4.89l3.29,1.37c-.13.55-.23,1.09-.33,1.64l-3.67-1.4a43.53,43.53,0,0,0,1.26,19.64l1.52-.19c.06.38.13.75.21,1.13l-.68.11a38.27,38.27,0,0,1,2.14,4.87l-.65.16c10.37,23.53,47.63,31.6,69,16.27,11.46,14.13,20.19,25.57,28.23,38,4.37,27.14-3.5,98.83-6.87,102.37h29.59c-.1-3.24-12.66-100.82-10.85-119.54,4.94-8.94,20.91-37.8,27-47.94.43.1.87.18,1.31.27,8,24.57-14.17,162.48-12.95,167.21h40.54c-4.69-5.76-15.35-102.38-9.41-140.23,3.62-5.57,8.39-12.59,14-20.34a33.92,33.92,0,0,0,9.17-.13l-.84-6.67c.67-.12,1.34-.27,2-.43l.79,4.95c1-.2,2-.44,3-.73l.44,1.7a38,38,0,0,0,9.53-4.35l-4.32-5.69c.84-.53,1.64-1.1,2.43-1.71l3.6,4.44c.62-.44,1.22-.91,1.81-1.38l1,1a38.52,38.52,0,0,0,7.25-8.39l-6.8-2.86a33.29,33.29,0,0,0,2-3.29l6,2.29c.29-.52.56-1.05.82-1.58l.74.21c.27-.63.51-1.27.75-1.91,16.23,5.8,37.67,4.56,52.71-3,17.05,45.55-4.69,182.31-8.68,189h53.06c1.5-5.85-26.53-183.41-17.28-215.48l-.89-.23a23.45,23.45,0,0,1,1.22-3.14c.57-.12,1.15-.22,1.71-.36,7.93,13.28,28.84,51,35.3,62.75,2.42,23.74-14.12,153.27-14.2,156.46h38.74c-3.06-5.75-18.54-103.75-6.5-137.77,14.25,9.73,38.58,9.5,52.57-.5,11.22,13.82,19.76,25,27.62,37.19,4.28,26.55-3.42,96.71-6.72,100.17h29c-.1-3.17-12.39-98.66-10.62-117,4.83-8.75,20.46-37,26.39-46.91l1.28.26c7.78,24-13.86,159-12.67,163.63h39.67c-4.59-5.64-15-100.19-9.21-137.23,3.23-5,7.43-11.14,12.29-17.92,12.65,8.11,32.38,10.13,47.08,4.8.19.53.38,1.05.6,1.56l.6-.17c.22.43.44.86.67,1.29l4.88-1.87a27,27,0,0,0,1.64,2.68l-5.52,2.32a30.75,30.75,0,0,0,5.89,6.82l.8-.81c.48.39,1,.76,1.47,1.12l2.93-3.61a22.54,22.54,0,0,0,2,1.39l-3.52,4.63a30.64,30.64,0,0,0,7.76,3.53l.35-1.37c.81.23,1.62.43,2.45.59l.64-4c.54.14,1.08.25,1.63.36l-.69,5.41a27.81,27.81,0,0,0,7.46.12c4.56,6.29,8.44,12,11.39,16.53,4.86,30.19-3.89,110.09-7.66,114h33c.91-4.65-16.94-115.37-10.53-135.94.35-.08.71-.14,1.06-.23,4.93,8.25,17.91,31.72,21.93,39,1.5,14.74-8.78,95.21-8.82,97.19h24.06c-2.75-3.53-9.13-60.68-5.59-83.22a347.77,347.77,0,0,1,22.95-30.9c11.62,8.31,31.83,8.5,43.68.42,10,27.72-2.92,110.4-5.4,114.46h32.18c-.1-3.52-13.76-109.63-11.79-130,5.37-9.72,22.73-41.11,29.32-52.13l1.43.29a21.66,21.66,0,0,1,1,2.61l-.74.19c7.76,25.84-15.7,175.26-14.35,179h44.08c-3.4-6.58-21.33-118.48-7.21-157.07,12.49,6.32,30.31,7.35,43.79,2.52.2.54.39,1.07.62,1.59l.62-.17c.22.44.44.88.68,1.31l5-1.9a27,27,0,0,0,1.68,2.73l-5.64,2.38a31.84,31.84,0,0,0,6,7l.81-.83c.49.39,1,.78,1.5,1.14l3-3.69c.65.51,1.32,1,2,1.43l-3.59,4.72a31.22,31.22,0,0,0,7.92,3.61l.37-1.4c.82.23,1.65.44,2.5.61l.66-4.12c.54.14,1.1.25,1.66.36l-.7,5.54a28.58,28.58,0,0,0,7.62.11c4.66,6.43,8.62,12.27,11.63,16.9,5,30.85-4,112.5-7.82,116.5h33.68c.94-4.75-17.3-117.89-10.75-138.92l1.09-.22c5,8.42,18.3,32.4,22.4,39.83,1.53,15.06-9,97.29-9,99.31h24.58c-2.81-3.61-9.33-62-5.7-85a355,355,0,0,1,23.45-31.57c17.77,12.74,48.71,6,57.33-13.52l-.54-.13a33.16,33.16,0,0,1,1.78-4l-.56-.09c.06-.31.12-.62.17-.94ZM3480.86,909c6.62-5.12,11.23-11.93,12.83-19.59.93.16,1.85.39,2.81.5l-.79,2.8a60.23,60.23,0,0,0,7,.53c1.14,13.79,2.41,30.23,3.4,46.2C3497,928.7,3485.53,915,3480.86,909Zm48.75-4.82c-3.72,5.76-7.22,10.8-10.17,14.9.66-8.46,1.52-18.57,2.39-28.47a60.75,60.75,0,0,0,14.81-6.8L3533,879a51.11,51.11,0,0,0,9.55,3.86C3537.58,891.32,3532.84,899.21,3529.61,904.2Zm44.65-16.15-8.51,10.1q.35-5.48.71-11a38,38,0,0,0,5.53,2.11l2.37-5.64c.43.1.86.17,1.3.25l-1.58,4.12Zm146.8-28.32c-4.23-6.54-10.43-16.87-16.92-27.91a66.64,66.64,0,0,0,12.51-5.06l-4.79,6.3a79.53,79.53,0,0,0,19.38,8.9c1.14,13,2.27,26.2,3.13,37.27C3730.51,873.87,3725.94,867.27,3721.06,859.73Zm87.44,52.34c6.48-5,11-11.68,12.56-19.18.92.16,1.81.38,2.75.49l-.77,2.74a59.86,59.86,0,0,0,6.87.52c1.12,13.49,2.35,29.58,3.33,45.21C3824.35,931.32,3813.08,917.89,3808.5,912.07Zm47.71-4.72c-3.64,5.63-7.06,10.57-9.95,14.58.65-8.28,1.49-18.18,2.34-27.87a59.22,59.22,0,0,0,14.49-6.65l-3.57-4.71a50.11,50.11,0,0,0,9.34,3.78C3864,894.74,3859.38,902.46,3856.21,907.35Zm35.37-5.93c.23-3.56.46-7.15.7-10.73a37.07,37.07,0,0,0,5.41,2.07l.19-.44c.27.22.57.41.84.63C3896.29,895.85,3893.87,898.71,3891.58,901.42Zm94.51,17.28.15,0-1.28-3.35,1.05-.2,1.93,4.58a29.3,29.3,0,0,0,4.49-1.72q.3,4.47.58,8.93Zm36.31,13.13c-2.63-4.06-6.48-10.48-10.51-17.34a41.83,41.83,0,0,0,7.76-3.14l-3,3.91a49.14,49.14,0,0,0,12,5.53c.71,8.05,1.41,16.27,1.94,23.15C4028.27,940.61,4025.42,936.51,4022.4,931.83Zm19.09,28.66c.8-13,1.83-26.35,2.76-37.55a51,51,0,0,0,5.7-.44l-.63-2.27c.78-.1,1.52-.28,2.28-.41A27.42,27.42,0,0,0,4062,935.75C4058.23,940.59,4048.87,951.74,4041.49,960.49Zm93.19-68.22c-4.05,6.26-7.85,11.74-11.05,16.2.71-9.2,1.65-20.21,2.6-31a66,66,0,0,0,16.1-7.4l-4-5.23a54.81,54.81,0,0,0,10.38,4.2C4143.35,878.25,4138.2,886.83,4134.68,892.27Zm122,23.53.14,0-1.3-3.43c.36-.06.72-.12,1.07-.2l2,4.69a31.3,31.3,0,0,0,4.59-1.76c.21,3,.4,6.08.59,9.12Zm37.09,13.42c-2.68-4.16-6.62-10.71-10.74-17.72a42.51,42.51,0,0,0,7.94-3.21l-3,4a50.37,50.37,0,0,0,12.3,5.66c.73,8.22,1.44,16.62,2,23.66C4299.75,938.19,4296.85,934,4293.75,929.22Zm19.51,29.29c.82-13.27,1.88-26.93,2.82-38.38a53.3,53.3,0,0,0,5.83-.44l-.65-2.33c.8-.1,1.56-.28,2.34-.42a28,28,0,0,0,10.66,16.28C4330.37,938.17,4320.81,949.57,4313.26,958.51Z" style="mix-blend-mode:multiply" fill="url(#J)" fill-rule="evenodd" opacity=".5"/><rect width="5000" height="523.25" y="1003.04" fill="url(#K)"/><polygon points="2740.95 2000 5000 2000 5000 1739.6 2112.11 1614.49 2740.95 2000" style="mix-blend-mode:soft-light" fill="#ffffe0" opacity=".2"/><polygon points="1498.24 2000 5000 2000 5000 1908.73 1144.31 1867 1498.24 2000" style="mix-blend-mode:soft-light" fill="#ffffe0" opacity=".2"/><polygon points="5000 1278.53 2831.06 1184.33 2684.24 1003.04 5000 1003.04 5000 1278.53" style="mix-blend-mode:soft-light" fill="#ffffe0"/><polygon points="2111.47 1526.3 0 1526.3 0 1121.69 1297.08 1121.69 2111.47 1526.3" style="mix-blend-mode:soft-light" fill="#ffffe0"/><rect width="5000" height="90.46" y="1491.93" style="mix-blend-mode:multiply" fill="#a7a9ac"/><rect width="5000" height="59.88" y="1491.93" fill="#fff"/><rect width="5000" height="23.62" y="1528.19" style="mix-blend-mode:multiply" fill="#bcbec0"/><g><path d="M4199.55,1749c27.47,73.12-1091.41,103.9-1067.75,29C3104.33,1705,4223.21,1674.18,4199.55,1749Z" style="mix-blend-mode:multiply" fill="#a7a9ac"/><path d="M3840.68,1813.57c63.09-4.11,126-9.48,188.6-17.42h0c32.28-4.13,60.85-8.59,84.91-13.27-31.17-3.05-67.08-5.51-106.69-7.32-55.76-47.77-141.44-49.45-198.57-3.39-100.7.55-218.57,5.18-312.36,12.31-61-40.55-144.39-30-196.45,21.4-13.47,2.12-26,4.3-37.51,6.54,9,.89,18.6,1.7,28.41,2.49l0,0c82.92,6.47,166.29,8.3,249.55,8.33v0c71.6,0,152.56-2,225-5.47h0C3791.3,1816.55,3816.23,1815.16,3840.68,1813.57Z" style="mix-blend-mode:multiply" fill="#a7a9ac"/><path d="M3566.76,1181.87s-52.27,146.92-23.38,169.51c50.86,39.78,200.77,15.62,263.79,9.46-34.6,70.36,18.78,68,18.78,68l16-102.15L3640,1298.17l55.2-193.15-67-69Z"/><path fill="#0a2a38" d="M3895.75,1420,3688,1282c-1.68-1.11-5.92,17-5.92,17l160.64,106.76c12.44,8.27,11.3,27.79-1.95,33.32l-140.9,58.74,3.75,14,191.2-75.67C3901.25,1433.57,3901.51,1423.52,3895.75,1420Z"/><path d="M3691.38,1559.18c1.79-.45,4.39,1.65,5.41-1a2.85,2.85,0,0,1,1.64-1.52c1.43-.58,2.63.9,4,.33s1.49-2.4,3-2.79c1.43-.64,2.66.89,4.08.31,1.44-.43,1.48-2.4,3-2.79,1.43-.64,2.66.89,4.07.31s1.51-2.44,3-2.81c1.42-.58,2.63.9,4,.33s1.49-2.4,3-2.79c1.43-.64,2.66.88,4.07.31s1.49-2.4,3-2.79c1.42-.64,2.66.88,4.07.31s1.49-2.4,3-2.79c1.43-.64,2.67.88,4.08.31s1.5-2.44,3-2.81c1.41-.59,2.63.9,4,.33s1.49-2.4,3-2.79c1.42-.64,2.66.88,4.07.31s1.48-2.4,3-2.79c1.42-.64,2.67.88,4.07.31s1.49-2.4,3-2.79c1.42-.64,2.66.88,4.07.31s1.48-2.4,3-2.79c1.42-.64,2.67.88,4.08.31s1.48-2.41,3-2.79c1.42-.64,2.67.88,4.07.31s1.49-2.41,3-2.79c1.41-.64,2.66.88,4.07.31s1.48-2.41,3-2.79c1.42-.64,2.67.88,4.07.31s1.54-2.61,3.2-2.85c1.35-.48,2.52.94,3.86.37s1.48-2.41,3-2.79c1.42-.64,2.67.88,4.08.31s1.48-2.41,3-2.79c1.41-.64,2.67.88,4.07.31s1.48-2.41,3-2.79c1.41-.64,2.67.87,4.07.3s1.47-2.35,2.93-2.77c1.43-.67,2.71.86,4.12.29s1.49-2.4,3-2.78c1.41-.64,2.67.87,4.07.3s1.54-2.6,3.2-2.84c1.35-.49,2.52.94,3.86.36,1.6-.57,1.7-3,3.71-2.93,6.19,2.33,3.63-3.83,8.5-2.17,2.49,1.42,3.13-2,4.93-2.67,2.2-.41,4.43,1.79,5.64-1.37,2.6-3.34,5.12,2,7.47-3,1.89-2,5.11,1.54,6.42-1.57a2.73,2.73,0,0,1,1.38-1.4c1.43-.84,2.84.79,4.28.22,1.29-.34,1.39-1.93,2.47-2.54,2-1.28,4.74,1.7,6-1.24a2.7,2.7,0,0,1,3.77-1.32c2.76,1.59,3.23-2.8,5.61-2.79,5.88,2,3.36-2.27,7.43-2.48,4.59,2.1,3.46-2,6.68-2.48,1.24-.11,2.3,1.08,3.52.37l.73,2.08a2.18,2.18,0,0,0-1.52,1.25c-1.4,3.85-5.5-.76-7.06,2.48-1.27,3.12-3.72.77-5.84,1.32-1.37.47-1.33,2.39-2.86,2.76-1.45.68-2.56-.86-4-.36-1.88.82-2.52,4.3-5.38,2.62-3.14-1.58-3.65,4.63-7.05,2.48a2.21,2.21,0,0,0-1.91,0c-1.38.47-1.33,2.37-2.85,2.74-1.45.69-2.58-.85-4-.35-1.59.35-1.49,2.42-3.09,2.83-1.45.69-2.58-.85-4-.35-1.91.83-2.52,4.29-5.38,2.62-3.16-1.57-3.65,4.63-7.06,2.48a2.21,2.21,0,0,0-1.91-.05c-1.38.47-1.32,2.37-2.85,2.75-1.44.68-2.58-.86-4-.35-1.59.34-1.5,2.44-3.11,2.84-1.5.67-2.73-1-4.18-.28-1.38.47-1.32,2.37-2.85,2.75-1.44.68-2.58-.85-4-.35a2.18,2.18,0,0,0-1.45,1.23c-1.36,3.83-5.54-.73-7.06,2.48-1.17,3.08-3.79.79-5.84,1.33-1.39.48-1.33,2.39-2.88,2.76-1.5.67-2.72-1-4.17-.28-1.39.48-1.33,2.39-2.88,2.76-1.5.67-2.73-1-4.18-.28-1.39.47-1.32,2.37-2.85,2.75-1.44.68-2.58-.85-4-.35-1.58.34-1.49,2.42-3.09,2.83-1.43.68-2.58-.85-4-.35-1.95.86-2.47,4.28-5.38,2.62-3.19-1.56-3.62,4.62-7.06,2.48a2.22,2.22,0,0,0-1.9-.06c-1.39.48-1.32,2.37-2.85,2.75-1.43.68-2.59-.85-4-.35-1.59.34-1.5,2.42-3.09,2.83-1.51.7-2.75-1-4.21-.27-1.39.48-1.31,2.37-2.85,2.75-1.91.62-4.24-1.72-5.42.89-1.13,3.06-3.85.79-5.84,1.32-1.4.48-1.32,2.39-2.87,2.76-1.51.68-2.74-1-4.18-.28-1.4.48-1.32,2.37-2.85,2.75-1.43.68-2.6-.84-4-.35-2,.91-2.42,4.26-5.39,2.62-2.46-1.33-3,2-4.78,2.7-1.5.68-2.73-1-4.18-.27-1.4.47-1.32,2.36-2.85,2.74-1.51.7-2.75-1-4.21-.26-1.4.48-1.32,2.38-2.88,2.75-1.5.68-2.73-1-4.17-.27-1.41.48-1.33,2.38-2.88,2.75-1.42.66-2.58-.85-3.94-.36-1.58.34-1.5,2.42-3.09,2.83-1.5.7-2.75-1-4.21-.26-1.4.48-1.32,2.38-2.87,2.75-1.42.66-2.58-.85-4-.36a2.29,2.29,0,0,0-1.5,1.33C3692.52,1567.54,3686.37,1561.2,3691.38,1559.18Z"/><path d="M3874.79,1446.38c4.1-22.69,39.46-25.49,45.48-2.37h0c1.85,6.28-31.24,5.23-22.34,13.36l10.46,6.05c7.78,3.31,15.45-3.91,21.25,7.24,6.72,14.14-14.33,24.79-21.74,11.09-1.8-4.86-2.4-10.39-7.94-12.54C3891.63,1464.48,3871.13,1459.9,3874.79,1446.38Z"/><path fill="#414042" d="M3917.16,1477.19c2.09,8.32,15.11,4.83,12.77-3.42C3927.83,1465.45,3914.82,1468.93,3917.16,1477.19Z"/><path d="M3660.64,1467.91c1.81-.31,4.25,2,5.47-.55a2.82,2.82,0,0,1,1.75-1.38c1.46-.48,2.55,1.09,4,.63,1.47-.31,1.67-2.28,3.19-2.55,1.47-.53,2.58,1.08,4,.62s1.67-2.29,3.19-2.55c1.48-.54,2.59,1.08,4,.61s1.68-2.31,3.23-2.57c1.46-.47,2.56,1.1,4,.64s1.67-2.29,3.19-2.55c1.47-.54,2.59,1.08,4,.61,1.47-.31,1.66-2.28,3.19-2.55,1.47-.53,2.58,1.08,4,.62s1.67-2.28,3.19-2.55c1.47-.53,2.59,1.08,4,.62s1.68-2.32,3.23-2.58c1.46-.47,2.56,1.1,4,.64s1.67-2.28,3.19-2.55c1.47-.53,2.59,1.08,4,.62s1.66-2.29,3.19-2.56c1.46-.53,2.59,1.08,4,.62s1.67-2.28,3.19-2.55c1.46-.53,2.59,1.08,4,.62s1.66-2.29,3.18-2.56c1.47-.53,2.6,1.08,4,.62s1.66-2.28,3.19-2.55c1.46-.53,2.59,1.08,4,.62s1.66-2.29,3.18-2.56c1.47-.53,2.6,1.08,4,.62s1.66-2.28,3.19-2.55c1.46-.53,2.59,1.08,4,.62s1.73-2.48,3.4-2.6c1.38-.38,2.44,1.13,3.82.66,1.48-.32,1.66-2.28,3.19-2.55,1.46-.53,2.59,1.08,4,.62s1.66-2.28,3.18-2.56c1.46-.52,2.6,1.08,4,.62s1.68-2.31,3.24-2.57c1.44-.47,2.56,1.1,4,.64s1.74-2.48,3.41-2.59c1.38-.39,2.44,1.12,3.82.65s1.68-2.31,3.23-2.57a2.88,2.88,0,0,1,2.11.35c2.68,1.78,3.41-2.53,5.81-2.35,5.73,2.29,3.27-1.4,7.23-1.93,5.7,2.19,3.18-1.1,7.05-1.94,1.25-.11,2.19,1.15,3.47.7,1.31-.24,1.52-1.82,2.65-2.34,3.79-1.19,3.25,2.89,7.07-1.84,3.74-1.53,3.38,2.92,7.23-1.94,2.05-1.38,4.73,2,6.21-.87a2.81,2.81,0,0,1,1.65-1.35c1.46-.56,2.64,1.06,4.09.61s1.65-2.29,3.18-2.56c1.45-.52,2.61,1.08,4,.62s1.67-2.31,3.24-2.57a2.9,2.9,0,0,1,2.11.35c2.63,1.79,3.43-2.54,5.8-2.35,5.71,2.46,3.53-2,7.6-1.91,4.42,2.45,3.61-1.74,6.85-2,1.25,0,2.21,1.25,3.48.63l.57,2.13a2.21,2.21,0,0,0-1.61,1.13c-1.69,3.74-5.42-1.17-7.23,1.94-1.5,3-3.76.48-5.92.88-1.41.36-1.51,2.27-3.06,2.52-1.5.57-2.49-1-3.92-.65-1.94.66-2.85,4.08-5.56,2.2-3-1.82-4,4.33-7.23,1.93a2.23,2.23,0,0,0-1.9-.2c-1.41.36-1.5,2.26-3.05,2.52-1.5.58-2.5-1-3.93-.65-1.61.22-1.67,2.3-3.3,2.59-1.49.57-2.5-1-3.93-.65-2,.67-2.83,4.08-5.56,2.2-3-1.81-4,4.33-7.23,1.93a2.23,2.23,0,0,0-1.9-.2c-1.41.36-1.5,2.26-3.05,2.52-1.5.58-2.51-1-3.93-.65-1.61.22-1.68,2.31-3.31,2.59-1.55.57-2.65-1.21-4.16-.59-1.41.36-1.5,2.26-3.05,2.52-1.49.57-2.51-1-3.93-.65a2.24,2.24,0,0,0-1.55,1.12c-1.64,3.72-5.46-1.16-7.22,1.93-1.4,3-3.84.5-5.92.88-1.43.37-1.51,2.29-3.08,2.53-1.55.56-2.65-1.2-4.15-.59-1.42.37-1.51,2.28-3.08,2.53-1.55.56-2.64-1.21-4.14-.6-1.42.37-1.5,2.26-3,2.52-1.49.58-2.52-1-3.94-.65-1.6.22-1.67,2.3-3.29,2.59-1.48.57-2.51-1-3.93-.65-2,.7-2.8,4.07-5.57,2.2-3.06-1.8-4,4.33-7.22,1.93a2.23,2.23,0,0,0-1.9-.2c-1.42.37-1.5,2.26-3,2.52-1.48.57-2.52-1-3.94-.65-1.6.22-1.67,2.3-3.29,2.59-1.55.58-2.66-1.2-4.17-.59-1.42.37-1.5,2.26-3.05,2.52-2,.48-4.11-2-5.48.47-1.35,3-3.9.5-5.92.88-1.43.37-1.5,2.28-3.07,2.52-1.46.57-2.51-1-3.91-.65-1.61.22-1.68,2.3-3.3,2.59-1.47.57-2.52-1-3.93-.65-1.61.22-1.68,2.32-3.32,2.59-1.55.56-2.65-1.21-4.14-.6-1.43.37-1.5,2.26-3.06,2.53-2,.48-4.08-2-5.47.47a2.77,2.77,0,0,1-4,1.07,2.24,2.24,0,0,0-1.89-.2c-1.44.38-1.51,2.28-3.08,2.53-1.55.56-2.65-1.2-4.15-.59-1.43.37-1.5,2.28-3.08,2.53-1.55.56-2.64-1.21-4.14-.6-1.44.38-1.5,2.28-3.08,2.53-1.46.55-2.51-1-3.91-.66-2.19.8-2.66,4-5.56,2.2-2.32-1.51-3.17,1.78-5,2.33C3658.61,1474.17,3657.1,1468.75,3660.64,1467.91Z"/><path d="M3676.53,1460.66c-56.3,6.4-52.22,114.22,9.41,108.08C3742.24,1562.35,3738.16,1454.52,3676.53,1460.66Zm29.29,30.82c-6.57,3.88-19.92,18.82-23.86,3.55-.18-6.08-8.63-26.7,3.2-26.37C3694.4,1469.45,3716.55,1480.13,3705.82,1491.48Zm-35.2-12c.71,7.28,8.77,28.84-4.71,28.35-7-1.56-23.57,1.15-19.85-11.6C3648.58,1488.22,3664.75,1462.88,3670.62,1479.53Zm-27,45.25c-1.57-13.46,14.41-6.93,21.44-6.92,13.18,2.58,2,21.55-.13,28.91C3656.25,1561.63,3644.87,1533.57,3643.62,1524.78Zm28.93,26c3-6,6.78-29.71,17.68-19.78,4.22,5.47,19.78,16,10.39,23.49C3693.22,1560.34,3669.24,1567.55,3672.55,1550.79Zm34.5-15.28c-5.49-6.45-20.83-17.43-10.06-26.19,5.45-2.77,18.52-18,21.84-4.78C3720.67,1512.41,3720.25,1544.73,3707.05,1535.51Z"/><path d="M3711.75,1303.21s64-116,188-106c-6.1,11.54-106.83,3.7-158.15,125.09C3738.94,1328.59,3711.75,1303.21,3711.75,1303.21Z"/><path d="M3886.25,1400.33c-31.36,8.22-22.66,64.81,11.37,56.43C3929.06,1448.31,3920.93,1392,3886.25,1400.33Z"/><path fill="url(#j)" d="M3916.41,1423.48c4.74,23-26.43,33.72-32.28,9C3879.07,1409,3910.6,1398,3916.41,1423.48Z"/><path fill="url(#i)" d="M3915,1423.9c3.48,16.58-19.09,24.37-23.27,6.51C3888,1413.62,3911,1405.67,3915,1423.9Z"/><path fill="#231f20" d="M3885.41,1251.7c-201.63-12.23-226.55,338-23.79,351.66C4063.23,1615.59,4088.16,1265.38,3885.41,1251.7ZM4015.26,1434c-16.57,200.51-279.52,185.28-269.37-16.81C3762.46,1216.74,4025.41,1232,4015.26,1434Z"/><path fill="#414042" d="M3745.89,1417.24c6.06-100,98.24-172.28,185.19-135a141.54,141.54,0,0,0-18.07-25.92c-137.92-41.27-243.81,148.23-172,266.17a213.23,213.23,0,0,0,32-1.51C3753.71,1492.63,3743.25,1456.25,3745.89,1417.24Z"/><path fill="#808285" d="M3720.2,1404.33a122.94,122.94,0,0,0,26.66,3.12c7.15-57.77,42.1-105,88-124.87-11.74-3.63-25.42-5.3-40.13-4.76C3755.82,1304.86,3727.49,1350.49,3720.2,1404.33Z"/><path d="M3881.94,1267c-185.7-11.69-204.11,314.29-20.07,327.06C4047.55,1605.74,4066,1279.76,3881.94,1267Zm119.53,170.26c-14.88,187.76-255,169.69-246.24-16.92C3770.11,1232.58,4010.27,1250.65,4001.47,1437.26Z"/><path fill="url(#L)" d="M3890.48,1265.71c-185.77-11.44-206.83,312.67-21.14,325.34C4055.1,1602.5,4076.16,1278.38,3890.48,1265.71Zm119.62,169c-15.12,186-256.54,170.31-247.42-16.09C3777.79,1232.57,4019.22,1248.29,4010.1,1434.69Z"/><path d="M3889.49,1255.63c-197.8-12.19-220.22,332.91-22.51,346.4C4064.76,1614.22,4087.19,1269.12,3889.49,1255.63Zm127.36,179.91c-16.09,198.09-273.14,181.35-263.43-17.13C3769.51,1220.34,4026.57,1237.08,4016.85,1435.54Z"/><path fill="#bcbec0" d="M3688.17,1183.69c-.37-12.79-19.33-12.34-19,.3l3,71.72,18.9-1.93Z"/><path fill="#27aae1" d="M3672.21,1255.71l10.85,258.38c.13,6.08,6.08,11,12,9.22a9.48,9.48,0,0,0,7-9.56l-10.92-260Z"/><path d="M3702,1513.75c-1.79-5.43-10.87-331.27-15.72-335.53a9.46,9.46,0,0,0-7.76,9.67c1.8,5.4,10.87,331.32,15.73,335.55A9.41,9.41,0,0,0,3702,1513.75Z" style="mix-blend-mode:multiply" fill="#bcbec0"/><path d="M3673.33,1282.51l2.62,62.33c6-4.41,13.06-5.74,19-.84l-2.53-60.29Z" style="mix-blend-mode:multiply" fill="#a7a9ac"/><path d="M3689.54,1216.28l-1.37-32.59c-.2-4.71-3.59-8.94-8.27-9.51a9.5,9.5,0,0,0-10.7,9.81l1.42,34C3678.12,1221.87,3684.08,1220,3689.54,1216.28Z" style="mix-blend-mode:multiply" fill="#a7a9ac"/><path d="M3696.12,1260.09l-27.47,2.25c-7.82.76-8.84-11.54-1-12.07l27.47-2.25a6,6,0,0,1,6.53,5.54h0A6.06,6.06,0,0,1,3696.12,1260.09Z"/><path fill="#8b5644" d="M3629.78,1206.53h0c4.87-25.23,27.87-44.52,76.51-61.46,16.4-3.29,34.06-11.81,44.75,8.59,4.76,8.77,1.92,19.75-5.7,22,0,0-46.48,3.54-78.29,30l-8.26,7.58C3654.83,1216.88,3625.21,1227.9,3629.78,1206.53Z"/><path fill="#a27869" d="M3747.9,1149c-10.43-14.87-28.07-6.42-41.6-4-35.54,9.51-61.61,34.32-61.61,34.32-8.23,5-24.81,35.73-8.5,39.65C3651.79,1135.91,3723,1182.48,3747.9,1149Z"/><path fill="#684133" d="M3659.3,1212.78c16-16.8,41.55-27.87,59.89-32.3C3727.86,1160.6,3649.39,1177.68,3659.3,1212.78Z"/><path fill="#27aae1" d="M3695,1523.31a9.46,9.46,0,0,1-7.7-1.26L3415.8,1341.78a9.53,9.53,0,0,1-1-15.06c-6.4-4.72-3.64-16,4.57-16.85l263.74-36.4c9.27-2.25,229.17,140.58,236.87,142.34,6.5,3.72,5.72,14.28-1.4,16.88C3917.21,1433,3696.26,1523.17,3695,1523.31Zm-266.11-195.6,264.73,175.77c272.57-106.32,199.82-68-11.26-210.76Z"/><path d="M3428.9,1327.71c7.37-1.36,22.25-.38,21.65-11.56h0c-.66-15-22.07-6.62-30.6-6.36-8.34.77-11.88,12-5.13,16.93-13.39,12.94,17.69,24.31,24.43,30.63a8,8,0,0,0,12.41-6.92h0C3452.41,1339.65,3435.71,1333.07,3428.9,1327.71Z" style="mix-blend-mode:multiply" fill="#bcbec0"/><path fill="#27aae1" d="M3695,1523.31a9.46,9.46,0,0,1-7.7-1.26L3415.8,1341.78a9.53,9.53,0,0,1-1-15.06c-6.4-4.72-3.64-16,4.57-16.85l263.74-36.4c9.27-2.25,229.17,140.58,236.87,142.34,6.5,3.72,5.72,14.28-1.4,16.88C3917.21,1433,3696.26,1523.17,3695,1523.31Zm-266.11-195.6,264.73,175.77c272.57-106.32,199.82-68-11.26-210.76Z"/><path d="M3428.9,1327.71c7.37-1.36,22.25-.38,21.65-11.56h0c-.66-15-22.07-6.62-30.6-6.36-8.34.77-11.88,12-5.13,16.93-13.39,12.94,17.69,24.31,24.43,30.63a8,8,0,0,0,12.41-6.92h0C3452.41,1339.65,3435.71,1333.07,3428.9,1327.71Z" style="mix-blend-mode:multiply" fill="#a7a9ac"/><path d="M3415.66,1341.66c-.12,0,271.67,180.34,271.65,180.39a9.5,9.5,0,0,0,7.7,1.26c1,0,222.53-90.4,223.6-90.62a9.44,9.44,0,0,0,4.93-4.76c.19-.28-230.94-141.13-231-141.37a9.48,9.48,0,0,0-6.24-1.3l-263.75,36.4c-8.08.84-11.09,12.11-4.56,16.85A8.73,8.73,0,0,0,3415.66,1341.66Zm13.24-14,253.47-35c211.71,143,282.48,106.36,35.56,207.72-17.34,7-30.47,8.64-46.06-1.72-2.19-6.06-242.54-150-227.73-160.89h0Z" style="mix-blend-mode:multiply" fill="#bcbec0"/><path fill="#bf8920" d="M3912,1432.35a9.45,9.45,0,0,1-9.31-10.49h0c1.27-12.25,21.31-9.85,19.67,2.34h0A9.32,9.32,0,0,1,3912,1432.35Z"/><path fill="#ffb72b" d="M3922.35,1424.2c-1.2,11.25-16.6,9.41-15.12-1.8C3908.43,1411.15,3923.83,1413,3922.35,1424.2Z"/><path d="M3920.47,1422.61c1.05,7.21-9,10-10.47,2.33C3908.37,1417.32,3919.44,1414.22,3920.47,1422.61Z"/><path fill="url(#M)" d="M3722.14,1506.82c7.66,37.06-42.68,54.44-52.12,14.57C3661.84,1483.4,3712.77,1465.69,3722.14,1506.82Z"/><path fill="url(#N)" d="M3719.93,1507.49c5.62,26.78-30.82,39.36-37.57,10.51C3676.56,1490.68,3713.12,1478,3719.93,1507.49Z"/><path fill="#1d80a9" d="M3705.73,1527.38c-8.49-.22-15.31-7.49-14.24-16.05h0c2.23-18.8,32.33-15.21,30.08,3.58h0A14.25,14.25,0,0,1,3705.73,1527.38Z"/><path fill="#27aae1" d="M3721.56,1514.91c-2.15,17.3-25.1,14.57-23.12-2.76C3700.58,1494.85,3723.54,1497.59,3721.56,1514.91Z"/><path d="M3718.68,1512.48c1.61,11-13.79,15.35-16,3.56S3716.88,1499.55,3718.68,1512.48Z"/><path fill="url(#O)" d="M3708.82,1599.37a4.77,4.77,0,0,1-6-4.89l5.46-83.7c.31-6.11,9.95-5.53,9.46.62C3716.1,1513.89,3715.57,1601.48,3708.82,1599.37Z"/><path d="M3716.32,1507.73a4.68,4.68,0,0,0-3.91,4.27l-5.46,83.7a3,3,0,1,0,5.37-.61l5.46-83.69A4.66,4.66,0,0,0,3716.32,1507.73Z"/><polygon fill="#414042" points="3694.26 1594.44 3722.27 1584.78 3765.63 1577.64 3739.07 1596.47 3694.26 1594.44"/><polygon fill="#ffb617" points="3741.51 1597.5 3697.03 1604.78 3694.26 1594.44 3738.74 1587.15 3741.51 1597.5"/><polygon points="3768.4 1587.98 3741.55 1597.49 3738.78 1587.14 3765.63 1577.64 3768.4 1587.98"/><path fill="#be1e2d" d="M3764.42,979.89c42.6,14.23,19.85,223.19,22.37,266.9l153,72-66,95.19c-39.6-17,7.79-57.84,7.79-57.84l-167.39-66.59-61.25-171.19-46.79-58.71Z"/><path fill="#003f3b" d="M3881.54,1356.13s-47.39,40.85-7.79,57.84l66-95.19-9.36-4.41Z"/><path fill="#cb4b57" d="M3652.9,1118.35l56.67,158.38c48.78,15.16,66.64-21.26,56.25-85.35C3758.94,1115.66,3722.57,1076.67,3652.9,1118.35Z"/><path d="M3790.86,1052.89c-.25-54-26.44-73-26.44-73l-158.31,79.76,31,38.94C3673,1057.49,3732.75,1048.76,3790.86,1052.89Z" style="mix-blend-mode:multiply" fill="#d1d3d4"/><path fill="#ffde17" d="M3339.87,1126.8c99.4-64.84,149.89-104.88,120.29-240.6,0,0,.89-30.4,28.08-35.49,60.28-24.25,99.36,219.55-110.81,282.46C3336.85,1146.31,3339.87,1126.8,3339.87,1126.8Z"/><path d="M3488.23,850.71a35.31,35.31,0,0,0-6,1.73c23.32,16.37,76.44,211.54-140,281.44,3.69,3.86,12.8,6.52,35.15-.71C3587.5,1070.24,3548.63,826.71,3488.23,850.71Z" style="mix-blend-mode:multiply" fill="#d1d3d4"/><path d="M3488.23,850.71c-50.6,18.42-14.77,56.12-21.26,126.07,21.44,3.71,40.36,13.84,56,28.09,22.65-65.4,3.6-127.18,3.6-127.18S3525.25,843.77,3488.23,850.71Z" style="mix-blend-mode:multiply" fill="#a7a9ac"/><path d="M3340,1102.33l-6.49,11.74-28.38-15-27.8,48.7c16.2,17.72,31.21-24.63,33.18-28.42l5.57,7.71c-4.81,7.17-26,42.43,5.5,34-4.46,7.88,11.13,26.46,19.21,14.11l4.14-22.81c19.93,36,36.49-3.39,38.2-18.06Z"/><path fill="#1c75bc" d="M3598.41,1061.54c-37.75-93.87-137.74-117.77-160.81-178.95C3383.47,739,3702.2,672,3773.83,986.56,3773.83,986.56,3666.43,1097.26,3598.41,1061.54Z"/><path d="M3566.82,849.76c4.58,28.84-4.66,57.19-30.56,65.59s-68.21,2.17-77.23-25.66,12.19-101.05,38.09-109.45S3556.91,787.47,3566.82,849.76Z" style="mix-blend-mode:multiply" fill="#a7a9ac"/><path fill="#ffde17" d="M3557.35,846.2c4.58,28.84-4.66,57.19-30.56,65.59s-68.21,2.17-77.23-25.66,12.19-101,38.08-109.45S3547.44,783.91,3557.35,846.2Z"/><path fill="#d1d3d4" d="M3580.63,765.42c-91.49-16.4-172.49,39-143,117.17,14.93,39.61,62.1,63.61,103.75,101.07C3606.65,934.64,3598.69,844.76,3580.63,765.42Z"/><path fill="#0a2a38" d="M3403.79,1611.87c-8.07,2.32-16.38-5.12-14.75-13.46.13-.76,12.89-77.72-6.41-172.23-2.51-12.31,1.19-40.87,33.17-60.88a11.85,11.85,0,0,1,16.34,3.76c10.76,18.09-29.14,22.25-26.27,52.38C3423.54,1528.06,3420.61,1604.6,3403.79,1611.87Z"/><path d="M3415.43,1557.28c-39.41,10.33-28.48,81.46,14.29,70.91C3469.23,1617.58,3459,1546.77,3415.43,1557.28Z"/><path fill="url(#P)" d="M3453.33,1586.38c6,28.84-33.22,42.37-40.57,11.34C3406.41,1568.16,3446,1554.38,3453.33,1586.38Z"/><path fill="url(#Q)" d="M3451.61,1586.91c4.37,20.83-24,30.62-29.24,8.17C3417.86,1573.82,3446.31,1563.93,3451.61,1586.91Z"/><path fill="#231f20" d="M3415.69,1405.68c-213.28-12.94-239.64,357.5-25.17,372C3603.78,1790.58,3630.15,1420.14,3415.69,1405.68ZM3553,1598.55c-17.53,212.08-295.67,196-284.93-17.78C3285.64,1368.69,3563.78,1384.79,3553,1598.55Z"/><path fill="#414042" d="M3268.11,1580.78C3274.52,1475,3372,1398.55,3464,1438a150.15,150.15,0,0,0-19.11-27.41C3299,1366.91,3187,1567.35,3263,1692.11a226.14,226.14,0,0,0,33.83-1.6C3276.38,1660.52,3265.32,1622,3268.11,1580.78Z"/><path fill="#808285" d="M3240.93,1567.12a129.79,129.79,0,0,0,28.21,3.3c7.56-61.1,44.53-111,93.11-132.08-12.42-3.84-26.89-5.61-42.44-5C3278.61,1461.91,3248.65,1510.18,3240.93,1567.12Z"/><path d="M3412,1421.86c-196.42-12.37-215.89,332.45-21.22,346C3587.2,1780.17,3606.68,1435.35,3412,1421.86ZM3538.45,1602c-15.74,198.61-269.78,179.49-260.47-17.9C3293.72,1385.45,3547.76,1404.56,3538.45,1602Z"/><path fill="url(#R)" d="M3421.05,1420.5c-196.5-12.11-218.77,330.72-22.37,344.13C3595.17,1776.74,3617.45,1433.9,3421.05,1420.5Zm126.52,178.73c-16,196.79-271.35,180.16-261.7-17C3301.85,1385.44,3557.23,1402.07,3547.57,1599.23Z"/><path d="M3420,1409.83c-209.22-12.89-232.93,352.14-23.81,366.41C3605.4,1789.13,3629.12,1424.1,3420,1409.83Zm134.72,190.31c-17,209.52-288.92,191.81-278.64-18.12C3293.09,1372.5,3565,1390.21,3554.72,1600.14Z"/><path fill="#754c29" d="M3359.64,1221.92l-54.22,8.86c-17.1,2.69-21.33-23.3-4.24-26.14l54.22-8.86a13.23,13.23,0,0,1,15.19,11h0A13.24,13.24,0,0,1,3359.64,1221.92Z"/><path fill="#3c2415" d="M3290.22,1219.68a13.22,13.22,0,0,0,15.2,11.1l54.22-8.86a13.21,13.21,0,0,0,10.91-15.33Z"/><path fill="#603913" d="M3370.59,1206.73c2.7,17.1-23.29,21.31-26.14,4.23C3341.76,1193.86,3367.75,1189.65,3370.59,1206.73Z"/><path d="M3367.21,1207.27c2.22,12.54-17.52,15.74-19.37,3.15C3345.61,1197.88,3365.35,1194.68,3367.21,1207.27Z"/><path fill="#231f20" d="M3427.82,1205c-.86.29-68.9,10.91-69.77,11.12a7.12,7.12,0,0,1-2.23-14.06l69-10.95C3433.49,1189.59,3436.3,1203,3427.82,1205Z"/><path d="M3417.22,1199.68,3350,1210.36a7.09,7.09,0,0,0,8.1,5.78l67.28-10.67A7.11,7.11,0,0,0,3417.22,1199.68Z" style="mix-blend-mode:multiply" fill="#bcbec0"/><path fill="#27aae1" d="M3410.24,1375.64c1.59,14.09,16,11.13,27.08,19,46.4,23,5.67,155.2-9.59,193.16-4,8.73,4.93,18.76,14,16,31-33.76,39.8-127.91,40-175.35.24-29.24-21.58-52.84-48-61.63l-2.1-83.79-23.67,1.79Z"/><path fill="#bcbec0" d="M3417.33,1185.54a11.84,11.84,0,0,0-11.55,12.15l2.18,87.1,23.67-1.79-2.15-85.91A11.85,11.85,0,0,0,3417.33,1185.54Z"/><path d="M3448.41,1373.64a146.14,146.14,0,0,0-14.68-6.85l-4.25-169.7a11.86,11.86,0,0,0-9.7-11.36c-1.63,3.51,4.45,177.73,4,181.5a11.86,11.86,0,0,0,8.71,11.13c18.2,4.43,40.09,19.91,39.1,42,.78,54.48-12,127.64-33.42,158.39-3.74,5.37-12.21,18.79,2,23,4.62,1.36,7.69-1.29,10-6.16C3469.45,1541.34,3513.82,1408.42,3448.41,1373.64Z" style="mix-blend-mode:multiply" fill="#bcbec0"/><path fill="#bf8920" d="M3444.25,1600a9.47,9.47,0,0,1-9.31-10.5h0c1.27-12.24,21.31-9.85,19.67,2.34h0A9.33,9.33,0,0,1,3444.25,1600Z"/><path fill="#ffb72b" d="M3454.6,1591.85c-1.2,11.25-16.6,9.42-15.12-1.8C3440.68,1578.81,3456.08,1580.64,3454.6,1591.85Z"/><path d="M3452.72,1590.26c1.05,7.21-9,10-10.47,2.33C3440.62,1585,3451.69,1581.87,3452.72,1590.26Z"/><path d="M3434.81,1288.79l-27.48,2.25a6.07,6.07,0,0,1-6.53-5.54h0a6.05,6.05,0,0,1,5.54-6.53l27.48-2.26a6.07,6.07,0,0,1,6.53,5.54h0A6.07,6.07,0,0,1,3434.81,1288.79Z"/><path d="M3436.08,1366.29l-27.47,2.26a6.07,6.07,0,0,1-6.54-5.54h0a6.07,6.07,0,0,1,5.55-6.54l27.47-2.25a6.06,6.06,0,0,1,6.53,5.54h0A6.05,6.05,0,0,1,3436.08,1366.29Z"/><path fill="#231f20" d="M3549.14,1185.69c-.49.2-130.09,20.65-130.71,20.79a7.11,7.11,0,0,1-2.23-14l130-20.63C3554.8,1170.25,3557.64,1183.62,3549.14,1185.69Z"/><path d="M3538.55,1180.34l-128.23,20.35a7.11,7.11,0,0,0,8.11,5.79l128.23-20.35A7.11,7.11,0,0,0,3538.55,1180.34Z" style="mix-blend-mode:multiply" fill="#bcbec0"/><path fill="#754c29" d="M3549.41,1191.89l-54.22,8.86a13.24,13.24,0,0,1-15.19-11h0a13.24,13.24,0,0,1,10.95-15.19l54.22-8.86C3562.27,1163.06,3566.5,1189.05,3549.41,1191.89Z"/><path fill="#3c2415" d="M3480,1189.66a13.21,13.21,0,0,0,15.2,11.09l54.22-8.86a13.22,13.22,0,0,0,10.92-15.32Z"/><path fill="#603913" d="M3560.37,1176.7c2.69,17.11-23.3,21.32-26.15,4.24C3531.53,1163.84,3557.52,1159.62,3560.37,1176.7Z"/><path fill="#8b5e3c" d="M3555.46,1177.5c1.88,10.57-14.77,13.27-16.33,2.65C3537.25,1169.57,3553.9,1166.87,3555.46,1177.5Z"/><path d="M3582.61,666.89c3.08,81.82-141.53,87.73-145.13,5.94C3434.4,591,3579,585.1,3582.61,666.89Z"/><path d="M3611.44,816.92s-19.9-6.83-30.28-25.82c32,8,57.47,4.84,57.47,4.84s-98.2-42-89.14-86.06c0,0-18.86,6.77-19.62,24.68-6.18,6-13.55,18.12-15.83,26.4-35.59,32.28,61.34,72.2,64.74,72.66,0,0-8.7-9.74-18.47-27.56C3580.92,813.42,3611.44,816.92,3611.44,816.92Z"/><path fill="#fbb09e" d="M3408.75,686.2s-29.64,177.63-19,194,127.52,28.93,145.52,17.79.36-220.36.36-220.36S3448.81,659.25,3408.75,686.2Z"/><path d="M3535.6,677.65s-3.93-.83-10.45-1.88c3.21,41.41,14.51,200.85-1.14,210.54s-105.12,1.55-135.88-11.41c4.28,25.4,128.25,32.63,147.11,23.11C3553.23,886.86,3535.6,677.65,3535.6,677.65Z" style="mix-blend-mode:multiply" fill="#e6e7e8"/><path d="M3430.72,872.75c-4.53-28.37,67.18-39.47,71.44-11.07,1.86,12-15.65,4.72-35.37,7.78S3432.59,884.78,3430.72,872.75Z" style="mix-blend-mode:multiply" fill="#d1d3d4"/><path fill="#fbcce8" d="M3428,870.52c-4.53-28.36,67.18-39.47,71.44-11.07,1.86,12-15.65,4.72-35.37,7.78S3429.91,882.55,3428,870.52Z"/><path fill="#5b1322" d="M3429.52,870.29c-3.77-22.45,65.29-33.14,68.47-10.61,1.48,9.55-15.67.13-34.58,3.06S3431,879.84,3429.52,870.29Z"/><path d="M3466.86,820.25c-3.32,17.49-12.73,18-23.81,15.92s-19.63-6-16.31-23.54C3442.51,752,3474.43,758.06,3466.86,820.25Z" style="mix-blend-mode:multiply" fill="#a7a9ac"/><path fill="#fbb09e" d="M3464,811.62c-3.21,16.91-12.6,17.37-23.68,15.27s-19.65-6-16.44-22.89C3439.27,745.34,3471.17,751.44,3464,811.62Z"/><path fill="#fdd0c5" d="M3455,763.51c-16.47-9.77-50.52,60.23-17.73,62.73C3446.93,809,3453.7,782.84,3455,763.51Z"/><path fill="#662d91" d="M3540.82,755.15c-2.26-42.3-5.22-77.51-5.22-77.51s-86.79-18.39-126.85,8.56c0,0-5,30.23-10.22,66.87C3444.84,739.77,3494.11,742.43,3540.82,755.15Z" opacity=".6"/><path d="M3468.66,758.43c1.45,25.07,38.59,23.54,38-1.56C3505.2,731.8,3468.05,733.33,3468.66,758.43Z" style="mix-blend-mode:multiply" fill="#a7a9ac"/><path fill="#fbb09e" d="M3465.26,756.68c1.45,25.07,38.59,23.55,38-1.55C3501.8,730.06,3464.66,731.58,3465.26,756.68Z"/><path fill="#f1f2f2" d="M3470.26,756.48c1,21,28.75,19.89,28-1.15C3497.28,734.3,3469.5,735.44,3470.26,756.48Z"/><path d="M3477.78,749.89c-4.36,5.45,5.65,10.15,5.63,2.44,2.6,3.61.3,10-4.15,10.06C3472.66,762.82,3471.44,751.22,3477.78,749.89Z"/><path d="M3406.27,758.74c1.46,25.07,38.6,23.54,38-1.56C3442.81,732.11,3405.67,733.64,3406.27,758.74Z" style="mix-blend-mode:multiply" fill="#a7a9ac"/><path fill="#fbb09e" d="M3402.87,757c1.46,25.07,38.6,23.55,38-1.55C3439.41,730.37,3402.27,731.89,3402.87,757Z"/><path fill="#f1f2f2" d="M3407.88,756.79c1,21,28.74,19.89,28-1.15C3434.9,734.61,3407.12,735.75,3407.88,756.79Z"/><path d="M3415.39,750.2c-4.36,5.45,5.65,10.15,5.64,2.44,2.59,3.61.3,10-4.16,10.06C3410.27,763.13,3409.06,751.53,3415.39,750.2Z"/><path d="M3395.37,729.68c2.82-2,11.47,2.05,19.48-4.48,4.59-2.66.87-11.3,5.88-12,7.06,1.41,1.43,13.88-1.84,16.37C3410,737.26,3389.32,737.38,3395.37,729.68Z"/><path d="M3505.23,728.05c-2.55-2.36-11.63.69-18.82-6.74-4.24-3.18.47-11.32-4.43-12.58-7.17.57-3.05,13.62-.1,16.47C3489.8,733.85,3510.34,736.41,3505.23,728.05Z"/><path fill="#fbb09e" d="M3534.22,757.89c1.93,33.23,51.39,31.2,50.59-2.07C3582.88,722.59,3533.42,724.62,3534.22,757.89Z"/><path d="M3559.28,756.87a17.57,17.57,0,0,0-9.44-14.82c10.88-7.47,26.9.82,27.06,14.1.92,13.24-14.37,22.82-25.81,16.26A17.59,17.59,0,0,0,3559.28,756.87Z" style="mix-blend-mode:multiply" fill="#fbb09e"/><path d="M3558.48,731.56a25.08,25.08,0,0,1,6.8.76,60.2,60.2,0,0,0,1.4,48.73C3530.46,790.66,3521.14,734.33,3558.48,731.56Z" style="mix-blend-mode:multiply" fill="#e6e7e8"/><path d="M3572.64,652.06c5.65,59.42-189.42,66.37-193.33,17.11C3384.91,619.69,3571.7,548.45,3572.64,652.06Z"/><path fill="#ed1c24" d="M3576.43,641.76c5.59,59.6-198,66.56-201.74,17.46C3372.93,598.4,3565.28,527.84,3576.43,641.76Z"/><path fill="#fff" d="M3507.31,580.08c-84.12-2.53-188.53,84-96.45,105.69C3421.91,634.48,3460.6,596.77,3507.31,580.08Z" opacity=".5"/><path d="M3475.48,691.78c43.34,1,92-17.57,99.26-40.35C3535.67,652.76,3498.34,661.12,3475.48,691.78Z" style="mix-blend-mode:multiply" fill="#d1d3d4"/><path d="M3440.68,598.15c38.92-19.15,80.72-13.81,82.64-9.91s-36.79,4.86-75.71,24-63.3,49.21-65.22,45.32S3401.76,617.29,3440.68,598.15Z"/><path d="M3474,609.31c36.51-16.55,74.68-11,76.28-7.5s-34,3.74-70.48,20.29-60.11,43.16-61.71,39.63S3437.45,625.85,3474,609.31Z"/><path d="M3499.16,627.72c30.25-14.88,65-6.08,67-2.19s-29.76,1.41-60,16.29-47.61,41.48-49.52,37.59S3468.92,642.6,3499.16,627.72Z"/><path d="M3579.5,1085.21c158.74-36.46,194.13-177,84.45-273.52C3664,811.69,3698.32,1005.41,3579.5,1085.21Z" style="mix-blend-mode:multiply" fill="#d1d3d4"/><path fill="#ffde17" d="M3537.24,1081.35c82.69-69.51,135.77-119.53,76.4-239.81,5.32-42.18,58.84-46.82,71.29-11.74,0,0,70.74,205.07-112.09,263.45C3521.85,1109.53,3537.24,1081.35,3537.24,1081.35Z"/><path d="M3642.93,806.88c32.85-5.33,42,22.92,42,22.92s70.75,205.07-112.08,263.45c-22.31,7.12-31.91,5.73-35.65,1.92C3559,1081.73,3760,1032.59,3642.93,806.88Z" style="mix-blend-mode:multiply" fill="#d1d3d4"/><path d="M3543.9,1055.17l-6.64,11.66-28.19-15.36-28.41,48.35c16,17.92,31.52-24.24,33.54-28l5.47,7.78c-4.9,7.11-26.48,42.1,5.08,34.09-4.56,7.82,10.79,26.59,19,14.35l4.42-22.76c19.48,36.28,36.53-2.94,38.43-17.58Z"/></g><g><path d="M876.38,1758.65c-58.22,79.84,2265.09,92.53,2207.51,11.65C3217.27,1680.11,853.32,1680.67,876.38,1758.65Z" style="mix-blend-mode:multiply" fill="#a7a9ac"/><path d="M1528.61,1758.62c28.44-34.35,97.39-35.56,126.45-2,308.61-4.39,807.69.92,1014.27,11,28.16-51.28,127.82-47.18,147.4,8.13,80.36,5.64,137.33,12.17,175.91,19.26-308.66,47.51-1708.49,40-2020.34-10.12C1090,1772.53,1287.44,1763.33,1528.61,1758.62Z" style="mix-blend-mode:multiply" fill="#a7a9ac"/><path fill="#231f20" d="M1632.54,1617.81c144.88-26.34,102-240.51-41.44-207.14C1446.22,1437,1489.05,1651.17,1632.54,1617.81Z"/><path fill="#414042" d="M1578.31,1414.07c58.93-21.72,125.73,9.55,141.78,71.35h0a106.46,106.46,0,0,1,2.47,12.62c-13,8-48.35,15-63.26,19.55-59.26,15.65-100.16-82.35-100.2-82.55C1555.8,1422.75,1567.89,1416,1578.31,1414.07Z"/><path d="M1503.65,1543c35.37,124.73,197.76,81.49,166.43-44.3C1634.72,1374,1472.32,1417.24,1503.65,1543Z"/><path fill="#231f20" d="M2776.47,1736.25c144.88-26.34,102.05-240.5-41.44-207.14C2590.15,1555.45,2633,1769.62,2776.47,1736.25Z"/><path fill="#414042" d="M2722.24,1532.52c58.93-21.73,125.73,9.55,141.78,71.35h0a105.68,105.68,0,0,1,2.47,12.62c-13,8-48.35,15-63.26,19.54-59.26,15.65-100.16-82.35-100.2-82.55C2699.73,1541.2,2711.82,1534.4,2722.24,1532.52Z"/><path d="M2647.59,1661.47c35.36,124.74,197.75,81.49,166.42-44.3C2778.65,1492.44,2616.25,1535.68,2647.59,1661.47Z"/><path d="M1431.7,1543.48l1289.92,140.28c221.34,14.73,308.79-63.82,315.56-127l-175.1-103.28L1358.7,1290.3C1353.43,1374.93,1303,1527,1431.7,1543.48Z"/><path d="M2639.3,1661.79c-45-78.61-209.56-52.07-249.66-23.59l-44.57-53.31-786.88-84-78.12,37.17c-33.06-108.51-208.57-56.86-250.74-25.39-264.84-59.31-228,17.7-243.81-199.87l1721.92,162.63Z"/><path d="M1391.15,1516c22.46,120.12,261.74,75.74,239.61-44.44C1608.31,1351.42,1369,1395.8,1391.15,1516Z"/><path fill="#231f20" d="M2568.8,1774.36c144.89-26.34,102.06-240.51-41.44-207.14C2382.49,1593.56,2425.32,1807.72,2568.8,1774.36Z"/><path fill="#414042" d="M2514.58,1570.62c58.7-29.1,121.94,65.89,109,96.07l-28,7.45c-59.26,15.65-100.16-82.35-100.21-82.55C2492.06,1579.3,2504.16,1572.5,2514.58,1570.62Z"/><path fill="#808285" d="M2495.4,1591.71c-4.63-18.74,19.4-20.71,32-24.49,11.5-4.81,36.32,2.88,37.35,18.19-1.74,11.77-38.94-13-47.16,8.93C2511.79,1609.81,2501.74,1606.81,2495.4,1591.71Z"/><path d="M2439.92,1699.58c35.37,124.73,197.76,81.49,166.43-44.3C2571,1530.55,2408.59,1573.79,2439.92,1699.58Z"/><path fill="#e6e7e8" d="M2454,1695.84c24.58,86.72,137.49,56.66,115.71-30.8C2545.1,1578.32,2432.19,1608.38,2454,1695.84Z"/><path fill="#be1e2d" d="M2459.22,1694.44c22.36,78.86,125,51.52,105.22-28C2542.08,1587.57,2439.41,1614.91,2459.22,1694.44Z"/><path fill="#fff" d="M2493.69,1620.92c-43.6,37.66-2.41,127.14,54.79,108.21C2477.72,1785.45,2414.54,1649.92,2493.69,1620.92Z" opacity=".5"/><path d="M2512.56,1661.32c8.42-2.25,17.34,3.76,19.9,13.4s-4.41,36.35-13.12,35.9c-17.14-.89-18-19.64-20.59-29.28S2504.13,1663.56,2512.56,1661.32Z" style="mix-blend-mode:multiply" fill="#a7a9ac"/><path fill="#a7a9ac" d="M2516.47,1696.57c10.45-1.76,17.61-12,14.78-22.35h0c-6.08-22.84-42.65-13.1-36.56,9.73h0A17.8,17.8,0,0,0,2516.47,1696.57Z"/><path fill="#e6e7e8" d="M2494.71,1684c5.7,21,33.59,13.58,28.09-7.48C2517.1,1655.46,2489.21,1662.88,2494.71,1684Z"/><path d="M2506.71,1657.85c-21.69,5.78-38.56,19.93-47.28,37.24-20.64-78.86,81.09-108,104.64-29.83C2548.15,1655.64,2527.44,1652.34,2506.71,1657.85Z" style="mix-blend-mode:multiply" fill="#939598"/><path fill="url(#S)" d="M2451.72,1678.33c1.11,82.91,115.65,98.78,120.89,9.38C2576,1598.55,2452.52,1581.24,2451.72,1678.33Z"/><path d="M2482.64,1683.9c-.22,30.21,42,36,43.21,3.34C2526.41,1656.13,2483.57,1650.13,2482.64,1683.9Z" style="mix-blend-mode:multiply" fill="#58595b"/><path fill="#fff" d="M2512.44,1668c-26.86-2.11-49.63,8.72-58.75,25.62-18.07-117.66,138.16-99.24,116.84,9C2561.68,1684.37,2539.22,1670.07,2512.44,1668Z" opacity=".7"/><path d="M2494.45,1631.78c-.61,9.69,35.9,13.47,36.27,2.92C2531.51,1624.94,2494.62,1621.14,2494.45,1631.78Z"/><path d="M2541.49,1642.87c-7.68,3,9.1,41.33,16.94,36.78C2566.18,1676.55,2549.2,1638.12,2541.49,1642.87Z"/><path d="M2558,1693.49c-7.5-5.52-25.53,28.4-18.18,32.24C2547.46,1731.08,2565.28,1697.32,2558,1693.49Z"/><path d="M2529.35,1731.57c1-8.76-34.61-12.07-34.41-2.58C2494.08,1737.69,2529.35,1741,2529.35,1731.57Z"/><path d="M2481,1721.34c6.32-2.43-8.27-39.28-15.07-34.95C2459.67,1688.77,2474.07,1725.47,2481,1721.34Z"/><path d="M2465.82,1672.42c7.8,5.07,21.51-31.49,15.22-34.36C2473.36,1632.77,2459.44,1669.56,2465.82,1672.42Z"/><path fill="url(#T)" d="M2454.82,1678.57c.93,78.82,109.89,93.91,114.74,8.9C2572.62,1603,2455.72,1586.62,2454.82,1678.57Zm4.75.37c1-84.13,107.93-69.12,105.29,8.17C2560.58,1765.35,2460.23,1751.45,2459.57,1678.94Z"/><path fill="url(#U)" d="M2483.24,1680.89c-.23,26.6,36.85,31.72,37.93,2.94C2521.62,1656.52,2484.1,1651.25,2483.24,1680.89Z"/><path fill="url(#V)" d="M2484.86,1681.05c-.22,19.23,26.61,22.94,27.33,2.13C2512.7,1663.65,2485.3,1659.87,2484.86,1681.05Z"/><path fill="#231f20" d="M1409.73,1646.57c144.88-26.35,102-240.51-41.44-207.15C1223.41,1465.76,1266.24,1679.93,1409.73,1646.57Z"/><path fill="#414042" d="M1355.5,1442.83c58.71-29.1,122,65.89,109,96.06l-28,7.46c-59.26,15.64-100.16-82.35-100.2-82.56C1333,1451.51,1345.08,1444.71,1355.5,1442.83Z"/><path fill="#808285" d="M1336.32,1463.92c-4.63-18.74,19.4-20.71,32-24.5,11.5-4.8,36.32,2.89,37.36,18.19-1.75,11.77-39-13-47.17,8.94C1352.71,1482,1342.66,1479,1336.32,1463.92Z"/><path d="M1280.85,1571.78c35.36,124.74,197.76,81.49,166.42-44.3C1411.91,1402.75,1249.51,1446,1280.85,1571.78Z"/><path fill="#e6e7e8" d="M1294.9,1568c24.59,86.73,137.5,56.66,115.71-30.8C1386,1450.52,1273.11,1480.59,1294.9,1568Z"/><path fill="#be1e2d" d="M1300.15,1566.65c22.35,78.86,125,51.52,105.21-28C1383,1459.78,1280.33,1487.12,1300.15,1566.65Z"/><path fill="#fff" d="M1334.62,1493.12c-43.6,37.67-2.42,127.14,54.78,108.21C1318.64,1657.66,1255.47,1522.12,1334.62,1493.12Z" opacity=".5"/><path d="M1353.48,1533.52c8.43-2.24,17.34,3.76,19.91,13.41s-4.42,36.34-13.12,35.89c-17.14-.88-18-19.63-20.59-29.28S1345.05,1535.77,1353.48,1533.52Z" style="mix-blend-mode:multiply" fill="#a7a9ac"/><path fill="#a7a9ac" d="M1357.39,1568.78c10.45-1.77,17.62-12,14.78-22.35h0c-2.71-10.44-14-15.72-23.94-12C1325.73,1540.78,1334.69,1574.41,1357.39,1568.78Z"/><path fill="#e6e7e8" d="M1335.63,1556.15c5.7,21,33.6,13.59,28.1-7.48C1358,1527.66,1330.13,1535.09,1335.63,1556.15Z"/><path d="M1347.63,1530.06c-21.68,5.77-38.55,19.92-47.28,37.23-20.63-78.85,81.09-108,104.65-29.82C1389.08,1527.84,1368.36,1524.54,1347.63,1530.06Z" style="mix-blend-mode:multiply" fill="#939598"/><path fill="url(#W)" d="M1292.64,1550.53c1.12,82.92,115.66,98.78,120.9,9.38C1416.92,1470.76,1293.45,1453.45,1292.64,1550.53Z"/><path d="M1323.56,1556.1c-.22,30.22,42,36,43.22,3.35C1367.34,1528.33,1324.49,1522.33,1323.56,1556.1Z" style="mix-blend-mode:multiply" fill="#58595b"/><path fill="#fff" d="M1353.37,1540.18c-26.86-2.11-49.64,8.71-58.76,25.61-18.07-117.66,138.17-99.24,116.84,9C1402.61,1556.58,1380.15,1542.28,1353.37,1540.18Z" opacity=".7"/><path d="M1335.38,1504c-.62,9.68,35.9,13.47,36.26,2.92C1372.43,1497.15,1335.55,1493.34,1335.38,1504Z"/><path d="M1382.41,1515.07c-7.68,3,9.1,41.34,16.94,36.78C1407.1,1548.76,1390.12,1510.33,1382.41,1515.07Z"/><path d="M1398.94,1565.7c-7.5-5.53-25.53,28.39-18.18,32.24C1388.38,1603.28,1406.21,1569.53,1398.94,1565.7Z"/><path d="M1370.27,1603.77c1-8.76-34.6-12.06-34.41-2.57C1335,1609.9,1370.28,1613.19,1370.27,1603.77Z"/><path d="M1321.92,1593.54c6.33-2.42-8.26-39.27-15.07-35C1300.6,1561,1315,1597.67,1321.92,1593.54Z"/><path d="M1306.74,1544.63c7.8,5.06,21.51-31.49,15.22-34.36C1314.28,1505,1300.36,1541.76,1306.74,1544.63Z"/><path fill="url(#X)" d="M1295.74,1550.77c.93,78.82,109.89,93.91,114.74,8.91C1413.55,1475.21,1296.64,1458.82,1295.74,1550.77Zm4.75.37c1-84.13,107.93-69.11,105.3,8.18C1401.51,1637.55,1301.16,1623.65,1300.49,1551.14Z"/><path fill="url(#Y)" d="M1324.16,1553.09c-.23,26.6,36.86,31.73,37.93,3C1362.55,1528.73,1325,1523.46,1324.16,1553.09Z"/><path fill="url(#Z)" d="M1325.78,1553.26c-.22,19.23,26.62,22.93,27.34,2.12C1353.62,1535.86,1326.22,1532.08,1325.78,1553.26Z"/><path fill="#ed1c24" d="M1002.17,1174.33c28.81-61.79,249.49-51.28,297-51.45,28.61-33.23,226.39-265.49,291.08-278.7,94.34-19.25,316.85-43.5,602.1,29.05,85.71,21.8,226.49,176.28,320.89,333.11,43.86,9.84,551.94,88.58,525.6,309l26.07,21.51s.7,73.21-34.87,92.2c-66.16,35.34-320.35,25.69-344.6,25,0,.21,0,.42,0,.62l-46.09,7.11c18.61-180.54-226.77-202.24-249.66-23.58l-28.87-16.88-832.33-91.7h0l-48.37,8.47c11.94-177.49-222.87-200-250.74-25.39l-23.83-16.27-219.9-32.92c-19.72-2-51.66-59.54-46.44-138,.64-9.54,37.42-10.89,37.33-13.27C974.81,1265.82,981.11,1219.52,1002.17,1174.33Z"/><path d="M976.49,1312.25c-1.14-48.49,4.29-100.85,30.74-145.86l1260.25,153.4c608,78.62,607.94,110.79,601.66,224.3,45,14,2.57,78.56-22.23,110.86-76.69,2.16-149.1-.53-161.49-.89,0,.21,0,.42,0,.62,10.82-226.49-297.2-260.59-324.62-33.35l-832.33-91.7h0c-1.12-209.58-287.28-239.49-322.93-33.19l-219.9-32.92c-19.72-2-51.66-59.54-46.44-138C939.79,1316,976.58,1314.63,976.49,1312.25Z" style="mix-blend-mode:multiply" fill="#e6e7e8"/><path d="M2777.46,1655.77a251,251,0,0,0-95.28-49.07,193.29,193.29,0,0,1,3.21,48c0-.2,0-.41,0-.62C2693.91,1654.31,2730.56,1655.65,2777.46,1655.77Zm-403.77-86.1L1519.19,1473a190.35,190.35,0,0,1,9.24,56.65h0l832.33,91.7A188.28,188.28,0,0,1,2373.69,1569.67ZM958.89,1436c8.72,16.75,18.72,26.68,26.71,27.5l219.9,32.92a186.74,186.74,0,0,1,19.51-56C1151.36,1434.27,1028.78,1408.08,958.89,1436Z" style="mix-blend-mode:multiply" fill="#d1d3d4"/><path fill="#f4777c" d="M2945.72,1478.76c-58.72-163.06-565.62-244.67-600.81-250.62-94.41-156.82-210.14-311.2-295.85-333-193.19-49.14-357.54-53.85-472.85-45.81,109.86-28.83,317.85-48,616.12,23.9,85.71,21.8,226.49,176.28,320.89,333.11,42,9.53,537.55,86.33,525.74,298.36C2992.75,1496.36,2949.1,1488.16,2945.72,1478.76Z"/><g mask="url(#aa)"><path fill="url(#q)" d="M2513.22,1206.34c42,9.53,537.55,86.33,525.74,298.36-5.84-1-11.62-2.1-17.3-3.15-14.95-200-527.66-277.94-568.59-288-7.8-12.4-21.65-22.62-8.25-31.32l55.85,3.71C2504.93,1192.76,2509.14,1199.54,2513.22,1206.34Z" opacity=".8"/></g><g mask="url(#ab)"><path fill="url(#ac)" d="M2192.33,873.23c30.16,7.67,67.14,31.82,106.52,66.67l-75.4-5c-117.86-92.06-382.09-98-494.88-108.07C1843.35,819.65,2004.17,825.38,2192.33,873.23Z" opacity=".8"/></g><g mask="url(#ad)"><path fill="url(#ae)" d="M2267.48,1319.79,1036.07,1169.9c194.37-69.49,1680.54,104.76,1815.05,283.14C2782.75,1409.71,2717,1377.63,2267.48,1319.79Z"/></g><path fill="#f8a4a7" d="M2837.88,1554.81c-75.06-2.83-126.36-27.4-126.36-27.4s38.18,6.46,120.53,5.73c155.48-1.38,206.77-17.78,206.77-17.78l26.06,21.51S2997.29,1560.83,2837.88,1554.81Z"/><path d="M976.49,1312.25c-3.79-41,.4-82.82,19.14-122.6,14.41,17.29,26.41,62.38,17.77,136.54C1013.4,1326.19,976.6,1313.4,976.49,1312.25Z"/><path fill="#be1e2d" d="M994.44,1192.13c12.22,15.49,22.45,53.91,17.73,116.14a6.44,6.44,0,0,1-8.22,5.66l-28.21-8.16C973.33,1267.7,977.85,1229.06,994.44,1192.13Z"/><path fill="#ed1c24" d="M975.17,1291.2c-.41-28,3.28-56.15,13.05-83.55C1000.46,1213.22,1014.75,1299.15,975.17,1291.2Z"/><path fill="#f8a4a7" d="M1242.46,1377.72s-234.52-34.93-303.43-49.66c-2.93-12.77,37-12.91,37.46-15.81h0Z"/><path d="M2070.73,947.28c-7.11-20.51,296.4,281.21,215.63,283.17L1851,1180.68c12.45-121.55,32.8-232,42.23-279.7C1976,912.05,2046,930.1,2070.73,947.28Z"/><path fill="#00544f" d="M2203.1,1170.09a107.75,107.75,0,0,1-93.79-87.82c-2.85-15.56-6.28-29.63-10.27-37.87-13-27-47.17-63.69-47.17-63.69l3.91-41.53c60.65,35.31,134.57,110.45,225.3,239.72Z"/><path fill="#1c75bc" d="M2035.73,1087.88c122.4,152.34,233.34,21.36,227,127.93,0,0-157.53,17.84-211.21-41.75C2020.81,1140,2018.36,1109.65,2035.73,1087.88Z"/><path d="M2035.73,1087.88s1,1.41,3,3.77c1.4,99,164.75,107.11,222.14,100.1a104.71,104.71,0,0,1,1.86,24.06s-157.53,17.84-211.21-41.75C2020.81,1140,2018.36,1109.65,2035.73,1087.88Z" style="mix-blend-mode:multiply" fill="#bcbec0"/><path d="M2035.73,1087.88s23.7,32.58,65.91,57.08c-6.4,19.36-11.23,39.35.94,59.29C2051.55,1193.1,2002.54,1123.85,2035.73,1087.88Z" style="mix-blend-mode:multiply" fill="#bcbec0"/><path fill="#1c75bc" d="M2088.88,1207.91l-232.38-24.13c4.91-45.94,22.48-122.53,56.55-125.14C2038.23,1059,2065.82,1082.23,2088.88,1207.91Z"/><path fill="#e6e7e8" d="M1993.15,1064c1,.07,1.89.24,2.84.34,24.63,32.72,16.62,110.58,16.62,110.58s-60.38-81.65-99.56-116.25Z"/><path d="M1914.57,1189.81c3.79-24.27,16-64.14,16-64.14l8.46,66.67Z" style="mix-blend-mode:multiply" fill="#d1d3d4"/><path d="M1922,1090.65c-9.43-3-21-9.88-29.94-19.57,6.17-7.23,13.16-11.83,21-12.44,125.19.37,152.77,23.6,175.83,149.27l-18.44-1.92C2068.07,1124.14,1987.92,1117.63,1922,1090.65Z" style="mix-blend-mode:multiply" fill="#d1d3d4"/><g mask="url(#af)"><path fill="url(#ag)" d="M2360.77,1621.33c27.51-227.36,335.47-193,324.62,33.35l-46.09,7.11c18.61-180.54-226.77-202.24-249.66-23.59Z" opacity=".8"/></g><g mask="url(#ah)"><path fill="url(#ai)" d="M1205.5,1496.45c35.73-206.37,321.81-176.33,322.94,33.19l-48.37,8.47c11.94-177.49-222.87-200-250.74-25.39Z" opacity=".8"/></g><path d="M2444.28,1486.13c-45.38,27-77.42,76.91-83.52,135.2h0l-16.62-1.71C2353.77,1558.79,2392.28,1508.39,2444.28,1486.13Z" style="mix-blend-mode:multiply" fill="#a7a9ac"/><path d="M1205.5,1496.45h0l-14.59-2.19c12.6-50.56,45.11-92.29,88-114.11C1241.38,1405.72,1214.22,1447.56,1205.5,1496.45Z" style="mix-blend-mode:multiply" fill="#a7a9ac"/><path d="M2924.09,1526.74s-104.1,6.87-193.44-5.38c-3.58-83,89-58.75,177-64.57C2918.73,1457.52,2924.09,1526.74,2924.09,1526.74Z"/><path fill="#a7a9ac" d="M2740.15,1495.7c9.12-23.94,35-40.61,115.71-32.36,5.1.89,10.36,59.47,7.11,59.47-34.72,0-82.39-1.38-124.43-6.86C2738.58,1510,2737.71,1501.3,2740.15,1495.7Z"/><path fill="#e6e7e8" d="M2904.41,1461.86c8.11.54,13.2,36.68,15,52.5a6.66,6.66,0,0,1-6.11,7.6c-7.59.31-21.18.75-39.45.86a3.12,3.12,0,0,1-3.07-3.17C2873,1454.56,2840.93,1464.7,2904.41,1461.86Z"/><path fill="#fff" d="M2881.23,1493.33c3.68,32.84,32,29,29.17-3.36C2906.72,1457.12,2878.37,1461,2881.23,1493.33Z"/><path d="M2918.28,1505.2c.82,6.45,3.61,15.8-4.94,16.76-7.59.31-21.18.75-39.45.86a3.12,3.12,0,0,1-3.07-3.17c0-5.21-.24-16.17-1.51-27.81C2884.36,1501,2901.37,1505.93,2918.28,1505.2Z" style="mix-blend-mode:multiply" fill="#d1d3d4"/><path d="M2867.38,1463.35,2900,1462c-10.83,18.24-5.42,40.56,5.29,60.21-7.78.24-18.38.49-31.4.57a3.12,3.12,0,0,1-3.07-3.17c0-9-.63-34.86-6.23-52.1A3.18,3.18,0,0,1,2867.38,1463.35Z" style="mix-blend-mode:multiply" fill="#e6e7e8"/><path d="M2750.77,1500.18c6.08-15.94,23.35-27,77.08-21.55,3.4.59,6.9,39.61,4.74,39.61-23.13,0-54.89-.92-82.89-4.57C2749.73,1509.67,2749.15,1503.92,2750.77,1500.18Z" style="mix-blend-mode:multiply" fill="#d1d3d4"/><path d="M2750.79,1479.33c38.84-3.54,77.72.6,111.9,15.5,1.43,14.26,1.85,28,.28,28-34.72,0-82.39-1.38-124.43-6.86C2737.2,1502.42,2740.26,1488.91,2750.79,1479.33Z" style="mix-blend-mode:multiply" fill="#d1d3d4"/><path fill="#f7941d" d="M2754.75,1497.92c6.07-15.94,23.34-27.05,77.07-21.55,3.4.59,6.9,39.61,4.74,39.61-23.13,0-54.89-.91-82.89-4.57C2753.7,1507.41,2753.12,1501.66,2754.75,1497.92Z"/><path d="M2863.36,1502.49c.85,11.14.9,20.32-.39,20.32-34.72,0-82.39-1.38-124.43-6.86-1.11-12.22,1-24.84,9.83-34.06C2783.34,1501.34,2823.41,1508.34,2863.36,1502.49Z" style="mix-blend-mode:multiply" fill="#bcbec0"/><path fill="#fff" d="M2838.49,1494.09c0,33.5,17.48,33.33,17.85,0C2856.36,1460.59,2838.86,1460.76,2838.49,1494.09Z" opacity=".5"/><path fill="#fff" d="M2814.85,1492.25c21.07,1.38,21.91-11.12.83-12.54S2793.77,1490.83,2814.85,1492.25Z" opacity=".5"/><path d="M3013.27,1517.77l-3.18-66,20.11-2s12.59,22.5,10,61.17C3040,1514.61,3013.27,1517.77,3013.27,1517.77Z"/><path fill="#e6e7e8" d="M3040.35,1508c-9.13,2.82-25.54,5.74-25.54,5.74-.51-6.71-4.65-53.72-4.58-59.14l21.61-1.28C3035,1460.72,3041.68,1479.82,3040.35,1508Z"/><path fill="#414042" d="M3022.47,1521.75c-.83-3.44-2.4-93-6.88-92-35.88-41.23-51.39-28.19-86.78,6.16-2.95,2.92-8,9.63-7.43,15l8.06,81.43C3020.32,1535.82,3022.47,1521.75,3022.47,1521.75Z"/><path fill="#58595b" d="M3019.62,1507.9c-.83-1.8-2-73.86-5.51-72.68-24.6-19.55-54.17-5.67-79.35,6-3.9,1.82-6.4,8.42-5.63,14.82l7.62,63.49a9.63,9.63,0,0,0,8.79,8.58C2989.54,1527.62,3020.16,1528.76,3019.62,1507.9Z"/><path d="M3015.07,1507.53l-3-66c-.11-2-4.43-5.42-5.55-6.17-15.78-15.49-54.91-3.15-71.73,5.88-3.9,1.82-6.4,8.42-5.63,14.82l7.62,63.49c.66,5.54,4.87,6.38,8.31,6.48C2986.46,1526.09,3016.45,1524,3015.07,1507.53Z" style="mix-blend-mode:multiply"/><path fill="#00544f" d="M1656.8,894.43c54.57-6,117.43-5,177.76.14-10,51-29.74,159.95-42,279.43l-358-40.92C1476.4,1019.87,1578.23,903,1656.8,894.43Z"/><path fill="#fff" d="M1656.8,894.43c54.57-6,117.43-5,177.76.14-5,25.35-12.34,65-20,113.17-87.52-19.84-191.39-31-285-30.53C1570.64,931.37,1616.74,898.81,1656.8,894.43Z" opacity=".5"/><path d="M2286.08,1232.8,1850.69,1183c4.82-118.83,34.21-241.34,40.1-282.51,218.26,18.63,256.53,94.75,411.5,306.45C2310,1218.3,2299.64,1234.85,2286.08,1232.8ZM2069.3,949.21c-23.88-16.61-92.07-34.44-174.13-45.57-8.68,44.17-29.06,154.41-41.52,275l433,49.49a11.81,11.81,0,0,0,11.3-5.34,12.14,12.14,0,0,0,.17-13.31c-83.13-132-182.37-228-228.8-260.23Zm-277,227.15c-1.91-1.36-358.86-39.12-359.77-42,35.72-106.83,141.51-233.09,224-242.26,49.47-3.22,119.7-10.13,180.45,2.94C1824.25,946.58,1810.76,1063.9,1792.26,1176.36ZM1657.08,896.79c-73,8-174.87,117.09-219.16,234.29l352.43,40.28c12-115.72,30.79-220.65,41.29-274.66C1767.12,891.31,1706.82,891.35,1657.08,896.79Z"/><path fill="#231f20" d="M2300.19,1208.22c6.48,10.28-1.83,23.6-13.83,22.23l-87.58-10,40.16-100.16C2259.55,1147.18,2280.26,1176.57,2300.19,1208.22Z"/><path d="M2279.9,1239.62c-5.22-7.67-863.35-85-856.86-105.25,40.48-109.57,141.47-233.17,227.28-242.54,359.11-10.73,449.89,15.78,649.33,316.6C2309.06,1222.21,2296.32,1242.11,2279.9,1239.62Zm-628.15-336c-71,7.75-169.83,113.27-214.51,227.75l844.05,96.49c6.68.72,11.83-6.79,7.92-13.28C2206.36,1083,2107.59,987.5,2061.4,955.38,2009.2,918.07,1759.79,887.88,1651.75,903.61Z" style="mix-blend-mode:multiply" fill="#bcbec0"/><path fill="#e6e7e8" d="M2285.67,1236.33c-5.22-7.67-863.36-85-856.86-105.25,40.47-109.57,141.46-233.16,227.28-242.54,359.1-10.72,449.89,15.78,649.33,316.6C2314.82,1218.92,2302.08,1238.83,2285.67,1236.33Zm-628.16-336c-71,7.75-169.83,113.27-214.51,227.76l844.05,96.48c6.68.72,11.84-6.78,7.92-13.27-82.84-131.55-181.62-227.08-227.8-259.2C2015,914.78,1765.55,884.59,1657.51,900.32Z"/><path d="M2138.9,1269c.94-30.7,35.66-53.29,58.1-69.85,12.16-10,31.75-16.75,32.44,3l-.28,12,33.42-25.22c4.12-.42,1.4,23-19.28,35.39l-24.64,10.13c-4.09,3-63,48.35-66.37,49.23a.58.58,0,0,0,.1.12C2138.1,1290.21,2138,1280,2138.9,1269Z" style="mix-blend-mode:multiply" fill="#bcbec0"/><path fill="#ed1c24" d="M2235.49,1176l27.48,7.59c4.21,3.74.06,30.88-21.68,25.38l-22.91-26.7Z"/><path d="M2229.84,1178.07c9.22,11.44,22.58,21.42,33.92,16.29-2,8.47-8.69,18.1-22.47,14.61l-22.91-26.7Z" style="mix-blend-mode:multiply" fill="#bcbec0"/><path d="M2232.31,1198.5l-13.93-16.23,17.11-6.27,11.27,3.12C2245.27,1187.19,2239.64,1193.79,2232.31,1198.5Z" style="mix-blend-mode:multiply" fill="#939598"/><path fill="#ed1c24" d="M2162.75,1187.9l62.42,4.15a12.38,12.38,0,0,0,13.18-11.54c4.13-26-.54-52.88-31.5-56.15-25.79-2.41-59-7.5-63,27.55C2141.57,1168.25,2142.6,1185.56,2162.75,1187.9Z"/><path fill="#fff" d="M2232.22,1185.88c4.14-26-.54-52.88-31.5-56.16-12.89-.07-38.16-5.82-49,3.36,11.41-15.73,38.72-9.3,55.13-8.72a35.16,35.16,0,0,1,32.75,37.42c-1.35,8,1.62,26.38-9,29.36A12.06,12.06,0,0,0,2232.22,1185.88Z" opacity=".5"/><path d="M2175.83,1122.3c17.94,2,47.74-2,57.75,17.59-8.07-6.18-36.58-5-46.27-6.35-26.23-1.73-38.25,30.45-30.78,53.11-13.31-4.72-14.77-20-12.8-32.93C2145,1135.27,2159.33,1121.2,2175.83,1122.3Z" style="mix-blend-mode:multiply" fill="#e6e7e8"/><path d="M2237.55,1184a12.36,12.36,0,0,1-12.38,8l-62.42-4.15c-16.25-1.23-22-16.45-19.25-30.82C2171.73,1147.9,2220.63,1148.49,2237.55,1184Z" style="mix-blend-mode:multiply" fill="#e6e7e8"/><path d="M1357,1210.05c3.27,51.28,3.8,117.17,60.51,138.86,136.77,59.89,121.62,188.79,122.62,191.89.73,1.55,268.25,28.66,269.23,29.44.06.33.11.67.16,1l2.34-.4c0-.12,0-.23,0-.35,1.93.11,403.92,43.69,405.63,43.83,67.7-16.8,87.63-275.6,93.19-288.72.08-.31,23.28-44.89,23.27-45.26L2343,1224a1.2,1.2,0,0,0-1-1.36,1.22,1.22,0,0,0-1.36,1l-9.14,56.18c-.12.4-23.32,44.91-23.29,45.33-4.58,2.23-24.83,272.43-92.21,286.68l-404.68-43.72c-20.32-189.55-17.25-287.37,8.06-359.51,7.73-112.07,48.19-321.94,50.5-333.07,99.57,8.8,191.7,37.86,216.19,45.25-47.85-28.19-304.92-71.8-436.59-51C1530.56,874.36,1378.55,1147.62,1357,1210.05Zm2.38.09c96.46-177.17,160.81-399.55,508.23-334.93-2.56,13.08-42.85,220.44-50.31,332.38-25.53,71.89-28.53,170.78-8.33,360.22L1542.31,1539c.44-201.57-160.31-151.39-177.69-267.75C1364.63,1271.26,1359.35,1210.14,1359.35,1210.14Z"/><g mask="url(#aj)"><path fill="url(#F)" d="M1860.4,1259.71c-1,8.21,1.31,26.55,31.48,29.76,21.7,2.31,40.65-14.16,41.62-22.37s-16.6-13.91-38.27-16.47S1861.37,1251.49,1860.4,1259.71Z"/></g><path fill="#231f20" d="M1849.25,1259.44l88.64,10.47c.45-7.51,5.69-22.81-6.16-24.18l-70.85-8.37C1849.08,1235.91,1850.52,1252.06,1849.25,1259.44Z"/><path fill="#58595b" d="M1934.52,1258.53c.56-4.74-3.12-9.07-8.21-9.67l-70.21-8.29a9.8,9.8,0,0,0-3.39.19c2-8.53,73.15,6,78.7,4.93,12.34,1.34,6.93,16.54,6.48,24.22l-4.65-.55Z"/><g mask="url(#ak)"><path fill="url(#al)" d="M1435.18,1208.76c-1,8.21,1.31,26.56,31.48,29.76,21.7,2.31,40.65-14.15,41.62-22.37s-16.6-13.91-38.27-16.47S1436.15,1200.55,1435.18,1208.76Z"/></g><path fill="#231f20" d="M1424,1208.5l88.64,10.46c.45-7.51,5.69-22.81-6.16-24.18l-70.86-8.37C1423.86,1185,1425.3,1201.11,1424,1208.5Z"/><path fill="#58595b" d="M1509.29,1207.58c.56-4.74-3.11-9.07-8.2-9.67l-70.21-8.29a9.8,9.8,0,0,0-3.39.19c2-8.53,73.15,6,78.7,4.93,12.34,1.34,6.93,16.54,6.48,24.22l-4.65-.55Z"/><path fill="#00a79d" d="M2247.89,900.1c83.2,55.17,189.3,179.93,265.33,306.24L2346,1224.58c-78.86-117.17-176.74-248.87-259.67-302.15C2183.94,883.41,2247,899.52,2247.89,900.1Z"/><path fill="#00544f" d="M2439.25,1189.8c.53-9.74-127.11-248.52-253.41-292.32,38.88-3.59,61.52,2.27,62,2.62,83.2,55.17,189.3,179.93,265.33,306.24L2346,1224.58a5,5,0,0,1-4.87-2.43q-12.78-21.42-26.6-42.65C2370.48,1187.38,2438.93,1195.79,2439.25,1189.8Z"/><path fill="#fff" d="M2167.16,992.58c-28-28.66-55.48-52.72-80.81-70.15,97.59-39,160.66-22.91,161.54-22.33,45.34,30.07,97.49,80.83,147.86,141.23C2325.14,1009.65,2246.64,995.42,2167.16,992.58Z" opacity=".5"/><path fill="#fff" d="M2164.46,900.25c51.84-8.51,82.81-.56,83.43-.15,83.2,55.17,189.3,179.93,265.33,306.24l-63.9,7C2365.82,1086.15,2255.21,962.77,2164.46,900.25Z" opacity=".3"/><path d="M2344.91,1228.14c.49,0,170.59-19.52,171.46-21.28,1.16-2.3-1.75-4.22-5.17-3.88L2345.63,1221c-74.71-120.83-168.6-237.16-246.38-293.74a3.64,3.64,0,0,1,.92-6.34c88-32.24,134.67-20.24,150.68-18.89-4.9-11.35-66.53-19.85-165.82,17.06a3.59,3.59,0,0,0-.7,6.24C2164.89,976,2263.34,1109.94,2344.91,1228.14Z"/><path fill="#fbb09e" d="M1992.2,920.75c.43,25.34,38.13,25.34,38.56,0C2030.33,895.4,1992.63,895.4,1992.2,920.75Z"/><path d="M2011.3,920.75a13.39,13.39,0,0,0-6.72-11.58c8.51-5.34,20.44,1.47,20.15,11.58.29,10.1-11.64,16.92-20.15,11.57A13.38,13.38,0,0,0,2011.3,920.75Z" style="mix-blend-mode:multiply" fill="#fbb09e"/><path d="M2011.48,901.46a19,19,0,0,1,5.15.79,45.85,45.85,0,0,0-.45,37.13C1988.32,945.56,1983,902.41,2011.48,901.46Z" style="mix-blend-mode:multiply" fill="#e6e7e8"/><path fill="#fbb09e" d="M1891.1,920.75c-.43,25.34-38.13,25.34-38.56,0C1853,895.4,1890.68,895.4,1891.1,920.75Z"/><path d="M1872,920.75a13.39,13.39,0,0,1,6.72-11.58c-8.51-5.34-20.44,1.47-20.15,11.58-.29,10.1,11.64,16.92,20.15,11.57A13.38,13.38,0,0,1,1872,920.75Z" style="mix-blend-mode:multiply" fill="#fbb09e"/><path d="M1871.82,901.46a19.1,19.1,0,0,0-5.15.79,45.81,45.81,0,0,1,.45,37.13C1895,945.56,1900.33,902.41,1871.82,901.46Z" style="mix-blend-mode:multiply" fill="#e6e7e8"/><path fill="#fbb09e" d="M2007.68,863.56s-8.84,141.88,17.06,168.4c56.81,58.2-120.56,64.75-133.64,47.63-35.34-46.27-12.76-219.45-12.76-219.45S1965.82,837.82,2007.68,863.56Z"/><path d="M1921.75,903.6c-3.13,1.66-11.28-3.69-20.27,1.77-5,2.1-2.47,11.3-7.6,11.24-6.92-2.41.5-14.19,4.15-16.24C1908.05,893.9,1928.93,896.68,1921.75,903.6Z"/><path d="M1971.22,903.91c3.15,1.61,11.21-3.87,20.29,1.44,5.07,2,2.66,11.26,7.79,11.12,6.9-2.25-.81-14.38-4.41-16.17C1984.76,894,1963.93,897.12,1971.22,903.91Z"/><path d="M1975.1,1017c0,28.2-9.3,31.82-20.78,31.82-38.91,5.72-14.42-109.51,0-107.46C1965.8,941.38,1975.1,988.81,1975.1,1017Z" style="mix-blend-mode:multiply" fill="#a7a9ac"/><path fill="#fbb09e" d="M1970.59,1004.42c0,27.28-9.3,30.78-20.78,30.78-38.71,5.84-14.63-105.73,0-103.93C1961.29,931.27,1970.59,977.14,1970.59,1004.42Z"/><path fill="#fdd0c5" d="M1952.5,932.2c-17.45-10.23-40.16,105.08-5.82,102.87C1953.09,1004.78,1954.81,962.73,1952.5,932.2Z"/><path d="M1936.93,929.05c-.44,25.55-38.26,25.54-38.7,0C1898.67,903.49,1936.5,903.5,1936.93,929.05Z" style="mix-blend-mode:multiply" fill="#a7a9ac"/><path fill="#fbb09e" d="M1934.14,927.13c-.44,25.55-38.27,25.55-38.7,0C1895.87,901.58,1933.7,901.58,1934.14,927.13Z"/><path fill="#f1f2f2" d="M1929,927.13c-.11,21.42-28.4,21.42-28.5,0C1900.64,905.71,1928.93,905.71,1929,927.13Z"/><path d="M1922.09,920.75c4.66,5.36-5.32,10.55-5.63,2.71-2.49,3.78.12,10.23,4.64,10C1927.84,933.68,1928.59,921.83,1922.09,920.75Z"/><path d="M2001.7,928.09c-.43,25.55-38.26,25.55-38.69,0C1963.44,902.54,2001.27,902.54,2001.7,928.09Z" style="mix-blend-mode:multiply" fill="#a7a9ac"/><path fill="#fbb09e" d="M1998.91,926.17c-.44,25.55-38.27,25.55-38.7,0C1960.65,900.62,1998.48,900.63,1998.91,926.17Z"/><path fill="#f1f2f2" d="M1993.81,926.17c-.11,21.43-28.4,21.42-28.5,0C1965.41,904.75,1993.71,904.75,1993.81,926.17Z"/><path d="M1986.87,919.79c4.65,5.36-5.33,10.55-5.63,2.71-2.49,3.78.11,10.23,4.64,10.06C1992.61,932.72,1993.36,920.87,1986.87,919.79Z"/><path d="M2029.83,834.68c-4.2-1.27-8.83.34-13.15,3.84-.42-19.64-16.91-34.15-29.43-18.8-6.07-20.39-28.14-28.1-40.8-10.83-7-19.23-26-26-38-9.28-27.58-47.31-84.71-16.66-82.89,37.09-1.3,58.86,62.49,85.47,86.54,29.9,11.13,10.59,25.39,4.93,32.39-9,9.65,17.11,31,16.16,39.87-1.35,3.83,7.65,10.15,12.52,17.49,10.56-2.33,14,1.44,26.21,9.63,28.69C2033.86,902.41,2052.33,841.29,2029.83,834.68Z"/><path d="M1908.11,1071.2c-31.82-41.66-16.69-186.16-13.36-214.54-10,1.86-16.41,3.48-16.41,3.48s-22.58,173.18,12.77,219.45c9.4,12.32,103.9,12.38,135-10.25C1986.47,1083.29,1916.17,1081.75,1908.11,1071.2Z" style="mix-blend-mode:multiply" fill="#e6e7e8"/><path d="M1964.75,1064c-6.09-21.19-59.69-5.48-53.39,15.64,2.63,9,12.44-1.83,27.19-6.15S1967.38,1073,1964.75,1064Z" style="mix-blend-mode:multiply" fill="#d1d3d4"/><path fill="#fbcce8" d="M1961.65,1063.27c-6.09-21.18-59.69-5.48-53.39,15.64,2.63,9,12.44-1.83,27.19-6.15S1964.28,1072.24,1961.65,1063.27Z"/><path fill="#5b1322" d="M1960.55,1063.6c-4.7-16.83-56.31-1.71-51.18,15,2.08,7.11,11-5,25.1-9.17S1962.63,1070.71,1960.55,1063.6Z"/></g><g><path fill="#ef4136" d="M2504.12,652.31c0-41.65.61-81.26,7.83-117.14l-79.55-29.55,94.32-37.44-62.33-117L2599.07,400l-11.69-72.56L2658.94,385c90.41-31.55,325.06-36.79,425.68-2.17,46.66,19.46,133.13-43.76,174.33-59.34l-48.74,121.42,98.23-16.1-56.82,98.41-.16-.22c32.32,102.39,29.89,247.19-47.09,326.71l35.3,132.09-139.66-69a463.1,463.1,0,0,1-70.27,17.82l-32.65,270.73-57.15-260.94c-67.18,3.88-153.12-.49-207.64-12.64-39.76-11.34-74.1,24.66-101.72,47.25V901.9l-134.19,30.59,45.42-118.07C2513.83,768,2504.12,712.25,2504.12,652.31Z"/><path d="M2425.27,508.44c-3.52,3.89,76.3,30.24,77.86,31.73-11.27,91-15.7,192.49,30.72,274.88-63.37,171.56-73.58,124.81,90.62,94.59l.38,69.39c-.17,4.74,5.85,7.54,9.36,4.44,23.91-18.12,49.92-49.93,82.78-48.29,6.38-.14,13,1,19.23,2.29,66.29,12.59,134,13.28,201.17,10.25,84.65,361.45,45.34,327.9,95.59-10a468.64,468.64,0,0,0,66.64-16.31c177.39,80,160.27,127.5,111.76-65.92,77.82-85.38,77.8-222.21,46.62-327.51,60.19-119.36,101.88-113.94-40.57-88.9l44.72-114.25a3.45,3.45,0,0,0-4.71-4.37c-29.94,13.68-96.44,51.88-126.63,61.9a87.08,87.08,0,0,1-46-.18c-34.29-10.73-69.81-17.23-105.52-21.22-106.18-9.6-215.32-9.39-319.09,18l-69-56.22a6,6,0,0,0-8.5.87c-4.07-.93,8.74,64.85,8.3,66.52-154.58-50.54-165.61-94.92-74.87,74.15l-86.54,34.24A7.66,7.66,0,0,0,2425.27,508.44Zm87.27,98.06c.09-94.52,36.4-64.91-58.78-101.14l75.74-30.18a7.53,7.53,0,0,0,4.24-9.76c-.34-1-53.59-100.09-54-101l117.14,41.7a6.46,6.46,0,0,0,8.6-7.11L2596,342c2.59.54,62.41,53.15,64.62,48.31,102.53-29.88,212.27-31.45,318.31-25,178.8,20.07,95.3,50.49,273.5-34.83-52.49,145.49-85.9,123.52,45.65,105.5-73.35,132.5-49.73,45.11-35.49,175.79,5.25,82.48-2.54,175.39-62.71,237.6a6.32,6.32,0,0,0-1.57,6c8,29.5,24.49,90.74,32.68,120L3101.9,913a4.18,4.18,0,0,0-3.28-.21,462.35,462.35,0,0,1-69.57,18.32c-5.13-3.05-9.08,69.76-10.43,70.85-5,42.19-17.07,146.56-22.19,189.85-19.06-74.71-33.82-180.46-56.65-250.6-67.43,2-135.46.68-201.68-13.16-45.68-11.51-69.27,12.13-101.72,38.93l.36-65.07a6.13,6.13,0,0,0-6.1-6.17c-2-.07-121.43,27.11-123.29,27.34L2548.54,817a7.18,7.18,0,0,0-.55-6.32C2511.24,749.59,2510.13,675.92,2512.54,606.5Z"/><path fill="#fff" d="M2721.91,760.45c23.43-42,102.67-19.85,70.72,30.32C2770.07,832.61,2690.6,811.09,2721.91,760.45Zm66.47-72.23,166-270,57.53,24.66L2829.14,705.69Z"/><path fill="#fff" d="M2882.38,766.14c16-28.67,70.1-13.55,48.29,20.71C2915.26,815.42,2861,800.72,2882.38,766.14Zm45.39-49.33L3041.13,532.4l39.29,16.84L2955.6,728.74Z"/></g><g><path d="M4596.3,1438.11c5.39,15.12-229.66,15.12-224.25,0C4366.66,1423,4601.71,1423,4596.3,1438.11Z" style="mix-blend-mode:multiply" fill="#a7a9ac"/><rect width="40.6" height="674.61" x="4463.88" y="743.18" fill="#6d6e71"/><rect width="20.3" height="674.61" x="4484.18" y="743.18" style="mix-blend-mode:multiply" fill="#d1d3d4"/><rect width="40.6" height="50" x="4463.88" y="743.18" fill="#808285"/><polygon fill="#414042" points="4484.18 1440.2 4548.99 1440.2 4529.48 1375.38 4484.18 1375.38 4484.18 1440.2"/><polygon fill="#231f20" points="4484.18 1440.2 4419.36 1440.2 4438.87 1375.38 4484.18 1375.38 4484.18 1440.2"/><path fill="#1c75bc" d="M4653.54,594.56c-3.8,222.63-335,222.6-338.73,0C4318.62,371.94,4649.77,372,4653.54,594.56Z"/><path fill="#fff" d="M4643.48,594.56c-3.57,209.41-315.06,209.38-318.61,0C4328.45,385.16,4639.94,385.19,4643.48,594.56Z"/><path fill="#1c75bc" d="M4634.65,594.56c-3.38,197.8-297.6,197.77-300.95,0C4337.08,396.76,4631.3,396.8,4634.65,594.56Z"/><path fill="#fff" d="M4574.19,506.31a217.44,217.44,0,0,1,59.27,8.24c-126.59-214.56-433.65-1.82-276.11,192.2C4366.1,594.61,4459.8,506.31,4574.19,506.31Z" opacity=".3"/><path fill="#fff" d="M4561.34,554.69A47.83,47.83,0,0,0,4528.19,568l-11.32-10.09,7.6-18.94c23,1.27,31.4-8.81,2.84-9.3-16.79-.37-27.28,6.28-8.06,8.89l-6.8,16.93-69.72-11.32c0-2,8.23-20.61,5.28-21.78l-8.28-6.79c-2.5-2.16-5.78,1.8-3.22,3.82l7,5.76c-2.31,6.95-9.15,29.7-11.89,36.07-72.61-36.08-105.25,83.9-24.22,89.52,45.36,1.58,65.33-61.66,28.48-86.71,1.72-4.12,3.2-8.38,4.52-12.63l41.62,53c-12.39,19,20.51,31.66,24.1,9.27l8.18-1.11c11.09,55.23,95.39,47.05,95.07-9.9A48.1,48.1,0,0,0,4561.34,554.69Zm-114.43,48c-.94,51.89-78.05,51.89-79,0-.87-30.18,35.24-50,60.21-33.58a130.88,130.88,0,0,1-14.67,23.56c-17.59-9.26-25.94,20.51-6.06,21.75,9.18.28,15-10.93,9.71-18.29a136.22,136.22,0,0,0,15.14-24.09A39.43,39.43,0,0,1,4446.91,602.74Zm74.95,0a39.35,39.35,0,0,1,9.28-25.4l12,10.65a9.42,9.42,0,0,1-5,16.37l-16.06,2.18C4521.93,605.29,4521.86,604,4521.86,602.74Zm-11.31-42.48-15.63,39a13.19,13.19,0,0,0-9.2,1.86l-40.33-51.4Zm-12,43.31a10.6,10.6,0,0,1,4.29,5.59l-2.67.36a8,8,0,0,0-2.63-3.43Zm-5.76.93a7.86,7.86,0,0,0-3.68.91l-1.65-2.1a10.5,10.5,0,0,1,6.37-1.4Zm0,18.52c-8.13.23-13.45-9.54-8.94-16.22l1.77,2.25c-4.68,10.33,11.72,16.28,14.82,5.48l2.78-.38A10.59,10.59,0,0,1,4492.8,623Zm12.88-14.25a13.44,13.44,0,0,0-6.06-7.85l15.27-38.06,9.86,8.79a48.09,48.09,0,0,0-11.2,36.05Zm55.66,33.46a39.55,39.55,0,0,1-38.5-30.75l27.88-3.8c4.7,11.13,22.74,7.36,22.35-4.94.23-8.72-9.95-14.65-17.41-10.25l-21.06-18.76c23.54-23.29,67.36-4.58,66.23,29A39.54,39.54,0,0,1,4561.34,642.23Z"/><path d="M647.62,1438.11c5.38,15.12-229.66,15.12-224.26,0C418,1423,653,1423,647.62,1438.11Z" style="mix-blend-mode:multiply" fill="#a7a9ac"/><rect width="40.6" height="674.61" x="515.19" y="743.18" fill="#6d6e71"/><rect width="20.3" height="674.61" x="535.49" y="743.18" style="mix-blend-mode:multiply" fill="#d1d3d4"/><rect width="40.6" height="50" x="515.19" y="743.18" fill="#808285"/><polygon fill="#414042" points="535.49 1440.2 600.31 1440.2 580.8 1375.38 535.49 1375.38 535.49 1440.2"/><polygon fill="#231f20" points="535.49 1440.2 470.68 1440.2 490.19 1375.38 535.49 1375.38 535.49 1440.2"/><path fill="#ed1c24" d="M704.85,594.56c-3.8,222.63-335,222.6-338.72,0C369.93,371.94,701.08,372,704.85,594.56Z"/><path fill="#ed1c24" d="M694.8,594.56c-3.58,209.41-315.07,209.38-318.62,0C379.76,385.16,691.25,385.19,694.8,594.56Z"/><path fill="#f1f2f2" d="M681.36,594.56c-3.27,191.75-288.49,191.72-291.74,0C392.9,402.82,678.11,402.85,681.36,594.56Z"/><path fill="#231f20" d="M460.6,610.59c-28.59.49-28.59,43,0,43.5C489.2,653.61,489.19,611.07,460.6,610.59Zm149.78,0c-28.59.49-28.59,43,0,43.5C639,653.61,639,611.07,610.38,610.59Zm22.91-27.82H608.41c-8.76-16-14.43-53.62-38.84-52.24H501.41a25.2,25.2,0,0,0-23.2,15.37l-15.63,36.88H437.69c-28.86,1.4-32.27,25.84-30.52,49.39h25.68c.85-36.25,54.65-36.23,55.5,0h94.28c.86-36.25,54.66-36.23,55.5,0h25.68C665.56,608.59,662.14,584.17,633.29,582.77Z"/><rect width="310.46" height="28.45" x="380.26" y="580.12" fill="#ed1c24" transform="rotate(-45 535.494 594.341)"/><path fill="#fff" d="M625.51,506.31a217.5,217.5,0,0,1,59.27,8.24C558.18,300,251.13,512.73,408.67,706.75,417.41,594.61,511.12,506.31,625.51,506.31Z" opacity=".3"/></g></g></svg>