<?xml version="1.0" standalone="no"?>
<!DOCTYPE svg PUBLIC "-//W3C//DTD SVG 20010904//EN"
 "http://www.w3.org/TR/2001/REC-SVG-20010904/DTD/svg10.dtd">
<svg version="1.0" xmlns="http://www.w3.org/2000/svg"
 width="675.000000pt" height="450.000000pt" viewBox="0 0 675.000000 450.000000"
 preserveAspectRatio="xMidYMid meet">

<g transform="translate(0.000000,450.000000) scale(0.100000,-0.100000)"
fill="#000000" stroke="none">
<path d="M3094 3841 c-29 -13 -45 -28 -53 -51 -8 -24 -11 -322 -11 -1071 l0
-1039 -59 0 c-41 0 -65 -5 -75 -16 -31 -30 -19 -41 52 -47 108 -11 132 -9 132
9 0 9 9 18 20 21 11 3 20 9 20 14 0 5 9 9 20 9 11 0 20 -4 20 -10 0 -5 -4 -10
-8 -10 -4 0 -9 -11 -10 -23 -1 -23 1 -24 103 -30 112 -7 145 1 145 35 0 13 -8
18 -29 18 -58 0 -61 4 -61 101 l0 89 78 0 c126 0 122 3 122 -106 0 -77 3 -94
15 -94 12 0 15 17 15 90 0 73 3 92 16 97 8 3 52 2 97 -3 l82 -9 3 -97 3 -98
-66 0 c-62 0 -65 -1 -55 -19 7 -13 27 -22 62 -28 l53 -8 3 -98 c2 -68 -1 -97
-9 -97 -9 0 -9 -3 0 -14 7 -8 16 -48 20 -91 5 -42 11 -79 14 -82 6 -6 182 -20
311 -25 l79 -3 34 150 c18 83 38 172 43 200 6 27 23 78 39 112 l29 61 2 675
c0 460 -2 677 -10 682 -13 8 -14 255 0 255 6 0 10 84 10 233 0 251 -3 267 -56
287 -20 8 -403 26 -939 45 -144 5 -164 4 -201 -14z m630 -342 c137 -51 222
-207 195 -356 -45 -247 -341 -327 -507 -137 -117 132 -107 340 22 450 75 65
188 82 290 43z m-172 -706 c27 -25 40 -80 36 -153 -3 -56 -8 -74 -28 -95 -32
-35 -87 -34 -129 1 -39 33 -43 74 -7 74 l24 0 -29 29 c-47 48 -38 124 19 156
31 17 88 11 114 -12z m167 -139 l-1 -145 -41 3 c-47 3 -44 -6 -46 131 -1 70
-4 87 -16 87 -10 0 -15 11 -15 35 l0 35 60 0 61 0 -2 -146z m94 140 l37 -7 0
-143 0 -144 -40 0 -40 0 0 110 c0 103 -1 110 -20 110 -16 0 -20 7 -20 33 0 50
7 53 83 41z m-339 -464 c25 -9 26 -12 26 -105 l0 -96 -97 3 -98 3 -3 103 -3
102 75 0 c41 0 86 -4 100 -10z m253 -14 c6 -6 6 -197 0 -202 -4 -4 -48 -3 -99
2 l-93 9 -3 89 c-2 49 0 96 3 104 4 12 21 13 98 7 50 -4 93 -8 94 -9z m241
-113 l3 -103 -69 0 c-38 0 -84 3 -101 6 l-31 7 0 99 0 99 98 -3 97 -3 3 -102z
m-494 -123 c25 -9 26 -12 26 -105 l0 -95 -77 0 c-128 0 -123 -4 -123 111 l0
99 74 0 c41 0 86 -4 100 -10z m248 -16 c10 -7 11 -191 1 -197 -5 -3 -48 -2
-98 2 l-90 6 -3 89 c-2 49 0 96 3 104 4 12 21 13 92 8 48 -4 91 -10 95 -12z
m243 -109 l0 -100 -35 -3 c-19 -2 -63 -1 -97 3 l-63 7 0 99 0 100 98 -3 97 -3
0 -100z m-11 -151 c13 -5 16 -23 16 -93 0 -47 -4 -92 -9 -100 -7 -10 -28 -12
-100 -6 l-91 7 0 99 0 99 84 0 c46 0 91 -3 100 -6z m-597 -201 c-2 -1 -14 1
-27 4 -22 6 -22 7 -4 13 15 6 40 -8 31 -17z"/>
<path d="M3511 3384 c-11 -14 -25 -41 -32 -61 -35 -107 58 -259 169 -277 43
-6 113 11 119 30 2 6 -12 23 -31 38 l-35 27 -21 -21 c-11 -11 -25 -20 -31 -20
-17 0 -51 21 -89 53 -29 26 -35 38 -37 75 -2 50 10 82 32 82 22 0 25 14 9 46
-9 16 -15 30 -15 32 9 30 -13 28 -38 -4z"/>
<path d="M3468 2728 c-8 -21 2 -38 23 -38 14 0 19 7 19 25 0 18 -5 25 -19 25
-10 0 -21 -6 -23 -12z"/>
<path d="M3493 2622 c-13 -2 -23 -8 -23 -13 0 -15 30 -23 42 -11 15 15 6 27
-19 24z"/>
<path d="M2070 2439 c14 -6 52 -14 85 -18 52 -7 43 -9 -67 -10 -71 0 -128 -5
-128 -10 0 -5 25 -8 56 -7 31 1 76 0 99 -4 33 -5 57 -1 109 20 l67 27 -68 6
c-37 4 -93 7 -123 6 -47 0 -51 -2 -30 -10z"/>
<path d="M1930 2410 c-13 -8 -12 -10 3 -10 9 0 17 5 17 10 0 12 -1 12 -20 0z"/>
<path d="M1830 2370 c-18 -12 -2 -12 25 0 13 6 15 9 5 9 -8 0 -22 -4 -30 -9z"/>
<path d="M1887 2364 c3 -8 13 -14 23 -14 21 0 38 20 18 21 -7 0 -21 2 -30 4
-11 2 -15 -2 -11 -11z"/>
<path d="M2210 2305 c0 -55 -3 -75 -12 -74 -25 3 -39 -1 -34 -10 3 -5 16 -7
28 -3 14 3 19 2 14 -6 -4 -7 -14 -12 -22 -12 -8 0 -14 -4 -14 -10 0 -14 13
-12 36 4 16 12 20 29 23 100 2 58 -1 86 -8 86 -7 0 -11 -27 -11 -75z"/>
<path d="M1970 2359 c0 -5 5 -7 10 -4 6 3 10 8 10 11 0 2 -4 4 -10 4 -5 0 -10
-5 -10 -11z"/>
<path d="M2010 2359 c0 -6 9 -8 21 -4 15 5 19 4 15 -4 -4 -6 -2 -11 3 -11 6 0
11 4 11 9 0 6 15 12 33 14 19 2 10 4 -25 5 -36 1 -58 -2 -58 -9z"/>
<path d="M1730 2330 c-8 -5 -10 -10 -5 -10 6 0 17 5 25 10 8 5 11 10 5 10 -5
0 -17 -5 -25 -10z"/>
<path d="M1778 2333 c7 -3 16 -2 19 1 4 3 -2 6 -13 5 -11 0 -14 -3 -6 -6z"/>
<path d="M2132 2320 c0 -14 2 -19 5 -12 2 6 2 18 0 25 -3 6 -5 1 -5 -13z"/>
<path d="M1908 2323 c6 -2 18 -2 25 0 6 3 1 5 -13 5 -14 0 -19 -2 -12 -5z"/>
<path d="M1970 2320 c0 -13 11 -13 30 0 12 8 11 10 -7 10 -13 0 -23 -4 -23
-10z"/>
<path d="M1930 2300 c-8 -5 -10 -10 -5 -10 6 0 17 5 25 10 8 5 11 10 5 10 -5
0 -17 -5 -25 -10z"/>
<path d="M1637 2293 c-3 -5 23 -7 56 -5 48 2 59 0 47 -8 -12 -9 -10 -11 10 -6
14 3 41 2 60 -3 20 -4 50 -3 70 3 l35 10 -60 7 c-84 10 -213 11 -218 2z"/>
<path d="M1970 2265 c0 -8 5 -15 10 -15 6 0 10 7 10 15 0 8 -4 15 -10 15 -5 0
-10 -7 -10 -15z"/>
<path d="M1919 2263 c-1 -5 -1 -12 0 -16 1 -5 -4 -5 -10 -1 -15 9 -29 -14 -29
-48 0 -19 5 -28 16 -28 10 0 14 7 12 23 -1 12 1 22 6 22 5 0 8 -30 7 -67 -2
-43 2 -68 8 -68 7 0 11 25 11 64 0 35 3 78 6 95 5 24 3 31 -10 31 -9 0 -17 -3
-17 -7z"/>
<path d="M1530 2250 c0 -5 7 -7 15 -4 8 4 15 8 15 10 0 2 -7 4 -15 4 -8 0 -15
-4 -15 -10z"/>
<path d="M1570 2252 c0 -6 12 -11 28 -11 15 0 63 -2 107 -5 44 -2 87 0 95 5
10 6 3 9 -25 9 -22 0 -77 3 -122 7 -58 4 -83 3 -83 -5z"/>
<path d="M2010 2229 c0 -12 5 -19 12 -17 18 6 20 25 3 31 -10 5 -15 0 -15 -14z"/>
<path d="M1970 2220 c0 -11 5 -20 10 -20 6 0 10 9 10 20 0 11 -4 20 -10 20 -5
0 -10 -9 -10 -20z"/>
<path d="M2090 2210 c0 -16 5 -30 11 -30 5 0 7 -4 4 -10 -3 -5 0 -10 8 -10 9
0 17 12 19 28 6 39 0 52 -23 52 -14 0 -19 -7 -19 -30z"/>
<path d="M1803 2206 c-29 -30 -29 -43 -1 -42 20 1 22 -4 23 -43 0 -40 -3 -46
-25 -52 l-25 -7 24 -1 c20 -1 21 -3 11 -16 -10 -12 -10 -15 3 -15 25 0 30 16
35 111 5 98 -3 109 -45 65z"/>
<path d="M1630 2200 c0 -5 9 -10 20 -10 11 0 20 5 20 10 0 6 -9 10 -20 10 -11
0 -20 -4 -20 -10z"/>
<path d="M2013 2185 c0 -8 4 -15 9 -15 4 0 8 7 8 15 0 8 -4 15 -8 15 -5 0 -9
-7 -9 -15z"/>
<path d="M2433 2184 c-2 -7 -4 -18 -2 -25 5 -40 -3 -59 -35 -78 -57 -35 -106
-24 -106 25 0 28 -3 30 -62 38 l-48 7 0 -51 c0 -56 -13 -90 -35 -90 -8 0 -18
-8 -24 -17 -12 -22 -158 -29 -274 -15 -71 9 -83 8 -127 -11 -48 -21 -54 -22
-197 -10 -82 6 -156 12 -165 12 -11 1 -18 9 -18 21 0 18 -7 20 -70 20 -59 0
-85 -6 -170 -41 -56 -24 -102 -49 -104 -58 -3 -9 -29 -124 -57 -256 -49 -226
-52 -251 -56 -417 l-5 -177 24 -5 c12 -3 86 -10 163 -16 241 -17 577 -40 640
-42 l60 -3 3 -34 c2 -19 1 -50 -3 -68 -5 -27 -12 -35 -36 -40 -73 -14 -8 -49
108 -58 89 -7 93 -6 117 18 24 24 56 110 56 151 0 42 12 66 32 66 11 0 54 18
96 41 70 37 77 39 89 24 14 -21 76 -34 159 -35 66 0 83 10 103 63 9 24 16 27
56 27 25 0 45 -4 45 -10 0 -5 -4 -10 -10 -10 -5 0 -14 -9 -20 -20 -13 -25 -63
-270 -57 -277 3 -2 32 -7 65 -10 l60 -6 7 72 7 71 42 0 c60 -1 407 -27 410
-31 1 -2 0 -34 -3 -71 -7 -80 -9 -78 94 -78 94 0 105 4 105 44 0 47 27 130 48
150 21 18 47 13 56 -10 4 -11 2 -12 -14 -4 -14 7 -22 6 -33 -5 -16 -16 -37
-118 -37 -181 0 -21 -4 -54 -9 -72 l-10 -32 44 0 c34 0 47 5 55 20 8 16 8 18
-4 14 -24 -9 -35 27 -33 108 2 60 6 81 22 98 18 20 20 20 32 4 7 -10 13 -35
13 -56 0 -21 5 -38 10 -38 13 0 12 426 -1 575 -15 163 6 152 -324 172 -149 9
-282 14 -296 10 -33 -8 -41 -28 -79 -184 -30 -123 -56 -200 -65 -191 -3 2 2
38 11 79 9 44 13 96 10 129 -3 30 -8 109 -12 175 -3 66 -9 123 -13 128 -8 8
-71 -20 -346 -152 -93 -46 -182 -85 -197 -88 l-28 -5 0 175 c0 96 -3 182 -6
191 -4 11 2 19 20 26 15 5 50 21 79 34 29 13 86 38 127 56 41 17 84 35 95 40
84 38 205 88 228 94 24 6 27 11 27 51 0 29 -5 45 -12 46 -149 12 -211 13 -215
3z m-1180 -271 c-7 -2 -21 -2 -30 0 -10 3 -4 5 12 5 17 0 24 -2 18 -5z m224
-9 c-3 -3 -12 -4 -19 -1 -8 3 -5 6 6 6 11 1 17 -2 13 -5z m196 -11 c-7 -2 -19
-2 -25 0 -7 3 -2 5 12 5 14 0 19 -2 13 -5z m138 -134 c-10 -57 -36 -191 -57
-297 -34 -176 -39 -192 -53 -177 -12 12 -13 18 -4 23 10 6 39 126 58 239 3 17
19 96 35 175 17 78 30 145 30 147 0 2 2 2 5 -1 3 -2 -4 -52 -14 -109z m457
-411 l3 -127 -79 -40 c-45 -23 -84 -36 -91 -32 -8 5 -14 50 -18 133 l-6 126
74 36 c114 55 113 55 117 -96z m373 64 c3 -17 2 -54 -2 -83 -18 -111 -68 -97
-69 19 0 50 4 66 21 83 26 26 42 20 50 -19z m-221 -76 c-5 -15 -10 -38 -10
-52 l0 -25 25 25 c14 14 25 35 26 48 1 17 4 13 10 -12 9 -38 -4 -124 -23 -147
-9 -11 -14 -11 -29 3 -14 13 -19 31 -19 74 0 52 17 127 26 117 3 -2 0 -16 -6
-31z m-1302 -132 c20 -4 22 -10 22 -64 l0 -60 -49 0 c-26 0 -76 3 -110 6 l-61
7 0 57 c0 31 3 59 6 63 7 6 149 0 192 -9z m481 -30 l61 -7 0 -65 0 -65 -102 7
c-56 4 -105 9 -110 12 -4 3 -8 32 -8 65 l0 59 49 0 c26 0 76 -3 110 -6z m369
-136 c2 -47 -2 -72 -15 -97 -24 -46 -38 -49 -57 -12 -27 51 -16 142 21 183 27
30 46 1 51 -74z m740 37 c14 -5 16 -57 3 -70 -6 -6 -37 -8 -70 -7 l-61 4 0 37
c0 21 2 40 5 43 6 5 100 0 123 -7z m470 -64 c5 -47 -7 -54 -77 -46 l-61 7 0
39 0 40 68 -3 67 -3 3 -34z m163 -158 c-4 -28 -6 -32 -9 -15 -3 22 3 52 11 52
1 0 1 -17 -2 -37z"/>
<path d="M2591 1414 c0 -11 3 -14 6 -6 3 7 2 16 -1 19 -3 4 -6 -2 -5 -13z"/>
<path d="M2581 1334 c0 -11 3 -14 6 -6 3 7 2 16 -1 19 -3 4 -6 -2 -5 -13z"/>
<path d="M1730 2182 c0 -5 -11 -14 -25 -20 -19 -9 -25 -19 -25 -42 0 -28 2
-30 38 -28 36 1 36 1 5 5 -18 2 -33 8 -33 13 0 10 31 24 48 21 7 -1 12 10 12
29 0 16 -4 30 -10 30 -5 0 -10 -4 -10 -8z"/>
<path d="M1533 2115 c0 -33 2 -45 4 -27 2 18 2 45 0 60 -2 15 -4 0 -4 -33z"/>
<path d="M1630 2152 c0 -11 -7 -22 -15 -26 -8 -3 -15 -9 -14 -13 1 -4 1 -16 0
-25 -1 -25 -21 -23 -21 2 0 24 -15 26 -24 3 -10 -24 8 -36 42 -28 19 4 29 12
28 23 0 9 5 16 12 15 15 -4 17 53 2 62 -5 3 -10 -3 -10 -13z"/>
<path d="M1790 2150 c-9 -6 -10 -10 -3 -10 6 0 15 5 18 10 8 12 4 12 -15 0z"/>
<path d="M2016 2135 c-3 -9 0 -15 9 -15 8 0 15 7 15 15 0 8 -4 15 -9 15 -5 0
-11 -7 -15 -15z"/>
<path d="M1788 2123 c7 -3 16 -2 19 1 4 3 -2 6 -13 5 -11 0 -14 -3 -6 -6z"/>
<path d="M1888 2123 c7 -3 16 -2 19 1 4 3 -2 6 -13 5 -11 0 -14 -3 -6 -6z"/>
<path d="M1478 2069 c-10 -5 -18 -18 -18 -28 0 -16 5 -18 36 -11 40 9 56 20
31 20 -9 0 -17 7 -17 15 0 17 -8 18 -32 4z"/>
<path d="M1730 2070 c-9 -6 -10 -10 -3 -10 6 0 15 5 18 10 8 12 4 12 -15 0z"/>
<path d="M1393 2035 c-21 -9 -33 -21 -33 -33 0 -19 2 -19 35 -3 19 9 34 23 35
34 0 9 -1 17 -2 17 -2 -1 -18 -7 -35 -15z"/>
<path d="M1698 2033 c12 -2 30 -2 40 0 9 3 -1 5 -23 4 -22 0 -30 -2 -17 -4z"/>
<path d="M4496 1935 c-93 -52 -173 -100 -177 -107 -9 -17 -23 -128 -15 -128
21 0 74 36 88 60 13 23 13 28 2 23 -9 -3 -14 2 -14 14 0 15 8 21 28 23 65 6
370 -1 397 -10 17 -5 90 -14 164 -20 l134 -11 71 43 c39 23 82 48 96 55 14 8
43 25 65 39 22 13 50 28 61 33 12 5 24 17 27 25 5 13 -2 16 -36 16 -23 0 -190
9 -372 20 -181 11 -334 19 -340 19 -5 -1 -86 -43 -179 -94z"/>
<path d="M1433 1999 c-13 -4 -23 -11 -23 -14 0 -2 10 -4 23 -3 12 1 66 -2 120
-6 85 -7 97 -6 97 8 0 13 -14 16 -77 17 -43 0 -87 2 -98 4 -11 2 -30 -1 -42
-6z"/>
<path d="M1685 1990 c-3 -5 1 -10 9 -10 8 0 18 5 21 10 3 6 -1 10 -9 10 -8 0
-18 -4 -21 -10z"/>
<path d="M4320 1646 c0 -19 -3 -41 -6 -50 -5 -14 4 -16 62 -14 l69 1 -59 6
c-52 5 -57 8 -43 20 18 15 13 35 -6 25 -8 -5 -8 -3 1 7 17 18 15 39 -3 39 -10
0 -15 -10 -15 -34z"/>
<path d="M4383 1663 c9 -2 23 -2 30 0 6 3 -1 5 -18 5 -16 0 -22 -2 -12 -5z"/>
<path d="M4498 1663 c12 -2 30 -2 40 0 9 3 -1 5 -23 4 -22 0 -30 -2 -17 -4z"/>
<path d="M4750 1646 c0 -2 11 -6 25 -8 14 -3 25 -1 25 3 0 5 -11 9 -25 9 -14
0 -25 -2 -25 -4z"/>
<path d="M4475 1580 c-3 -6 1 -7 9 -4 18 7 21 14 7 14 -6 0 -13 -4 -16 -10z"/>
<path d="M3559 1565 l-26 -14 13 -73 c7 -40 13 -85 13 -100 1 -15 5 -38 10
-52 l10 -25 55 30 c31 17 56 35 56 41 0 19 -42 152 -56 181 -16 30 -36 33 -75
12z"/>
<path d="M4568 1563 c7 -3 16 -2 19 1 4 3 -2 6 -13 5 -11 0 -14 -3 -6 -6z"/>
<path d="M4967 1502 l-78 -57 7 -100 c7 -124 11 -155 18 -162 3 -3 40 11 82
31 l77 36 -6 147 c-4 81 -10 150 -14 154 -5 4 -43 -18 -86 -49z"/>
<path d="M3476 1518 l-38 -20 6 -81 c4 -45 9 -103 13 -129 l5 -47 50 25 c47
24 50 27 44 57 -3 18 -10 70 -17 117 -6 47 -14 88 -18 92 -3 3 -23 -3 -45 -14z"/>
<path d="M4241 1418 c-30 -112 -51 -222 -44 -228 8 -7 240 -24 497 -37 l118
-6 -6 49 c-3 27 -8 89 -12 137 -4 51 -11 90 -18 92 -10 4 -463 35 -504 35 -14
0 -22 -11 -31 -42z"/>
<path d="M5322 1178 c-15 -18 -40 -120 -48 -193 -5 -49 -8 -57 -18 -43 -11 15
-16 13 -51 -16 -21 -18 -35 -37 -32 -43 10 -15 142 -26 166 -14 19 11 42 60
40 90 0 11 -4 9 -11 -7 -19 -38 -33 -18 -36 51 -5 119 36 143 50 29 5 -48 6
-45 4 26 -2 74 -6 86 -28 108 -20 20 -27 23 -36 12z"/>
<path d="M3665 1160 c-3 -6 1 -7 9 -4 18 7 21 14 7 14 -6 0 -13 -4 -16 -10z"/>
<path d="M3667 1132 c-20 -22 -36 -92 -37 -157 -1 -48 -2 -51 -41 -71 -23 -11
-42 -24 -43 -30 0 -5 30 -10 68 -12 53 -2 72 1 87 14 23 20 24 31 4 31 -8 0
-11 -5 -8 -11 3 -6 0 -5 -8 2 -18 17 -18 158 0 191 l13 24 19 -24 19 -24 -10
30 c-12 32 -28 55 -40 55 -4 0 -14 -8 -23 -18z"/>
<path d="M3573 1098 c-16 -8 -23 -21 -24 -42 -1 -24 -3 -26 -6 -8 -8 43 -46
18 -58 -39 -7 -32 -6 -33 9 -14 8 11 16 15 16 9 0 -7 20 -1 48 14 43 23 48 29
48 59 -1 36 -1 36 -33 21z m17 -27 c0 -6 -4 -13 -10 -16 -5 -3 -10 1 -10 9 0
9 5 16 10 16 6 0 10 -4 10 -9z"/>
<path d="M926 896 c10 -27 41 -37 133 -43 84 -5 131 4 131 26 0 5 -35 12 -77
15 -43 4 -104 9 -136 12 -50 5 -56 4 -51 -10z"/>
<path d="M4010 849 c-7 -29 -10 -80 -7 -116 7 -91 24 -106 122 -111 95 -5 100
13 6 21 -67 6 -119 22 -107 34 3 4 2 11 -4 18 -6 7 -6 45 0 105 6 51 8 95 6
97 -2 2 -9 -19 -16 -48z"/>
<path d="M4863 863 c-10 -22 -18 -77 -21 -131 -4 -80 -7 -92 -21 -88 -21 7
-94 -18 -100 -35 -8 -24 31 -39 106 -39 80 0 92 9 113 81 17 56 14 183 -4 218
-23 44 -53 41 -73 -6z m71 -59 c17 -45 -1 -164 -26 -164 -12 0 -28 46 -28 81
0 35 25 99 38 99 6 0 13 -7 16 -16z"/>
<path d="M1498 863 c7 -3 16 -2 19 1 4 3 -2 6 -13 5 -11 0 -14 -3 -6 -6z"/>
<path d="M4303 623 c9 -2 23 -2 30 0 6 3 -1 5 -18 5 -16 0 -22 -2 -12 -5z"/>
</g>
</svg>
