<?xml version="1.0" standalone="no"?>
<!DOCTYPE svg PUBLIC "-//W3C//DTD SVG 20010904//EN"
 "http://www.w3.org/TR/2001/REC-SVG-20010904/DTD/svg10.dtd">
<svg version="1.0" xmlns="http://www.w3.org/2000/svg"
 width="563.000000pt" height="579.000000pt" viewBox="0 0 563.000000 579.000000"
 preserveAspectRatio="xMidYMid meet">

<g transform="translate(0.000000,579.000000) scale(0.100000,-0.100000)"
fill="#000000" stroke="none">
<path d="M2536 5763 c-36 -4 -255 -43 -331 -58 -183 -37 -509 -158 -695 -258
-127 -68 -150 -82 -150 -89 0 -4 -5 -8 -11 -8 -19 0 -149 -97 -141 -105 4 -5
1 -5 -6 -1 -16 9 -44 -12 -35 -27 3 -5 2 -7 -4 -4 -11 7 -161 -110 -193 -150
-11 -14 -20 -22 -20 -18 0 4 -7 2 -15 -5 -8 -7 -12 -17 -8 -23 3 -5 2 -7 -3
-4 -5 3 -47 -32 -94 -79 -46 -46 -79 -84 -74 -85 5 0 2 -3 -7 -7 -51 -22 -358
-429 -343 -453 3 -5 1 -9 -4 -9 -11 0 -59 -76 -64 -101 -2 -8 -6 -16 -9 -19
-13 -11 -69 -119 -99 -190 -17 -41 -35 -84 -40 -95 -68 -153 -145 -426 -180
-640 -19 -111 -8 -896 13 -1001 28 -139 42 -194 75 -284 3 -8 6 -19 6 -25 4
-31 29 -115 35 -115 4 0 7 -9 8 -19 3 -35 86 -220 96 -214 6 3 7 1 4 -4 -8
-13 20 -83 33 -83 5 0 7 -7 4 -15 -7 -18 12 -20 20 -2 3 6 2 -1 -1 -17 -5 -22
-3 -27 7 -21 8 5 11 4 6 -3 -7 -11 73 -149 147 -253 29 -42 43 -55 50 -46 6 8
7 6 3 -6 -7 -21 11 -46 137 -195 44 -51 84 -89 89 -85 7 3 8 1 4 -5 -4 -7 -2
-12 4 -12 6 0 9 -4 6 -9 -6 -9 22 -26 37 -22 5 1 6 -3 2 -9 -7 -11 142 -156
157 -152 5 1 7 -2 4 -7 -4 -5 7 -19 22 -30 23 -16 32 -18 42 -8 12 10 12 9 2
-3 -9 -13 0 -24 54 -65 35 -28 74 -58 87 -69 12 -10 51 -37 87 -61 164 -106
200 -128 200 -117 0 4 4 2 8 -3 8 -12 58 -45 67 -45 4 0 3 5 -1 12 -4 7 -3 8
5 4 6 -4 9 -11 6 -16 -7 -11 24 -22 37 -13 6 3 8 2 5 -4 -8 -12 150 -86 165
-77 7 4 8 3 4 -4 -7 -12 10 -17 49 -14 15 2 17 0 6 -7 -9 -6 2 -13 40 -25 30
-10 70 -23 89 -31 124 -47 356 -103 525 -126 123 -17 570 -18 670 -2 166 27
300 55 310 63 7 6 15 7 18 4 3 -4 61 10 128 30 279 85 559 216 797 375 34 23
60 46 57 51 -3 6 0 8 7 5 17 -6 164 109 160 125 -1 6 2 9 7 6 19 -12 316 278
304 297 -3 6 -1 7 4 4 13 -8 65 57 55 68 -4 5 -2 5 4 2 14 -8 97 97 86 108 -4
4 0 5 8 3 9 -2 14 4 14 14 -1 10 2 16 6 13 7 -4 52 55 60 80 2 6 12 19 22 30
11 11 33 42 50 70 17 27 44 70 60 95 16 24 26 50 23 58 -2 7 -1 11 4 8 17 -11
167 335 155 357 -4 6 -3 9 1 4 11 -9 76 195 109 343 49 222 58 341 53 688 -4
289 -6 330 -31 465 -72 398 -215 753 -439 1092 -33 50 -70 101 -82 115 -12 14
-24 30 -26 37 -8 23 -192 232 -201 227 -5 -3 -7 -1 -6 4 4 13 -144 162 -155
155 -6 -3 -7 -2 -4 4 12 19 -254 230 -274 217 -7 -4 -9 -3 -6 3 17 27 -327
226 -548 318 -187 77 -431 146 -641 181 -97 16 -584 28 -678 17z m500 -173
c67 -5 179 -21 250 -36 71 -15 136 -28 144 -29 8 -1 22 -5 30 -8 8 -2 69 -21
135 -42 130 -40 152 -49 263 -101 41 -19 70 -30 67 -23 -10 15 33 -8 59 -33
12 -10 29 -17 38 -14 10 2 16 0 13 -4 -5 -9 102 -73 122 -73 7 0 10 -3 8 -6
-2 -4 13 -17 32 -30 19 -12 32 -17 28 -9 -5 7 2 3 14 -9 20 -21 34 -27 53 -24
4 0 4 -7 1 -16 -5 -12 -2 -15 10 -10 9 3 16 3 14 -2 -3 -12 130 -110 140 -102
4 3 5 2 1 -3 -7 -9 70 -85 87 -85 6 -1 3 4 -5 10 -10 7 -11 9 -2 7 8 -2 13 -8
13 -13 0 -17 72 -85 83 -78 6 3 8 3 4 -2 -4 -4 38 -55 93 -114 56 -58 135
-151 177 -206 41 -55 79 -99 84 -97 5 1 7 -2 4 -7 -4 -5 11 -36 32 -68 62 -93
125 -202 162 -280 19 -39 38 -69 44 -66 5 3 6 1 2 -5 -8 -14 28 -105 38 -95 4
4 7 1 5 -7 -1 -8 0 -22 4 -30 3 -8 11 -32 17 -53 7 -22 16 -34 22 -31 7 4 8 2
4 -5 -4 -6 6 -55 23 -109 16 -53 33 -114 37 -134 3 -21 9 -38 13 -38 3 0 7
-21 9 -46 1 -26 5 -51 9 -57 4 -6 7 -20 8 -31 1 -12 7 -59 14 -106 19 -138 20
-148 27 -310 14 -321 -39 -670 -151 -989 -14 -40 -24 -80 -21 -88 3 -8 2 -12
-2 -9 -9 5 -98 -192 -96 -211 1 -7 -2 -11 -6 -8 -10 6 -32 -44 -24 -57 4 -6 2
-8 -3 -5 -6 4 -34 -34 -63 -86 -29 -50 -66 -109 -82 -129 -16 -21 -27 -42 -23
-48 4 -6 2 -9 -3 -8 -7 2 -132 -144 -191 -223 -35 -48 -333 -323 -405 -374
-15 -11 -47 -34 -70 -50 -22 -17 -58 -41 -78 -55 -20 -13 -34 -29 -31 -34 3
-5 1 -6 -5 -2 -14 8 -145 -68 -135 -79 5 -4 3 -5 -4 -2 -6 4 -56 -15 -111 -42
-178 -88 -325 -142 -546 -201 -307 -81 -719 -97 -1046 -39 -133 23 -197 39
-335 81 -95 29 -131 42 -245 88 -28 12 -56 18 -62 14 -6 -4 -8 -3 -5 3 4 7
-37 33 -101 66 -59 29 -125 66 -146 81 -22 15 -46 24 -53 22 -7 -3 -12 -1 -10
3 3 12 -153 122 -164 115 -5 -3 -8 -1 -7 4 2 5 -24 32 -57 58 -99 79 -182 154
-257 231 -39 40 -76 71 -82 70 -6 -1 -10 4 -8 12 2 8 -1 17 -5 20 -4 3 -32 35
-62 71 -30 36 -59 70 -65 75 -6 6 -19 24 -28 40 -10 17 -22 29 -28 28 -5 -2
-9 1 -7 6 1 5 -26 51 -59 102 -157 241 -293 541 -344 759 -7 30 -16 60 -21 66
-5 6 -6 13 -3 17 3 3 1 21 -5 39 -6 18 -14 53 -17 78 -3 25 -10 63 -15 85 -5
22 -13 78 -17 125 -9 105 -9 547 0 615 8 64 35 217 48 275 6 25 12 54 14 65 1
11 6 27 9 35 3 8 18 53 32 100 14 47 33 103 41 126 8 23 12 50 8 60 -4 13 -3
15 3 6 12 -16 78 141 67 159 -4 7 -3 10 4 5 14 -8 35 30 26 47 -4 6 -4 9 0 6
4 -4 28 32 53 80 55 103 59 111 103 181 19 30 34 58 32 63 -1 4 2 7 7 7 4 0
20 17 34 39 14 21 46 64 72 95 25 31 43 62 39 68 -4 6 -3 8 3 5 5 -3 41 30 79
74 38 45 79 91 91 104 12 13 19 26 15 30 -4 4 -2 5 4 3 6 -1 47 29 90 69 43
39 114 99 157 133 43 34 74 67 70 72 -3 7 -1 8 5 4 13 -8 55 17 47 27 -3 4 -2
5 1 2 4 -2 39 18 78 44 170 116 407 229 627 299 315 101 666 139 1015 112z
m1110 -182 c3 -4 -1 -5 -10 -4 -8 1 -18 5 -22 8 -3 4 1 5 10 4 8 -1 18 -5 22
-8z m1042 -1283 c-3 -3 -9 2 -12 12 -6 14 -5 15 5 6 7 -7 10 -15 7 -18z
m-4558 -3009 c0 -2 -7 -7 -16 -10 -8 -3 -12 -2 -9 4 6 10 25 14 25 6z m1231
-924 c-7 -2 -18 1 -23 6 -8 8 -4 9 13 5 13 -4 18 -8 10 -11z"/>
<path d="M2620 5410 c-310 -26 -712 -148 -971 -293 -59 -32 -234 -144 -262
-167 -7 -5 -48 -38 -92 -72 -104 -82 -388 -364 -380 -378 3 -5 2 -10 -3 -10
-5 0 -26 -21 -45 -47 -20 -27 -40 -53 -45 -58 -70 -84 -300 -505 -287 -525 3
-6 2 -10 -3 -10 -9 0 -84 -206 -116 -320 -18 -63 -47 -206 -44 -217 0 -5 -1
-15 -5 -23 -26 -69 -44 -444 -27 -585 6 -55 11 -107 12 -115 0 -13 9 -77 25
-175 10 -64 72 -309 80 -314 4 -3 8 -10 8 -16 0 -13 21 -73 60 -175 58 -149
199 -405 217 -394 4 3 6 -1 3 -8 -6 -15 103 -164 117 -160 5 1 7 -1 4 -6 -7
-11 39 -67 56 -67 7 -1 12 -7 10 -13 -1 -7 61 -76 138 -154 77 -77 140 -138
140 -136 0 2 26 -20 57 -48 31 -29 59 -52 60 -50 2 2 18 -10 34 -25 17 -16 36
-26 43 -22 6 3 8 3 4 -2 -9 -9 138 -106 257 -170 188 -101 475 -207 660 -243
186 -37 284 -45 517 -39 301 7 410 25 723 124 146 46 396 161 505 231 161 104
192 126 197 138 3 8 8 12 13 9 12 -7 151 115 144 127 -5 7 -2 8 5 4 7 -5 20
-1 29 8 9 9 32 29 51 45 21 18 31 34 26 42 -5 7 -4 10 3 5 11 -7 85 39 114 71
27 30 48 89 48 135 l0 43 61 12 c107 20 180 102 200 223 7 42 29 100 60 162
101 199 180 454 230 743 29 166 36 491 15 670 -10 77 -21 156 -26 175 -5 19
-16 73 -26 120 -9 47 -21 89 -26 95 -4 5 -8 17 -8 28 0 57 -148 427 -171 427
-6 0 -8 4 -4 9 8 14 -16 61 -28 54 -6 -3 -7 -1 -4 4 12 20 -164 293 -272 423
-86 104 -263 283 -336 340 -22 17 -48 38 -58 46 -10 8 -23 12 -29 8 -6 -4 -8
-3 -5 4 9 14 -89 86 -104 76 -8 -4 -9 -3 -5 4 8 13 -28 35 -39 24 -3 -4 -5 -2
-3 5 9 34 -366 222 -586 292 -284 91 -643 135 -916 111z m515 -184 c155 -26
460 -112 492 -138 7 -6 20 -8 28 -4 9 3 14 2 11 -3 -7 -10 49 -33 58 -24 3 4
6 2 6 -4 0 -6 15 -16 32 -22 18 -7 78 -37 133 -69 55 -31 103 -56 108 -54 4 1
7 -2 7 -7 0 -14 110 -82 122 -75 6 4 8 3 5 -4 -4 -5 17 -27 45 -48 29 -20 79
-60 111 -88 32 -28 63 -51 70 -51 7 -1 11 -6 10 -12 -1 -6 21 -33 50 -61 29
-27 61 -62 71 -76 11 -15 25 -25 32 -22 8 3 16 0 20 -6 5 -7 2 -8 -6 -3 -8 5
-11 3 -8 -6 3 -8 11 -13 17 -11 7 1 10 -2 6 -8 -3 -5 -1 -10 4 -10 6 0 10 -6
9 -12 -2 -7 3 -12 10 -10 6 1 11 -2 10 -7 -4 -12 74 -121 82 -116 4 2 7 -1 7
-8 0 -7 21 -43 48 -80 26 -38 73 -115 105 -173 31 -57 60 -101 65 -97 4 5 5 2
1 -4 -4 -7 0 -25 8 -40 8 -16 30 -66 48 -113 18 -47 35 -87 38 -90 3 -3 5 -9
6 -15 1 -29 17 -64 27 -58 7 4 8 0 4 -11 -4 -10 4 -61 17 -114 40 -157 57
-277 63 -449 l6 -163 -378 0 c-360 0 -382 1 -442 21 l-63 22 -2 351 -3 351
-110 5 -110 5 -5 280 -5 280 -29 58 c-35 68 -117 149 -183 180 l-48 22 -945 0
-945 0 -56 -23 c-109 -44 -192 -147 -218 -270 -6 -29 -11 -138 -11 -242 l0
-190 -261 0 c-292 0 -337 -7 -412 -64 -23 -17 -55 -56 -72 -86 l-30 -55 0
-320 0 -320 -144 -3 -143 -3 3 145 c2 79 7 142 10 140 4 -2 10 32 13 76 6 69
51 275 86 395 34 115 130 324 209 457 13 21 19 43 15 50 -4 7 -4 10 1 6 7 -7
55 51 55 67 0 5 57 82 124 166 12 15 32 41 46 59 14 18 44 52 67 75 24 23 39
46 35 50 -4 5 -2 5 5 1 6 -3 15 -1 20 6 4 7 38 41 74 75 37 34 65 65 63 68 -2
3 -1 3 2 0 9 -6 80 57 76 68 -1 5 2 6 7 3 5 -4 22 4 38 17 15 13 64 48 108 78
44 30 85 59 92 66 7 6 37 24 67 39 30 15 53 31 50 36 -3 4 3 5 12 1 10 -4 15
-2 11 4 -3 5 0 10 8 10 20 0 165 65 161 72 -2 3 6 7 17 7 12 1 63 16 112 33
138 49 316 89 465 105 164 18 456 14 585 -8z m565 -947 c56 -26 101 -70 126
-124 l24 -50 0 -597 0 -598 -65 0 -65 0 0 452 c0 439 -1 453 -21 495 -15 30
-34 50 -63 66 l-41 22 -805 0 c-443 0 -817 -3 -832 -7 -35 -10 -85 -53 -103
-88 -12 -24 -15 -181 -17 -1037 -2 -1001 -2 -1008 18 -1048 11 -22 36 -50 54
-62 32 -22 39 -23 310 -23 l278 0 7 -68 c8 -77 23 -117 60 -167 29 -37 114
-85 152 -85 21 0 23 -4 23 -50 l0 -51 -417 3 -418 3 -54 30 c-63 35 -105 88
-126 158 -22 75 -23 2598 0 2673 26 87 92 146 185 165 19 4 422 6 895 6 765
-2 864 -4 895 -18z m1378 -434 c-3 -3 -9 2 -12 12 -6 14 -5 15 5 6 7 -7 10
-15 7 -18z m-1510 -57 c9 -9 12 -122 12 -445 l0 -433 -101 0 -101 0 7 28 c7
28 20 382 14 382 -2 0 -26 -7 -53 -15 -72 -22 -153 -19 -243 10 -103 32 -183
81 -265 163 l-68 66 -47 -46 c-155 -149 -305 -213 -483 -206 l-85 3 0 -115 c0
-63 3 -137 7 -165 4 -27 12 -84 17 -125 29 -218 132 -447 264 -589 20 -22 43
-39 50 -37 6 1 9 1 6 -1 -8 -5 7 -101 21 -138 6 -16 23 -43 38 -58 24 -25 25
-30 12 -50 -33 -52 -53 -105 -58 -149 l-5 -48 -251 0 c-183 0 -255 3 -264 12
-16 16 -18 1919 -2 1949 10 19 30 19 788 19 592 0 781 -3 790 -12z m-2008
-340 l0 -138 -60 0 -60 0 0 60 0 60 -71 0 -71 0 4 -59 3 -59 -90 -4 c-74 -3
-97 -8 -122 -26 -62 -44 -63 -50 -63 -597 l0 -495 -50 0 -51 0 3 653 3 653 31
33 c46 49 88 56 357 56 l237 0 0 -137z m2514 -248 l1 -290 -37 0 -38 0 0 289
0 290 33 3 c17 2 34 2 36 1 2 -1 4 -133 5 -293z m-1299 -321 l0 -444 -55 -6
c-30 -3 -79 -18 -107 -33 -29 -14 -53 -25 -54 -24 0 2 -2 11 -4 20 -2 10 -19
37 -37 60 -53 66 -75 107 -113 212 -35 97 -78 287 -90 401 l-6 61 93 17 c109
20 257 90 316 148 20 20 42 35 47 34 6 -1 10 -158 10 -446z m-1211 265 c8 -20
8 -235 -1 -766 l-6 -428 -189 0 -188 0 0 605 0 605 189 0 c163 0 190 -2 195
-16z m2690 -412 c116 -53 146 -93 226 -300 l56 -147 93 -5 c95 -5 109 -12 112
-55 4 -67 -12 -75 -140 -74 -58 1 -117 4 -130 8 -19 5 -32 28 -70 131 -88 232
-113 275 -184 313 -42 22 -45 22 -492 22 l-451 0 -48 -25 c-68 -35 -99 -78
-146 -205 -23 -61 -53 -140 -67 -177 l-25 -68 -145 0 c-80 0 -153 5 -164 10
-14 8 -19 21 -19 50 0 59 23 70 145 70 l100 0 49 133 c62 165 78 198 123 248
40 44 91 74 150 88 21 5 250 9 508 8 466 -2 470 -2 519 -25z m855 -35 c0 -18
-6 -63 -12 -102 l-12 -70 -238 -3 -238 -2 -11 32 c-6 18 -29 66 -50 107 -21
41 -38 75 -38 75 0 1 135 0 300 -2 l300 -3 -1 -32z m-4319 -72 l0 -105 -130 0
c-71 0 -130 1 -130 3 0 1 -7 40 -15 87 -23 133 -37 120 130 120 l145 0 0 -105z
m3351 -162 c30 -18 70 -87 88 -151 l10 -32 -519 0 -518 0 10 38 c20 72 57 133
91 147 25 11 111 14 420 15 352 0 392 -2 418 -17z m532 -30 c-7 -2 -19 -2 -25
0 -7 3 -2 5 12 5 14 0 19 -2 13 -5z m-431 -319 c-60 -30 -125 -99 -155 -164
-15 -32 -21 -67 -21 -120 -1 -64 3 -84 29 -134 17 -33 39 -65 50 -70 11 -6 39
-25 61 -43 23 -18 53 -38 68 -44 14 -7 26 -16 26 -20 0 -12 -1197 -12 -1205 1
-3 5 2 10 13 10 10 0 28 9 39 19 12 11 23 18 26 15 2 -3 10 9 17 26 9 21 19
30 36 30 37 0 91 54 109 111 24 72 17 189 -15 252 -29 57 -85 111 -144 138
-41 18 -37 19 538 19 l580 0 -52 -26z m303 -122 c37 -13 63 -15 95 -10 82 14
147 -28 170 -110 15 -55 13 -246 -4 -286 -26 -62 -56 -76 -167 -76 -95 0 -135
11 -84 24 35 9 97 66 91 83 -3 8 -1 11 4 8 34 -21 59 168 31 233 -13 31 -16
32 -71 32 -44 0 -59 -4 -64 -16 -3 -9 -3 -21 1 -26 3 -7 1 -8 -5 -4 -8 5 -12
-1 -12 -17 0 -30 -38 -71 -120 -129 -72 -50 -129 -74 -153 -65 -9 3 -26 25
-39 49 -43 83 -24 202 44 265 65 61 183 80 283 45z m-1726 -8 l31 -6 -20 -25
c-11 -14 -17 -30 -13 -36 3 -5 1 -7 -5 -3 -32 20 -51 -193 -22 -250 26 -50 62
-94 73 -87 6 3 7 1 3 -5 -4 -7 8 -19 31 -30 31 -17 34 -20 17 -25 -10 -4 -58
-5 -106 -4 -70 2 -90 6 -108 22 -47 42 -53 70 -48 209 6 170 25 212 108 239
22 8 24 8 59 1z m306 -118 c14 -10 20 -30 23 -78 4 -61 3 -66 -23 -86 -50 -40
-158 -25 -188 25 -5 7 -12 11 -16 9 -4 -3 -8 16 -10 41 -1 26 -4 50 -7 55 -3
5 -2 7 3 6 5 -2 19 7 33 20 20 18 35 22 95 22 45 0 78 -5 90 -14z m-1565 -136
l0 -80 -118 0 c-130 0 -156 -9 -150 -51 3 -24 3 -24 136 -27 l132 -3 0 -52 c0
-94 46 -212 105 -267 14 -13 25 -27 25 -32 0 -4 -34 -8 -76 -8 -41 0 -84 -5
-95 -10 -25 -14 -24 -46 1 -60 23 -12 1504 -31 1555 -20 99 23 155 98 155 213
l0 37 490 0 490 0 0 -50 c0 -70 25 -124 78 -169 l45 -39 -114 -84 c-125 -92
-191 -136 -286 -188 -34 -19 -59 -38 -56 -44 3 -5 1 -6 -4 -3 -6 4 -59 -15
-119 -42 -148 -66 -284 -116 -393 -144 -50 -13 -89 -26 -87 -28 2 -2 -5 -4
-17 -5 -12 0 -67 -9 -122 -20 -135 -26 -523 -27 -660 -1 -245 45 -486 120
-640 197 -54 27 -103 47 -108 43 -6 -4 -7 -1 -2 7 6 10 4 12 -9 7 -9 -4 -15
-3 -12 2 3 4 -34 32 -82 61 -231 141 -446 334 -651 587 -28 34 -51 64 -51 67
0 3 -25 42 -55 86 -49 72 -105 170 -105 185 0 2 136 6 303 8 166 1 346 3 400
5 l97 2 0 -80z m1423 -207 c-7 -2 -21 -2 -30 0 -10 3 -4 5 12 5 17 0 24 -2 18
-5z m88 -175 c3 -34 -4 -55 -27 -75 -29 -27 -72 -30 -113 -8 -31 15 -41 33
-41 71 0 24 1 24 90 24 65 0 90 -4 91 -12z m1479 -8 c0 -55 -41 -90 -105 -90
-39 0 -85 46 -85 86 0 24 1 24 95 24 88 0 95 -2 95 -20z m-435 -559 c3 -5 2
-12 -3 -15 -5 -3 -9 1 -9 9 0 17 3 19 12 6z"/>
<path d="M2420 4933 c-34 -23 -41 -35 -34 -58 17 -54 68 -71 104 -35 27 27 25
56 -5 85 -29 30 -33 30 -65 8z"/>
<path d="M3581 4869 c-1 -9 -8 -22 -16 -29 -9 -7 -13 -20 -10 -29 3 -8 3 -12
-1 -8 -4 3 -19 -2 -34 -13 -15 -11 -40 -24 -56 -30 -26 -10 -27 -13 -11 -21 9
-6 23 -7 30 -3 6 4 9 4 5 -1 -10 -10 49 -58 62 -50 6 4 9 3 8 -2 -4 -11 23
-73 31 -73 3 0 16 18 29 41 13 23 42 52 68 67 57 35 56 47 -4 45 -7 -1 -11 1
-9 3 2 3 -12 21 -32 42 -20 20 -41 46 -48 57 -10 16 -12 17 -12 4z"/>
<path d="M1984 4809 c-27 -6 -56 -24 -83 -50 -42 -41 -52 -74 -29 -97 20 -20
44 -14 89 24 39 32 48 36 87 31 29 -3 57 -15 83 -37 63 -50 116 -26 89 39 -13
32 -73 79 -111 86 -60 12 -87 13 -125 4z"/>
<path d="M4217 4192 c-19 -21 -22 -54 -7 -83 10 -17 22 -19 116 -19 124 0 144
7 144 55 0 53 -26 65 -141 65 -80 0 -99 -3 -112 -18z"/>
<path d="M1180 4141 c0 -5 -11 -23 -25 -39 -13 -16 -23 -31 -20 -34 2 -2 -5
-5 -17 -5 -40 -3 -39 -19 2 -48 23 -16 48 -38 56 -49 15 -21 15 -21 34 4 10
13 16 29 13 35 -4 5 -3 7 2 3 8 -8 65 28 65 40 0 4 -13 13 -30 19 -16 6 -39
27 -51 47 -21 36 -29 44 -29 27z"/>
<path d="M4263 3876 c-53 -17 -110 -52 -123 -76 -31 -59 11 -86 76 -49 55 31
186 39 252 14 105 -39 152 -104 152 -210 0 -54 -4 -69 -32 -111 -44 -63 -76
-85 -134 -91 -103 -10 -135 -43 -87 -90 22 -23 31 -25 76 -20 108 11 205 77
255 171 23 44 27 63 27 141 0 75 -4 97 -23 134 -28 52 -109 141 -128 141 -8 0
-14 4 -14 8 0 5 -28 18 -62 30 -72 25 -169 28 -235 8z"/>
<path d="M4420 3641 c-6 -12 -8 -27 -4 -33 4 -6 3 -8 -3 -5 -11 7 -63 -14 -63
-25 0 -4 11 -15 23 -25 13 -10 29 -28 36 -41 16 -31 47 -28 67 7 10 16 26 32
37 35 27 7 17 28 -24 48 -19 10 -34 22 -34 27 0 6 -5 15 -12 22 -8 8 -14 6
-23 -10z"/>
<path d="M2500 4170 c-27 -27 -25 -56 5 -85 l24 -25 246 0 c232 0 246 1 265
20 27 27 26 75 -2 94 -19 14 -62 16 -270 16 -235 0 -249 -1 -268 -20z"/>
<path d="M1050 3369 l0 -62 61 6 c33 3 62 7 64 9 2 1 6 20 9 40 9 61 2 68 -70
68 l-64 0 0 -61z"/>
<path d="M1300 2980 l0 -60 54 0 c81 0 86 4 86 66 l0 54 -70 0 -70 0 0 -60z"/>
<path d="M1338 2773 l-38 -4 0 -54 c0 -61 13 -75 70 -75 57 0 70 14 70 75 0
48 -3 55 -19 55 -11 0 -25 1 -33 3 -7 2 -30 2 -50 0z"/>
<path d="M1300 2440 l0 -61 68 3 67 3 3 58 3 57 -71 0 -70 0 0 -60z"/>
<path d="M1300 2170 l0 -60 70 0 70 0 0 60 0 60 -70 0 -70 0 0 -60z"/>
<path d="M3521 1833 c-28 -6 -74 -33 -67 -41 3 -2 -1 -11 -9 -19 -20 -20 -19
-93 2 -123 34 -49 36 -49 264 -50 l215 0 27 28 c15 16 24 31 20 35 -3 4 -2 7
4 7 18 0 24 59 9 94 -8 18 -29 43 -49 54 -32 21 -46 22 -213 21 -99 -1 -190
-4 -203 -6z"/>
<path d="M1354 1415 c-3 -8 -3 -26 0 -40 6 -24 9 -25 90 -25 91 0 110 10 104
52 -3 22 -8 23 -96 26 -76 2 -93 0 -98 -13z"/>
<path d="M3421 1230 c-24 -5 -50 -15 -58 -21 -23 -19 -11 -51 27 -73 33 -20
51 -21 330 -21 262 0 299 2 327 17 39 22 46 33 38 57 -13 41 -46 46 -340 48
-154 1 -300 -3 -324 -7z"/>
<path d="M1928 959 c-21 -12 -23 -42 -4 -58 9 -8 78 -11 227 -9 l214 3 3 24
c7 46 -15 51 -227 51 -115 0 -203 -5 -213 -11z"/>
<path d="M2509 963 c-27 -7 -30 -41 -6 -58 32 -22 249 -21 271 1 20 20 20 27
-2 47 -15 14 -39 17 -133 16 -63 -1 -121 -3 -130 -6z"/>
<path d="M2898 959 c-24 -13 -23 -32 3 -55 36 -32 79 15 44 50 -19 19 -24 19
-47 5z"/>
<path d="M3062 958 c-18 -18 -14 -46 7 -58 11 -5 67 -10 124 -10 88 0 106 3
120 18 21 23 21 27 1 46 -20 20 -233 23 -252 4z"/>
<path d="M3420 956 c-6 -8 -10 -25 -8 -38 3 -23 3 -23 192 -26 157 -2 193 0
212 13 29 19 31 41 5 55 -12 6 -96 10 -204 10 -149 0 -187 -3 -197 -14z"/>
<path d="M2577 743 c-12 -11 -7 -41 7 -46 21 -8 50 17 43 37 -6 16 -38 22 -50
9z"/>
<path d="M2730 730 c-16 -16 -18 -24 -10 -41 10 -18 20 -19 148 -17 l137 3 3
31 c4 40 -9 44 -150 44 -95 0 -110 -2 -128 -20z"/>
<path d="M3107 743 c-11 -11 -8 -48 5 -61 18 -18 133 -15 152 4 21 20 20 50 0
58 -21 8 -149 8 -157 -1z"/>
</g>
</svg>
