<svg xmlns="http://www.w3.org/2000/svg" data-name="Layer 1" viewBox="0 0 3000 2250"><circle cx="1042.44" cy="985.59" r="500" fill="#fedc00" stroke="#021238" stroke-linejoin="round" stroke-width="4"/><path fill="none" stroke="#021238" stroke-linejoin="round" stroke-width="4" d="m1343.58,886.53c-15.43,35.32-50.67,60-91.68,60s-76.24-24.68-91.68-59.99"/><circle cx="1301.49" cy="828.66" r="30" fill="#021238"/><circle cx="1301.49" cy="828.66" r="6" fill="#fff"/><circle cx="1202.31" cy="828.66" r="30" fill="#021238"/><circle cx="1202.31" cy="828.66" r="6" fill="#fff"/><path fill="#19aaff" stroke="#021238" stroke-linejoin="round" stroke-width="4" d="m1519.56,1315.73v-322.38c0-34.56,28.02-62.58,62.58-62.58h0c33.21,0,60.64,25.95,62.48,59.11l23.78,373.87,91.16,62.16-77.75,130.88-124.37-84.8s-37.89-24.58-37.89-91.46v-341.51c0-29.89,24.23-54.12,54.12-54.12h0c29.89,0,54.12,24.23,54.12,54.12v189.43"/><path fill="#ff9eb6" stroke="#021238" stroke-linejoin="round" stroke-width="4" d="m1608.15,966.4l14.81,77.59h25.09s-3.44-54.12-3.44-54.12c0-17.43-8.28-32.96-21.11-42.81l-15.36,19.34Z"/><path fill="#ff9eb6" stroke="#021238" stroke-linejoin="round" stroke-width="4" d="m1581.23,1014.94l19.54,78.21h27.06s0-54.12,0-54.12c0-17.43-8.28-32.96-21.11-42.81l-25.49,18.73Z"/><line x1="1639.68" x2="1717.43" y1="1528.06" y2="1397.18" fill="none" stroke="#021238" stroke-linejoin="round" stroke-width="4"/><path fill="#19aaff" stroke="#021238" stroke-linejoin="round" stroke-width="4" d="m1519.56,1315.73v-322.38c0-34.56-28.02-62.58-62.58-62.58h0c-33.21,0-60.64,25.95-62.48,59.11l-23.78,373.87-91.16,62.16,77.75,130.88,124.37-84.8s37.89-24.58,37.89-91.46v-341.51c0-29.89-24.23-54.12-54.12-54.12h0c-29.89,0-54.12,24.23-54.12,54.12v189.43"/><path fill="#ff9eb6" stroke="#021238" stroke-linejoin="round" stroke-width="4" d="m1430.96,966.4l-14.81,77.59h-25.09l3.44-54.12c0-17.43,8.28-32.96,21.11-42.81l15.36,19.34Z"/><path fill="#ff9eb6" stroke="#021238" stroke-linejoin="round" stroke-width="4" d="m1457.89,1014.94l-19.54,78.21h-27.06v-54.12c0-17.43,8.28-32.96,21.11-42.81l25.49,18.73Z"/><line x1="1399.43" x2="1321.69" y1="1528.06" y2="1397.18" fill="none" stroke="#021238" stroke-linejoin="round" stroke-width="4"/><g><path fill="#a0e8e9" stroke="#021238" stroke-linejoin="round" stroke-width="4" d="m2079.56,692.3h-410s-90,80-90,80v-180c0-55.23,44.77-100,100-100h400c55.23,0,100,44.77,100,100h0c0,55.23-44.77,100-100,100Z"/><path fill="none" stroke="#021238" stroke-linejoin="round" stroke-width="4" d="m2457.56,629.85c-72,0-72-80-144-80-72,0-72,80-144,80-72,0-72-80-144-80-72,0-72,80-144,80s-72-80-144-80"/></g><g><ellipse cx="2329.56" cy="1178.42" fill="#19aaff" stroke="#021238" stroke-linejoin="round" stroke-width="4" rx="70" ry="100"/><path fill="none" stroke="#021238" stroke-linejoin="round" stroke-width="4" d="m2029.56,1178.42v-130c0-82.84,67.16-150,150-150h0c82.84,0,150,67.16,150,150v130"/><ellipse cx="2029.56" cy="1178.42" fill="#ff9eb6" stroke="#021238" stroke-linejoin="round" stroke-width="4" rx="70" ry="100"/><ellipse cx="2029.56" cy="1178.42" fill="#fff" stroke="#021238" stroke-linejoin="round" stroke-width="4" rx="35" ry="50"/><ellipse cx="2329.56" cy="1178.42" fill="#021238" rx="14" ry="20"/><path fill="none" stroke="#021238" stroke-linejoin="round" stroke-width="4" d="m2129.56,1378.42h0c110.46,0,200-89.54,200-200h0"/><circle cx="2129.56" cy="1378.42" r="20" fill="#021238"/></g><g><rect width="30" height="77.37" x="1191.45" y="1657.9" fill="#ff9eb6" stroke="#021238" stroke-linejoin="round" stroke-width="4" transform="rotate(135 1206.45 1696.577)"/><polygon fill="#fff" stroke="#021238" stroke-linejoin="round" stroke-width="4" points="1133.33 1583.05 1225.84 1675.56 1193.12 1723.66 1124.03 1648.91 1133.33 1583.05"/><path fill="#19aaff" stroke="#021238" stroke-linejoin="round" stroke-width="4" d="m1214.18,1698.36h80c11.04,0,20,8.96,20,20h0c0,11.04-8.96,20-20,20h-40c-22.08,0-40-17.92-40-40h0Z" transform="rotate(-45 1264.187 1718.357)"/><polygon fill="#021238" stroke="#021238" stroke-linejoin="round" stroke-width="4" points="1218.21 1687.12 1206.55 1717.89 1200.89 1712.24 1218.21 1687.12"/><rect width="30" height="77.37" x="996.07" y="1649.5" fill="#ff9eb6" stroke="#021238" stroke-linejoin="round" stroke-width="4" transform="rotate(180 1011.07 1688.18)"/><polygon fill="#fff" stroke="#021238" stroke-linejoin="round" stroke-width="4" points="1039.64 1556.2 1039.64 1687.04 982.49 1697.9 986.49 1596.2 1039.64 1556.2"/><path fill="#19aaff" stroke="#021238" stroke-linejoin="round" stroke-width="4" d="m986.49,1724.41h80c11.04,0,20,8.96,20,20h0c0,11.04-8.96,20-20,20h-40c-22.08,0-40-17.92-40-40h0Z"/><polygon fill="#021238" stroke="#021238" stroke-linejoin="round" stroke-width="4" points="1026.07 1689.81 996.07 1703.32 996.07 1695.32 1026.07 1689.81"/></g></svg>